{"glyphs":{"0":{"ha":928,"x_min":0,"x_max":0,"o":"m 464 -11 b 72 490 221 -11 72 179 b 464 990 72 800 221 990 b 856 490 707 990 856 800 b 464 -11 856 179 707 -11 m 464 79 b 751 490 642 79 751 235 b 464 900 751 744 642 900 b 176 490 286 900 176 744 b 464 79 176 235 286 79 "},"1":{"ha":424,"x_min":0,"x_max":0,"o":"m 201 846 l 32 693 l 32 806 l 215 972 l 306 972 l 306 0 l 201 0 "},"2":{"ha":875,"x_min":0,"x_max":0,"o":"m 99 69 b 671 703 99 492 671 403 b 446 904 671 836 565 904 b 183 611 317 904 174 821 l 86 726 b 446 989 122 894 253 989 b 779 703 631 989 779 897 b 207 93 779 331 218 422 l 785 93 l 785 0 l 99 0 l 99 69 "},"3":{"ha":869,"x_min":0,"x_max":0,"o":"m 429 568 b 624 732 546 568 624 629 b 414 907 624 844 528 907 b 167 625 294 907 157 826 l 69 740 b 414 989 106 900 229 989 b 731 732 590 989 731 903 b 586 526 731 635 678 563 b 772 276 703 486 772 399 b 414 -18 772 82 610 -18 b 36 244 207 -18 72 76 l 133 360 b 414 67 124 150 271 67 b 665 282 543 67 665 142 b 429 478 665 400 571 478 l 296 478 l 296 568 l 429 568 "},"4":{"ha":858,"x_min":0,"x_max":0,"o":"m 515 283 l 40 283 l 40 363 l 457 972 l 619 972 l 619 369 l 858 369 l 858 283 l 619 283 l 619 0 l 515 0 m 515 369 l 515 890 l 156 369 "},"5":{"ha":915,"x_min":0,"x_max":0,"o":"m 140 421 l 161 972 l 785 972 l 785 879 l 254 879 l 243 543 b 497 665 306 635 406 665 b 833 333 699 665 833 532 b 467 -18 833 122 686 -18 b 111 244 292 -18 153 76 l 208 360 b 474 72 206 154 350 72 b 726 332 625 72 726 176 b 474 579 726 481 625 579 b 222 414 351 579 271 515 "},"6":{"ha":879,"x_min":0,"x_max":0,"o":"m 464 -14 b 72 475 211 -14 72 196 b 472 988 72 778 222 988 b 803 828 613 988 740 932 l 739 696 b 472 897 707 831 594 897 b 176 489 294 897 176 726 b 178 442 176 474 176 457 b 478 643 219 564 325 643 b 817 324 678 643 817 514 b 464 -14 817 131 678 -14 m 215 317 b 464 76 215 174 322 76 b 713 317 608 76 713 176 b 464 556 713 456 608 556 b 215 317 319 556 215 456 "},"7":{"ha":772,"x_min":0,"x_max":0,"o":"m 603 879 l 56 879 l 56 972 l 717 972 l 717 896 l 264 0 l 153 0 "},"8":{"ha":833,"x_min":0,"x_max":0,"o":"m 414 568 b 633 732 551 568 633 629 b 414 904 633 843 532 904 b 194 732 296 904 194 843 b 414 568 194 629 276 568 m 414 478 b 153 275 251 478 153 393 b 414 67 153 135 279 67 b 675 275 549 67 675 135 b 414 478 675 393 576 478 m 49 275 b 246 525 49 392 121 483 b 90 732 147 561 90 633 b 414 989 90 903 233 989 b 738 732 594 989 738 903 b 582 525 738 633 681 561 b 779 275 707 483 779 392 b 414 -18 779 74 613 -18 b 49 275 215 -18 49 74 "},"9":{"ha":879,"x_min":0,"x_max":0,"o":"m 415 989 b 807 500 668 989 807 779 b 407 -12 807 197 657 -12 b 76 147 267 -12 139 43 l 140 279 b 407 78 172 144 285 78 b 703 486 585 78 703 249 b 701 533 703 501 703 518 b 401 332 660 411 554 332 b 63 651 201 332 63 461 b 415 989 63 844 201 989 m 664 658 b 415 899 664 801 557 899 b 167 658 271 899 167 799 b 415 419 167 519 271 419 b 664 658 560 419 664 519 "}," ":{"ha":278,"x_min":0,"x_max":0,"o":""},"A":{"ha":1053,"x_min":0,"x_max":0,"o":"m 729 422 l 321 422 l 135 0 l 24 0 l 454 972 l 599 972 l 1029 0 l 915 0 m 690 513 l 525 888 l 360 513 "},"Á":{"ha":1053,"x_min":0,"x_max":0,"o":"m 729 422 l 321 422 l 135 0 l 24 0 l 454 972 l 599 972 l 1029 0 l 915 0 m 597 1279 l 767 1279 l 560 1074 l 499 1074 m 690 513 l 525 888 l 360 513 "},"Ă":{"ha":1053,"x_min":0,"x_max":0,"o":"m 729 422 l 321 422 l 135 0 l 24 0 l 454 972 l 599 972 l 1029 0 l 915 0 m 397 1279 b 526 1147 401 1203 456 1147 b 656 1279 596 1147 650 1203 l 750 1279 b 526 1065 750 1156 656 1065 b 301 1279 396 1065 301 1156 l 397 1279 m 690 513 l 525 888 l 360 513 "},"Â":{"ha":1053,"x_min":0,"x_max":0,"o":"m 729 422 l 321 422 l 135 0 l 24 0 l 454 972 l 599 972 l 1029 0 l 915 0 m 525 1193 l 399 1074 l 268 1074 l 492 1279 l 560 1279 l 783 1074 l 651 1074 m 690 513 l 525 888 l 360 513 "},"Ä":{"ha":1053,"x_min":0,"x_max":0,"o":"m 729 422 l 321 422 l 135 0 l 24 0 l 454 972 l 599 972 l 1029 0 l 915 0 m 307 1247 l 454 1247 l 454 1101 l 307 1101 m 599 1247 l 746 1247 l 746 1101 l 599 1101 m 690 513 l 525 888 l 360 513 "},"À":{"ha":1053,"x_min":0,"x_max":0,"o":"m 729 422 l 321 422 l 135 0 l 24 0 l 454 972 l 599 972 l 1029 0 l 915 0 m 493 1074 l 286 1279 l 456 1279 l 554 1074 m 690 513 l 525 888 l 360 513 "},"Ā":{"ha":1053,"x_min":0,"x_max":0,"o":"m 729 422 l 321 422 l 135 0 l 24 0 l 454 972 l 599 972 l 1029 0 l 915 0 m 771 1211 l 771 1129 l 281 1129 l 281 1211 m 690 513 l 525 888 l 360 513 "},"Ą":{"ha":1053,"x_min":0,"x_max":0,"o":"m 454 972 l 599 972 l 1029 0 l 986 0 b 919 -204 813 0 811 -204 b 1025 -126 953 -204 990 -192 l 1025 -243 b 908 -286 990 -274 942 -286 b 904 26 724 -286 706 -22 l 729 422 l 321 422 l 135 0 l 24 0 m 690 513 l 525 888 l 360 513 "},"Å":{"ha":1053,"x_min":0,"x_max":0,"o":"m 729 422 l 321 422 l 135 0 l 24 0 l 454 972 l 599 972 l 1029 0 l 915 0 m 526 1067 b 375 1211 438 1067 375 1126 b 526 1354 375 1294 438 1354 b 678 1211 615 1354 678 1294 b 526 1067 678 1126 615 1067 m 526 1139 b 594 1211 565 1139 594 1169 b 526 1282 594 1251 565 1282 b 458 1211 488 1282 458 1251 b 526 1139 458 1169 488 1139 m 690 513 l 525 888 l 360 513 "},"Ã":{"ha":1053,"x_min":0,"x_max":0,"o":"m 729 422 l 321 422 l 135 0 l 24 0 l 454 972 l 599 972 l 1029 0 l 915 0 m 411 1172 b 357 1068 369 1172 343 1139 l 269 1068 b 411 1253 254 1189 314 1253 b 640 1149 536 1253 568 1149 b 694 1253 682 1149 708 1182 l 782 1253 b 640 1068 797 1132 738 1068 b 411 1172 515 1068 483 1172 m 690 513 l 525 888 l 360 513 "},"Æ":{"ha":1461,"x_min":0,"x_max":0,"o":"m 660 972 l 1392 972 l 1392 882 l 825 882 l 825 568 l 1378 568 l 1378 478 l 825 478 l 825 90 l 1392 90 l 1392 0 l 721 0 l 721 422 l 411 422 l 129 0 l 8 0 m 721 513 l 721 888 l 471 513 "},"B":{"ha":964,"x_min":0,"x_max":0,"o":"m 118 972 l 531 972 b 811 749 706 972 811 892 b 679 556 811 660 763 590 b 867 296 797 513 867 422 b 503 0 867 115 728 0 l 118 0 m 503 90 b 763 296 664 90 763 168 b 503 507 763 426 664 507 l 222 507 l 222 90 m 531 597 b 707 740 640 597 707 651 b 531 882 707 828 640 882 l 222 882 l 222 597 "},"C":{"ha":1078,"x_min":0,"x_max":0,"o":"m 1014 229 b 575 -11 933 81 778 -11 b 72 490 269 -11 72 199 b 575 990 72 781 269 990 b 1010 758 775 990 928 901 l 944 626 b 575 900 900 804 749 900 b 176 490 343 900 176 729 b 575 79 176 251 343 79 b 947 364 753 79 907 181 l 1014 229 "},"Ć":{"ha":1078,"x_min":0,"x_max":0,"o":"m 1014 229 b 575 -11 933 81 778 -11 b 72 490 269 -11 72 199 b 575 990 72 781 269 990 b 1010 758 775 990 928 901 l 944 626 b 575 900 900 804 749 900 b 176 490 343 900 176 729 b 575 79 176 251 343 79 b 947 364 753 79 907 181 l 1014 229 m 642 1279 l 811 1279 l 604 1074 l 543 1074 "},"Č":{"ha":1078,"x_min":0,"x_max":0,"o":"m 1014 229 b 575 -11 933 81 778 -11 b 72 490 269 -11 72 199 b 575 990 72 781 269 990 b 1010 758 775 990 928 901 l 944 626 b 575 900 900 804 749 900 b 176 490 343 900 176 729 b 575 79 176 251 343 79 b 947 364 753 79 907 181 l 1014 229 m 571 1160 l 697 1279 l 828 1279 l 604 1074 l 536 1074 l 313 1279 l 444 1279 "},"Ç":{"ha":1078,"x_min":0,"x_max":0,"o":"m 1014 229 b 596 -11 936 86 789 -4 l 592 -42 b 699 -167 654 -53 699 -101 b 561 -297 699 -243 640 -297 b 424 -185 481 -297 431 -247 l 501 -128 b 561 -231 488 -207 526 -231 b 621 -167 596 -231 621 -204 b 547 -104 621 -131 594 -104 l 519 -104 l 535 -10 b 72 490 253 8 72 211 b 575 990 72 781 269 990 b 1010 758 775 990 928 901 l 944 626 b 575 900 900 804 749 900 b 176 490 343 900 176 729 b 575 79 176 251 343 79 b 947 364 753 79 907 181 l 1014 229 "},"Ĉ":{"ha":1078,"x_min":0,"x_max":0,"o":"m 1014 229 b 575 -11 933 81 778 -11 b 72 490 269 -11 72 199 b 575 990 72 781 269 990 b 1010 758 775 990 928 901 l 944 626 b 575 900 900 804 749 900 b 176 490 343 900 176 729 b 575 79 176 251 343 79 b 947 364 753 79 907 181 l 1014 229 m 569 1193 l 443 1074 l 313 1074 l 536 1279 l 604 1279 l 828 1074 l 696 1074 "},"Ċ":{"ha":1078,"x_min":0,"x_max":0,"o":"m 1014 229 b 575 -11 933 81 778 -11 b 72 490 269 -11 72 199 b 575 990 72 781 269 990 b 1010 758 775 990 928 901 l 944 626 b 575 900 900 804 749 900 b 176 490 343 900 176 729 b 575 79 176 251 343 79 b 947 364 753 79 907 181 l 1014 229 m 493 1249 l 649 1249 l 649 1093 l 493 1093 "},"D":{"ha":994,"x_min":0,"x_max":0,"o":"m 419 972 b 922 490 725 972 922 769 b 419 0 922 206 725 0 l 118 0 l 118 972 l 419 972 m 419 89 b 818 490 651 89 818 257 b 419 882 818 717 651 882 l 222 882 l 222 89 "},"Ð":{"ha":1103,"x_min":0,"x_max":0,"o":"m 528 972 b 1031 490 833 972 1031 769 b 528 0 1031 206 833 0 l 226 0 l 226 472 l 36 472 l 36 521 l 226 521 l 226 972 l 528 972 m 528 89 b 926 490 760 89 926 257 b 528 882 926 717 760 882 l 331 882 l 331 521 l 526 521 l 526 472 l 331 472 l 331 89 "},"Ď":{"ha":994,"x_min":0,"x_max":0,"o":"m 419 972 b 922 490 725 972 922 769 b 419 0 922 206 725 0 l 118 0 l 118 972 l 419 972 m 496 1160 l 622 1279 l 753 1279 l 529 1074 l 461 1074 l 238 1279 l 369 1279 m 419 89 b 818 490 651 89 818 257 b 419 882 818 717 651 882 l 222 882 l 222 89 "},"Ḑ":{"ha":994,"x_min":0,"x_max":0,"o":"m 419 972 b 922 490 725 972 922 769 b 419 0 922 206 725 0 l 118 0 l 118 972 l 419 972 m 424 -81 l 571 -81 l 571 -131 b 508 -353 571 -235 564 -283 l 399 -353 b 483 -226 453 -308 475 -271 l 424 -226 m 419 89 b 818 490 651 89 818 257 b 419 882 818 717 651 882 l 222 882 l 222 89 "},"Đ":{"ha":1061,"x_min":0,"x_max":0,"o":"m 486 972 b 989 490 792 972 989 769 b 486 0 989 206 792 0 l 185 0 l 185 472 l -6 472 l -6 521 l 185 521 l 185 972 l 486 972 m 486 89 b 885 490 718 89 885 257 b 486 882 885 717 718 882 l 289 882 l 289 521 l 485 521 l 485 472 l 289 472 l 289 89 "},"E":{"ha":858,"x_min":0,"x_max":0,"o":"m 118 972 l 789 972 l 789 882 l 222 882 l 222 568 l 775 568 l 775 478 l 222 478 l 222 90 l 789 90 l 789 0 l 118 0 "},"É":{"ha":858,"x_min":0,"x_max":0,"o":"m 118 972 l 789 972 l 789 882 l 222 882 l 222 568 l 775 568 l 775 478 l 222 478 l 222 90 l 789 90 l 789 0 l 118 0 m 507 1279 l 676 1279 l 469 1074 l 408 1074 "},"Ĕ":{"ha":858,"x_min":0,"x_max":0,"o":"m 118 972 l 789 972 l 789 882 l 222 882 l 222 568 l 775 568 l 775 478 l 222 478 l 222 90 l 789 90 l 789 0 l 118 0 m 307 1279 b 436 1147 311 1203 365 1147 b 565 1279 506 1147 560 1203 l 660 1279 b 436 1065 660 1156 565 1065 b 211 1279 306 1065 211 1156 l 307 1279 "},"Ě":{"ha":858,"x_min":0,"x_max":0,"o":"m 118 972 l 789 972 l 789 882 l 222 882 l 222 568 l 775 568 l 775 478 l 222 478 l 222 90 l 789 90 l 789 0 l 118 0 m 436 1160 l 563 1279 l 693 1279 l 469 1074 l 401 1074 l 178 1279 l 310 1279 "},"Ê":{"ha":858,"x_min":0,"x_max":0,"o":"m 118 972 l 789 972 l 789 882 l 222 882 l 222 568 l 775 568 l 775 478 l 222 478 l 222 90 l 789 90 l 789 0 l 118 0 m 435 1193 l 308 1074 l 178 1074 l 401 1279 l 469 1279 l 693 1074 l 561 1074 "},"Ë":{"ha":858,"x_min":0,"x_max":0,"o":"m 118 972 l 789 972 l 789 882 l 222 882 l 222 568 l 775 568 l 775 478 l 222 478 l 222 90 l 789 90 l 789 0 l 118 0 m 217 1247 l 364 1247 l 364 1101 l 217 1101 m 508 1247 l 656 1247 l 656 1101 l 508 1101 "},"Ė":{"ha":858,"x_min":0,"x_max":0,"o":"m 118 972 l 789 972 l 789 882 l 222 882 l 222 568 l 775 568 l 775 478 l 222 478 l 222 90 l 789 90 l 789 0 l 118 0 m 358 1249 l 514 1249 l 514 1093 l 358 1093 "},"Ẹ":{"ha":858,"x_min":0,"x_max":0,"o":"m 118 972 l 789 972 l 789 882 l 222 882 l 222 568 l 775 568 l 775 478 l 222 478 l 222 90 l 789 90 l 789 0 l 118 0 "},"È":{"ha":858,"x_min":0,"x_max":0,"o":"m 118 972 l 789 972 l 789 882 l 222 882 l 222 568 l 775 568 l 775 478 l 222 478 l 222 90 l 789 90 l 789 0 l 118 0 m 403 1074 l 196 1279 l 365 1279 l 464 1074 "},"Ē":{"ha":858,"x_min":0,"x_max":0,"o":"m 118 972 l 789 972 l 789 882 l 222 882 l 222 568 l 775 568 l 775 478 l 222 478 l 222 90 l 789 90 l 789 0 l 118 0 m 681 1211 l 681 1129 l 190 1129 l 190 1211 "},"Ę":{"ha":858,"x_min":0,"x_max":0,"o":"m 118 972 l 789 972 l 789 882 l 222 882 l 222 568 l 775 568 l 775 478 l 222 478 l 222 90 l 789 90 l 789 0 l 746 0 b 679 -204 572 0 571 -204 b 785 -126 713 -204 750 -192 l 785 -243 b 668 -286 750 -274 701 -286 b 600 0 506 -286 472 -83 l 118 0 "},"Ẽ":{"ha":858,"x_min":0,"x_max":0,"o":"m 118 972 l 789 972 l 789 882 l 222 882 l 222 568 l 775 568 l 775 478 l 222 478 l 222 90 l 789 90 l 789 0 l 118 0 m 321 1172 b 267 1068 279 1172 253 1139 l 179 1068 b 321 1253 164 1189 224 1253 b 550 1149 446 1253 478 1149 b 604 1253 592 1149 618 1182 l 692 1253 b 550 1068 707 1132 647 1068 b 321 1172 425 1068 393 1172 "},"Ə":{"ha":1121,"x_min":0,"x_max":0,"o":"m 79 490 l 944 490 l 944 507 b 554 894 944 721 785 894 b 179 675 372 894 249 819 l 125 799 b 554 989 211 921 360 989 b 1049 488 854 989 1049 783 b 556 -11 1049 199 854 -11 b 79 447 265 -11 79 199 m 186 403 b 556 79 200 193 369 79 b 942 403 782 79 921 213 l 186 403 "},"F":{"ha":810,"x_min":0,"x_max":0,"o":"m 118 972 l 789 972 l 789 882 l 222 882 l 222 568 l 775 568 l 775 478 l 222 478 l 222 0 l 118 0 "},"G":{"ha":1133,"x_min":0,"x_max":0,"o":"m 910 226 b 544 -11 850 68 717 -11 b 72 488 263 -11 72 199 b 575 990 72 782 269 990 b 1010 758 775 990 928 901 l 944 626 b 575 900 900 804 749 900 b 176 490 343 900 176 729 b 568 79 176 251 336 79 b 910 433 746 79 907 181 l 910 451 l 431 451 l 431 542 l 1014 542 l 1014 0 l 910 0 "},"Ğ":{"ha":1133,"x_min":0,"x_max":0,"o":"m 910 226 b 544 -11 850 68 717 -11 b 72 488 263 -11 72 199 b 575 990 72 782 269 990 b 1010 758 775 990 928 901 l 944 626 b 575 900 900 804 749 900 b 176 490 343 900 176 729 b 568 79 176 251 336 79 b 910 433 746 79 907 181 l 910 451 l 431 451 l 431 542 l 1014 542 l 1014 0 l 910 0 m 439 1279 b 568 1147 443 1203 497 1147 b 697 1279 638 1147 692 1203 l 792 1279 b 568 1065 792 1156 697 1065 b 343 1279 438 1065 343 1156 l 439 1279 "},"Ǧ":{"ha":1133,"x_min":0,"x_max":0,"o":"m 910 226 b 544 -11 850 68 717 -11 b 72 488 263 -11 72 199 b 575 990 72 782 269 990 b 1010 758 775 990 928 901 l 944 626 b 575 900 900 804 749 900 b 176 490 343 900 176 729 b 568 79 176 251 336 79 b 910 433 746 79 907 181 l 910 451 l 431 451 l 431 542 l 1014 542 l 1014 0 l 910 0 m 568 1160 l 694 1279 l 825 1279 l 601 1074 l 533 1074 l 310 1279 l 442 1279 "},"Ĝ":{"ha":1133,"x_min":0,"x_max":0,"o":"m 910 226 b 544 -11 850 68 717 -11 b 72 488 263 -11 72 199 b 575 990 72 782 269 990 b 1010 758 775 990 928 901 l 944 626 b 575 900 900 804 749 900 b 176 490 343 900 176 729 b 568 79 176 251 336 79 b 910 433 746 79 907 181 l 910 451 l 431 451 l 431 542 l 1014 542 l 1014 0 l 910 0 m 567 1193 l 440 1074 l 310 1074 l 533 1279 l 601 1279 l 825 1074 l 693 1074 "},"Ģ":{"ha":1133,"x_min":0,"x_max":0,"o":"m 910 226 b 544 -11 850 68 717 -11 b 72 488 263 -11 72 199 b 575 990 72 782 269 990 b 1010 758 775 990 928 901 l 944 626 b 575 900 900 804 749 900 b 176 490 343 900 176 729 b 568 79 176 251 336 79 b 910 433 746 79 907 181 l 910 451 l 431 451 l 431 542 l 1014 542 l 1014 0 l 910 0 m 496 -81 l 643 -81 l 643 -131 b 581 -353 643 -235 636 -283 l 471 -353 b 556 -226 525 -308 547 -271 l 496 -226 "},"Ġ":{"ha":1133,"x_min":0,"x_max":0,"o":"m 910 226 b 544 -11 850 68 717 -11 b 72 488 263 -11 72 199 b 575 990 72 782 269 990 b 1010 758 775 990 928 901 l 944 626 b 575 900 900 804 749 900 b 176 490 343 900 176 729 b 568 79 176 251 336 79 b 910 433 746 79 907 181 l 910 451 l 431 451 l 431 542 l 1014 542 l 1014 0 l 910 0 m 490 1249 l 646 1249 l 646 1093 l 490 1093 "},"Ḡ":{"ha":1133,"x_min":0,"x_max":0,"o":"m 910 226 b 544 -11 850 68 717 -11 b 72 488 263 -11 72 199 b 575 990 72 782 269 990 b 1010 758 775 990 928 901 l 944 626 b 575 900 900 804 749 900 b 176 490 343 900 176 729 b 568 79 176 251 336 79 b 910 433 746 79 907 181 l 910 451 l 431 451 l 431 542 l 1014 542 l 1014 0 l 910 0 m 813 1211 l 813 1129 l 322 1129 l 322 1211 "},"H":{"ha":1049,"x_min":0,"x_max":0,"o":"m 118 972 l 222 972 l 222 568 l 826 568 l 826 972 l 931 972 l 931 0 l 826 0 l 826 478 l 222 478 l 222 0 l 118 0 "},"Ħ":{"ha":1101,"x_min":0,"x_max":0,"o":"m 146 732 l 14 732 l 14 781 l 146 781 l 146 972 l 250 972 l 250 781 l 854 781 l 854 972 l 958 972 l 958 781 l 1088 781 l 1088 732 l 958 732 l 958 0 l 854 0 l 854 478 l 250 478 l 250 0 l 146 0 m 854 568 l 854 732 l 250 732 l 250 568 "},"Ĥ":{"ha":1049,"x_min":0,"x_max":0,"o":"m 118 972 l 222 972 l 222 568 l 826 568 l 826 972 l 931 972 l 931 0 l 826 0 l 826 478 l 222 478 l 222 0 l 118 0 m 524 1193 l 397 1074 l 267 1074 l 490 1279 l 558 1279 l 782 1074 l 650 1074 "},"Ḥ":{"ha":1049,"x_min":0,"x_max":0,"o":"m 118 972 l 222 972 l 222 568 l 826 568 l 826 972 l 931 972 l 931 0 l 826 0 l 826 478 l 222 478 l 222 0 l 118 0 m 451 -81 l 599 -81 l 599 -228 l 451 -228 "},"I":{"ha":340,"x_min":0,"x_max":0,"o":"m 118 972 l 222 972 l 222 0 l 118 0 "},"Ĳ":{"ha":931,"x_min":0,"x_max":0,"o":"m 111 972 l 215 972 l 215 514 l 111 514 m 463 -14 b 118 254 267 -14 149 93 l 215 369 b 463 78 210 161 333 78 b 715 357 619 78 715 183 l 715 972 l 819 972 l 819 357 b 463 -14 819 126 683 -14 "},"Í":{"ha":340,"x_min":0,"x_max":0,"o":"m 118 972 l 222 972 l 222 0 l 118 0 m 242 1279 l 411 1279 l 204 1074 l 143 1074 "},"Ĭ":{"ha":340,"x_min":0,"x_max":0,"o":"m 118 972 l 222 972 l 222 0 l 118 0 m 42 1279 b 171 1147 46 1203 100 1147 b 300 1279 240 1147 294 1203 l 394 1279 b 171 1065 394 1156 300 1065 b -54 1279 40 1065 -54 1156 l 42 1279 "},"Î":{"ha":340,"x_min":0,"x_max":0,"o":"m 118 972 l 222 972 l 222 0 l 118 0 m 169 1193 l 43 1074 l -87 1074 l 136 1279 l 204 1279 l 428 1074 l 296 1074 "},"Ï":{"ha":340,"x_min":0,"x_max":0,"o":"m 118 972 l 222 972 l 222 0 l 118 0 m -49 1247 l 99 1247 l 99 1101 l -49 1101 m 243 1247 l 390 1247 l 390 1101 l 243 1101 "},"İ":{"ha":340,"x_min":0,"x_max":0,"o":"m 118 972 l 222 972 l 222 0 l 118 0 m 93 1249 l 249 1249 l 249 1093 l 93 1093 "},"Ì":{"ha":340,"x_min":0,"x_max":0,"o":"m 118 972 l 222 972 l 222 0 l 118 0 m 138 1074 l -69 1279 l 100 1279 l 199 1074 "},"Ī":{"ha":340,"x_min":0,"x_max":0,"o":"m 118 972 l 222 972 l 222 0 l 118 0 m 374 1197 l 374 1115 l -33 1115 l -33 1197 "},"Į":{"ha":340,"x_min":0,"x_max":0,"o":"m 222 0 b 156 -204 49 0 47 -204 b 261 -126 189 -204 226 -192 l 261 -243 b 144 -286 226 -274 178 -286 b 118 21 -33 -286 -57 -43 l 118 972 l 222 972 l 222 0 "},"Ɨ":{"ha":415,"x_min":0,"x_max":0,"o":"m 157 472 l 4 472 l 4 521 l 157 521 l 157 972 l 261 972 l 261 521 l 411 521 l 411 472 l 261 472 l 261 0 l 157 0 "},"Ĩ":{"ha":340,"x_min":0,"x_max":0,"o":"m 118 972 l 222 972 l 222 0 l 118 0 m 56 1172 b 1 1068 14 1172 -12 1139 l -86 1068 b 56 1253 -101 1189 -42 1253 b 285 1149 181 1253 213 1149 b 339 1253 326 1149 353 1182 l 426 1253 b 285 1068 442 1132 382 1068 b 56 1172 160 1068 128 1172 "},"J":{"ha":875,"x_min":0,"x_max":0,"o":"m 407 -14 b 63 254 211 -14 93 93 l 160 369 b 407 78 154 161 278 78 b 660 357 564 78 660 183 l 660 972 l 764 972 l 764 357 b 407 -14 764 126 628 -14 "},"Ĵ":{"ha":875,"x_min":0,"x_max":0,"o":"m 407 -14 b 63 254 211 -14 93 93 l 160 369 b 407 78 154 161 278 78 b 660 357 564 78 660 183 l 660 972 l 764 972 l 764 357 b 407 -14 764 126 628 -14 m 708 1193 l 582 1074 l 451 1074 l 675 1279 l 743 1279 l 967 1074 l 835 1074 "},"K":{"ha":956,"x_min":0,"x_max":0,"o":"m 118 972 l 222 972 l 222 479 l 769 972 l 903 972 l 503 614 l 942 0 l 815 0 l 426 546 l 222 363 l 222 0 l 118 0 "},"Ķ":{"ha":956,"x_min":0,"x_max":0,"o":"m 118 972 l 222 972 l 222 479 l 769 972 l 903 972 l 503 614 l 942 0 l 815 0 l 426 546 l 222 363 l 222 0 l 118 0 m 406 -81 l 553 -81 l 553 -131 b 490 -353 553 -235 546 -283 l 381 -353 b 465 -226 435 -308 457 -271 l 406 -226 "},"L":{"ha":789,"x_min":0,"x_max":0,"o":"m 118 972 l 222 972 l 222 90 l 761 90 l 761 0 l 118 0 "},"Ĺ":{"ha":789,"x_min":0,"x_max":0,"o":"m 118 972 l 222 972 l 222 90 l 761 90 l 761 0 l 118 0 m 236 1279 l 406 1279 l 199 1074 l 138 1074 "},"Ľ":{"ha":789,"x_min":0,"x_max":0,"o":"m 118 972 l 222 972 l 222 90 l 761 90 l 761 0 l 118 0 m 606 972 l 753 972 l 753 840 b 690 618 753 736 746 688 l 581 618 b 671 826 664 688 671 740 l 606 826 "},"Ļ":{"ha":789,"x_min":0,"x_max":0,"o":"m 118 972 l 222 972 l 222 90 l 761 90 l 761 0 l 118 0 m 329 -81 l 476 -81 l 476 -131 b 414 -353 476 -235 469 -283 l 304 -353 b 389 -226 358 -308 381 -271 l 329 -226 "},"Ŀ":{"ha":792,"x_min":0,"x_max":0,"o":"m 118 972 l 222 972 l 222 90 l 761 90 l 761 0 l 118 0 m 479 576 l 626 576 l 626 431 l 479 431 "},"Ḷ":{"ha":789,"x_min":0,"x_max":0,"o":"m 118 972 l 222 972 l 222 90 l 761 90 l 761 0 l 118 0 m 328 -81 l 475 -81 l 475 -228 l 328 -228 "},"Ł":{"ha":846,"x_min":0,"x_max":0,"o":"m 175 444 l 0 375 l 0 428 l 175 497 l 175 972 l 279 972 l 279 539 l 490 622 l 490 569 l 279 486 l 279 90 l 818 90 l 818 0 l 175 0 "},"M":{"ha":1138,"x_min":0,"x_max":0,"o":"m 222 875 l 222 0 l 118 0 l 118 972 l 286 972 l 572 429 l 858 972 l 1019 972 l 1019 0 l 915 0 l 915 875 l 569 235 "},"N":{"ha":1035,"x_min":0,"x_max":0,"o":"m 118 972 l 282 972 l 813 88 l 813 972 l 917 972 l 917 0 l 753 0 l 222 874 l 222 0 l 118 0 "},"Ń":{"ha":1035,"x_min":0,"x_max":0,"o":"m 118 972 l 282 972 l 813 88 l 813 972 l 917 972 l 917 0 l 753 0 l 222 874 l 222 0 l 118 0 m 589 1279 l 758 1279 l 551 1074 l 490 1074 "},"Ň":{"ha":1035,"x_min":0,"x_max":0,"o":"m 118 972 l 282 972 l 813 88 l 813 972 l 917 972 l 917 0 l 753 0 l 222 874 l 222 0 l 118 0 m 518 1160 l 644 1279 l 775 1279 l 551 1074 l 483 1074 l 260 1279 l 392 1279 "},"Ņ":{"ha":1035,"x_min":0,"x_max":0,"o":"m 118 972 l 282 972 l 813 88 l 813 972 l 917 972 l 917 0 l 753 0 l 222 874 l 222 0 l 118 0 m 446 -81 l 593 -81 l 593 -131 b 531 -353 593 -235 586 -283 l 421 -353 b 506 -226 475 -308 497 -271 l 446 -226 "},"Ɲ":{"ha":1071,"x_min":0,"x_max":0,"o":"m 346 972 l 849 89 l 849 972 l 953 972 l 953 0 l 789 0 l 286 874 l 286 -107 b 124 -286 286 -218 224 -286 b 7 -243 90 -286 42 -274 l 7 -119 b 113 -197 42 -185 79 -197 b 182 -93 157 -197 182 -165 l 182 972 "},"Ñ":{"ha":1035,"x_min":0,"x_max":0,"o":"m 118 972 l 282 972 l 813 88 l 813 972 l 917 972 l 917 0 l 753 0 l 222 874 l 222 0 l 118 0 m 403 1172 b 349 1068 361 1172 335 1139 l 261 1068 b 403 1253 246 1189 306 1253 b 632 1149 528 1253 560 1149 b 686 1253 674 1149 700 1182 l 774 1253 b 632 1068 789 1132 729 1068 b 403 1172 507 1068 475 1172 "},"Ŋ":{"ha":1007,"x_min":0,"x_max":0,"o":"m 118 972 l 282 972 l 785 89 l 785 972 l 889 972 l 889 -107 b 726 -286 889 -218 826 -286 b 610 -243 693 -286 644 -274 l 610 -119 b 715 -197 644 -185 682 -197 b 785 -93 760 -197 785 -165 l 785 0 l 725 0 l 222 874 l 222 0 l 118 0 "},"O":{"ha":1150,"x_min":0,"x_max":0,"o":"m 575 -11 b 72 490 269 -11 72 199 b 575 990 72 781 269 990 b 1078 490 881 990 1078 781 b 575 -11 1078 199 881 -11 m 575 79 b 974 490 807 79 974 251 b 575 900 974 729 807 900 b 176 490 343 900 176 729 b 575 79 176 251 343 79 "},"Ó":{"ha":1150,"x_min":0,"x_max":0,"o":"m 575 -11 b 72 490 269 -11 72 199 b 575 990 72 781 269 990 b 1078 490 881 990 1078 781 b 575 -11 1078 199 881 -11 m 575 79 b 974 490 807 79 974 251 b 575 900 974 729 807 900 b 176 490 343 900 176 729 b 575 79 176 251 343 79 m 646 1279 l 815 1279 l 608 1074 l 547 1074 "},"Ŏ":{"ha":1150,"x_min":0,"x_max":0,"o":"m 575 -11 b 72 490 269 -11 72 199 b 575 990 72 781 269 990 b 1078 490 881 990 1078 781 b 575 -11 1078 199 881 -11 m 575 79 b 974 490 807 79 974 251 b 575 900 974 729 807 900 b 176 490 343 900 176 729 b 575 79 176 251 343 79 m 446 1279 b 575 1147 450 1203 504 1147 b 704 1279 644 1147 699 1203 l 799 1279 b 575 1065 799 1156 704 1065 b 350 1279 444 1065 350 1156 l 446 1279 "},"Ô":{"ha":1150,"x_min":0,"x_max":0,"o":"m 575 -11 b 72 490 269 -11 72 199 b 575 990 72 781 269 990 b 1078 490 881 990 1078 781 b 575 -11 1078 199 881 -11 m 575 79 b 974 490 807 79 974 251 b 575 900 974 729 807 900 b 176 490 343 900 176 729 b 575 79 176 251 343 79 m 574 1193 l 447 1074 l 317 1074 l 540 1279 l 608 1279 l 832 1074 l 700 1074 "},"Ö":{"ha":1150,"x_min":0,"x_max":0,"o":"m 575 -11 b 72 490 269 -11 72 199 b 575 990 72 781 269 990 b 1078 490 881 990 1078 781 b 575 -11 1078 199 881 -11 m 575 79 b 974 490 807 79 974 251 b 575 900 974 729 807 900 b 176 490 343 900 176 729 b 575 79 176 251 343 79 m 356 1247 l 503 1247 l 503 1101 l 356 1101 m 647 1247 l 794 1247 l 794 1101 l 647 1101 "},"Ọ":{"ha":1150,"x_min":0,"x_max":0,"o":"m 575 -11 b 72 490 269 -11 72 199 b 575 990 72 781 269 990 b 1078 490 881 990 1078 781 b 575 -11 1078 199 881 -11 m 575 79 b 974 490 807 79 974 251 b 575 900 974 729 807 900 b 176 490 343 900 176 729 b 575 79 176 251 343 79 m 501 -81 l 649 -81 l 649 -228 l 501 -228 "},"Ò":{"ha":1150,"x_min":0,"x_max":0,"o":"m 575 -11 b 72 490 269 -11 72 199 b 575 990 72 781 269 990 b 1078 490 881 990 1078 781 b 575 -11 1078 199 881 -11 m 575 79 b 974 490 807 79 974 251 b 575 900 974 729 807 900 b 176 490 343 900 176 729 b 575 79 176 251 343 79 m 542 1074 l 335 1279 l 504 1279 l 603 1074 "},"Ő":{"ha":1150,"x_min":0,"x_max":0,"o":"m 575 -11 b 72 490 269 -11 72 199 b 575 990 72 781 269 990 b 1078 490 881 990 1078 781 b 575 -11 1078 199 881 -11 m 575 79 b 974 490 807 79 974 251 b 575 900 974 729 807 900 b 176 490 343 900 176 729 b 575 79 176 251 343 79 m 504 1279 l 667 1279 l 492 1074 l 433 1074 m 757 1279 l 926 1279 l 719 1074 l 658 1074 "},"Ō":{"ha":1150,"x_min":0,"x_max":0,"o":"m 575 -11 b 72 490 269 -11 72 199 b 575 990 72 781 269 990 b 1078 490 881 990 1078 781 b 575 -11 1078 199 881 -11 m 575 79 b 974 490 807 79 974 251 b 575 900 974 729 807 900 b 176 490 343 900 176 729 b 575 79 176 251 343 79 m 819 1211 l 819 1129 l 329 1129 l 329 1211 "},"Ø":{"ha":1150,"x_min":0,"x_max":0,"o":"m 575 -11 b 269 79 454 -11 351 21 l 192 -14 l 119 -14 l 226 114 b 72 490 128 203 72 335 b 575 990 72 781 269 990 b 885 897 697 990 803 957 l 958 986 l 1031 986 l 926 863 b 1078 490 1024 774 1078 643 b 575 -11 1078 199 881 -11 m 575 79 b 974 490 807 79 974 251 b 861 785 974 610 932 713 l 333 156 b 575 79 400 107 482 79 m 176 490 b 292 192 176 369 219 265 l 819 821 b 575 900 754 871 669 900 b 176 490 343 900 176 729 "},"Ǿ":{"ha":1150,"x_min":0,"x_max":0,"o":"m 575 -11 b 269 79 454 -11 351 21 l 192 -14 l 119 -14 l 226 114 b 72 490 128 203 72 335 b 575 990 72 781 269 990 b 885 897 697 990 803 957 l 958 986 l 1031 986 l 926 863 b 1078 490 1024 774 1078 643 b 575 -11 1078 199 881 -11 m 575 79 b 974 490 807 79 974 251 b 861 785 974 610 932 713 l 333 156 b 575 79 400 107 482 79 m 646 1279 l 815 1279 l 608 1074 l 547 1074 m 176 490 b 292 192 176 369 219 265 l 819 821 b 575 900 754 871 669 900 b 176 490 343 900 176 729 "},"Õ":{"ha":1150,"x_min":0,"x_max":0,"o":"m 575 -11 b 72 490 269 -11 72 199 b 575 990 72 781 269 990 b 1078 490 881 990 1078 781 b 575 -11 1078 199 881 -11 m 575 79 b 974 490 807 79 974 251 b 575 900 974 729 807 900 b 176 490 343 900 176 729 b 575 79 176 251 343 79 m 460 1172 b 406 1068 418 1172 392 1139 l 318 1068 b 460 1253 303 1189 363 1253 b 689 1149 585 1253 617 1149 b 743 1253 731 1149 757 1182 l 831 1253 b 689 1068 846 1132 786 1068 b 460 1172 564 1068 532 1172 "},"Œ":{"ha":1714,"x_min":0,"x_max":0,"o":"m 575 -11 b 72 490 269 -11 72 199 b 575 990 72 781 269 990 b 974 813 749 990 886 924 l 974 972 l 1644 972 l 1644 882 l 1078 882 l 1078 568 l 1631 568 l 1631 478 l 1078 478 l 1078 90 l 1644 90 l 1644 0 l 974 0 l 974 167 b 575 -11 886 56 749 -11 m 575 79 b 974 490 807 79 974 251 b 575 900 974 729 807 900 b 176 490 343 900 176 729 b 575 79 176 251 343 79 "},"P":{"ha":922,"x_min":0,"x_max":0,"o":"m 544 972 b 867 703 744 972 867 869 b 544 431 867 533 744 431 l 222 431 l 222 0 l 118 0 l 118 972 l 544 972 m 544 521 b 763 703 679 521 763 590 b 544 882 763 814 679 882 l 222 882 l 222 521 "},"Þ":{"ha":908,"x_min":0,"x_max":0,"o":"m 517 778 b 853 510 725 778 853 676 b 517 236 853 339 725 236 l 222 236 l 222 0 l 118 0 l 118 972 l 222 972 l 222 778 l 517 778 m 517 326 b 749 510 661 326 749 396 b 517 688 749 621 661 688 l 222 688 l 222 326 "},"Q":{"ha":1150,"x_min":0,"x_max":0,"o":"m 575 -11 b 72 490 269 -11 72 199 b 575 990 72 781 269 990 b 1078 490 881 990 1078 781 b 763 19 1078 264 958 86 b 913 -85 789 -40 829 -85 b 1064 -32 990 -85 1025 -62 l 1014 -158 b 917 -182 992 -174 963 -182 b 694 0 775 -182 724 -96 b 575 -11 657 -7 617 -11 m 575 79 b 669 89 608 79 640 83 b 533 264 647 182 622 264 b 454 181 483 264 454 229 b 575 79 454 132 492 79 m 176 490 b 404 114 176 315 265 176 b 385 186 392 133 385 158 b 532 331 385 274 450 331 b 733 110 676 331 704 217 b 974 490 879 168 974 310 b 575 900 974 729 807 900 b 176 490 343 900 176 729 "},"R":{"ha":1019,"x_min":0,"x_max":0,"o":"m 118 972 l 604 972 b 885 739 778 972 885 883 b 707 511 885 625 825 542 b 833 276 797 481 833 411 l 833 242 b 928 0 833 144 850 51 l 794 0 b 726 242 735 51 722 146 l 728 276 b 511 486 735 453 635 486 l 222 486 l 222 0 l 118 0 m 604 576 b 781 728 714 576 781 635 b 604 882 781 824 714 882 l 222 882 l 222 576 "},"Ŕ":{"ha":1019,"x_min":0,"x_max":0,"o":"m 118 972 l 604 972 b 885 739 778 972 885 883 b 707 511 885 625 825 542 b 833 276 797 481 833 411 l 833 242 b 928 0 833 144 850 51 l 794 0 b 726 242 735 51 722 146 l 728 276 b 511 486 735 453 635 486 l 222 486 l 222 0 l 118 0 m 574 1279 l 743 1279 l 536 1074 l 475 1074 m 604 576 b 781 728 714 576 781 635 b 604 882 781 824 714 882 l 222 882 l 222 576 "},"Ř":{"ha":1019,"x_min":0,"x_max":0,"o":"m 118 972 l 604 972 b 885 739 778 972 885 883 b 707 511 885 625 825 542 b 833 276 797 481 833 411 l 833 242 b 928 0 833 144 850 51 l 794 0 b 726 242 735 51 722 146 l 728 276 b 511 486 735 453 635 486 l 222 486 l 222 0 l 118 0 m 503 1160 l 629 1279 l 760 1279 l 536 1074 l 468 1074 l 244 1279 l 376 1279 m 604 576 b 781 728 714 576 781 635 b 604 882 781 824 714 882 l 222 882 l 222 576 "},"Ŗ":{"ha":1019,"x_min":0,"x_max":0,"o":"m 118 972 l 604 972 b 885 739 778 972 885 883 b 707 511 885 625 825 542 b 833 276 797 481 833 411 l 833 242 b 928 0 833 144 850 51 l 794 0 b 726 242 735 51 722 146 l 728 276 b 511 486 735 453 635 486 l 222 486 l 222 0 l 118 0 m 431 -81 l 578 -81 l 578 -131 b 515 -353 578 -235 571 -283 l 406 -353 b 490 -226 460 -308 482 -271 l 431 -226 m 604 576 b 781 728 714 576 781 635 b 604 882 781 824 714 882 l 222 882 l 222 576 "},"S":{"ha":931,"x_min":0,"x_max":0,"o":"m 454 904 b 231 733 336 904 231 847 b 856 269 231 453 856 682 b 471 -14 856 71 674 -14 b 71 254 243 -14 107 93 l 168 369 b 481 76 161 160 317 76 b 749 264 619 76 749 138 b 124 724 749 575 124 335 b 460 989 124 908 272 989 b 817 740 650 989 781 900 l 719 625 b 454 904 729 825 586 904 "},"Ś":{"ha":931,"x_min":0,"x_max":0,"o":"m 454 904 b 231 733 336 904 231 847 b 856 269 231 453 856 682 b 471 -14 856 71 674 -14 b 71 254 243 -14 107 93 l 168 369 b 481 76 161 160 317 76 b 749 264 619 76 749 138 b 124 724 749 575 124 335 b 460 989 124 908 272 989 b 817 740 650 989 781 900 l 719 625 b 454 904 729 825 586 904 m 536 1279 l 706 1279 l 499 1074 l 438 1074 "},"Ꞌ":{"ha":368,"x_min":0,"x_max":0,"o":"m 118 972 l 250 972 l 213 460 l 157 460 "},"Š":{"ha":931,"x_min":0,"x_max":0,"o":"m 454 904 b 231 733 336 904 231 847 b 856 269 231 453 856 682 b 471 -14 856 71 674 -14 b 71 254 243 -14 107 93 l 168 369 b 481 76 161 160 317 76 b 749 264 619 76 749 138 b 124 724 749 575 124 335 b 460 989 124 908 272 989 b 817 740 650 989 781 900 l 719 625 b 454 904 729 825 586 904 m 465 1160 l 592 1279 l 722 1279 l 499 1074 l 431 1074 l 207 1279 l 339 1279 "},"Ş":{"ha":931,"x_min":0,"x_max":0,"o":"m 454 904 b 231 733 336 904 231 847 b 856 269 231 453 856 682 b 490 -14 856 78 685 -8 l 486 -42 b 593 -167 549 -53 593 -101 b 456 -297 593 -243 535 -297 b 318 -185 375 -297 325 -247 l 396 -128 b 456 -231 382 -207 421 -231 b 515 -167 490 -231 515 -204 b 442 -104 515 -131 489 -104 l 414 -104 l 429 -12 b 71 254 226 0 104 103 l 168 369 b 481 76 161 160 317 76 b 749 264 619 76 749 138 b 124 724 749 575 124 335 b 460 989 124 908 272 989 b 817 740 650 989 781 900 l 719 625 b 454 904 729 825 586 904 "},"Ŝ":{"ha":931,"x_min":0,"x_max":0,"o":"m 454 904 b 231 733 336 904 231 847 b 856 269 231 453 856 682 b 471 -14 856 71 674 -14 b 71 254 243 -14 107 93 l 168 369 b 481 76 161 160 317 76 b 749 264 619 76 749 138 b 124 724 749 575 124 335 b 460 989 124 908 272 989 b 817 740 650 989 781 900 l 719 625 b 454 904 729 825 586 904 m 464 1193 l 338 1074 l 207 1074 l 431 1279 l 499 1279 l 722 1074 l 590 1074 "},"Ș":{"ha":931,"x_min":0,"x_max":0,"o":"m 454 904 b 231 733 336 904 231 847 b 856 269 231 453 856 682 b 471 -14 856 71 674 -14 b 71 254 243 -14 107 93 l 168 369 b 481 76 161 160 317 76 b 749 264 619 76 749 138 b 124 724 749 575 124 335 b 460 989 124 908 272 989 b 817 740 650 989 781 900 l 719 625 b 454 904 729 825 586 904 m 393 -81 l 540 -81 l 540 -131 b 478 -353 540 -235 533 -283 l 368 -353 b 453 -226 422 -308 444 -271 l 393 -226 "},"Ṣ":{"ha":931,"x_min":0,"x_max":0,"o":"m 454 904 b 231 733 336 904 231 847 b 856 269 231 453 856 682 b 471 -14 856 71 674 -14 b 71 254 243 -14 107 93 l 168 369 b 481 76 161 160 317 76 b 749 264 619 76 749 138 b 124 724 749 575 124 335 b 460 989 124 908 272 989 b 817 740 650 989 781 900 l 719 625 b 454 904 729 825 586 904 m 392 -81 l 539 -81 l 539 -228 l 392 -228 "},"ẞ":{"ha":1092,"x_min":0,"x_max":0,"o":"m 989 888 b 753 713 874 871 753 828 b 1022 269 753 539 1022 533 b 696 -15 1022 101 892 -15 b 357 247 524 -15 388 90 l 454 363 b 700 69 447 186 546 69 b 918 264 831 69 918 150 b 656 688 918 468 656 488 b 811 882 656 779 711 856 l 482 882 b 215 603 317 882 215 776 l 215 0 l 111 0 l 111 603 b 482 972 111 833 251 972 l 989 972 l 989 888 "},"T":{"ha":924,"x_min":0,"x_max":0,"o":"m 896 882 l 504 882 l 504 0 l 400 0 l 400 882 l 28 882 l 28 972 l 896 972 "},"Ŧ":{"ha":924,"x_min":0,"x_max":0,"o":"m 896 882 l 504 882 l 504 521 l 700 521 l 700 472 l 504 472 l 504 0 l 400 0 l 400 472 l 210 472 l 210 521 l 400 521 l 400 882 l 28 882 l 28 972 l 896 972 "},"Ť":{"ha":924,"x_min":0,"x_max":0,"o":"m 896 882 l 504 882 l 504 0 l 400 0 l 400 882 l 28 882 l 28 972 l 896 972 m 456 1160 l 582 1279 l 713 1279 l 489 1074 l 421 1074 l 197 1279 l 329 1279 "},"Ţ":{"ha":924,"x_min":0,"x_max":0,"o":"m 896 882 l 504 882 l 504 0 l 482 0 l 476 -42 b 583 -167 539 -53 583 -101 b 446 -297 583 -243 525 -297 b 308 -185 365 -297 315 -247 l 386 -128 b 446 -231 372 -207 411 -231 b 506 -167 481 -231 506 -204 b 432 -104 506 -131 479 -104 l 404 -104 l 421 0 l 400 0 l 400 882 l 28 882 l 28 972 l 896 972 "},"Ț":{"ha":924,"x_min":0,"x_max":0,"o":"m 896 882 l 504 882 l 504 0 l 400 0 l 400 882 l 28 882 l 28 972 l 896 972 m 383 -81 l 531 -81 l 531 -131 b 468 -353 531 -235 524 -283 l 358 -353 b 443 -226 413 -308 435 -271 l 383 -226 "},"U":{"ha":965,"x_min":0,"x_max":0,"o":"m 483 -14 b 111 357 253 -14 111 126 l 111 972 l 215 972 l 215 357 b 483 78 215 183 317 78 b 750 357 649 78 750 183 l 750 972 l 854 972 l 854 357 b 483 -14 854 126 714 -14 "},"Ú":{"ha":965,"x_min":0,"x_max":0,"o":"m 483 -14 b 111 357 253 -14 111 126 l 111 972 l 215 972 l 215 357 b 483 78 215 183 317 78 b 750 357 649 78 750 183 l 750 972 l 854 972 l 854 357 b 483 -14 854 126 714 -14 m 554 1279 l 724 1279 l 517 1074 l 456 1074 "},"Ʉ":{"ha":1074,"x_min":0,"x_max":0,"o":"m 539 -14 b 167 357 308 -14 167 126 l 167 496 l 0 496 l 0 544 l 167 544 l 167 972 l 271 972 l 271 544 l 806 544 l 806 972 l 910 972 l 910 544 l 1074 544 l 1074 496 l 910 496 l 910 357 b 539 -14 910 126 769 -14 m 271 357 b 539 78 271 183 372 78 b 806 357 704 78 806 183 l 806 496 l 271 496 l 271 357 "},"Ŭ":{"ha":965,"x_min":0,"x_max":0,"o":"m 483 -14 b 111 357 253 -14 111 126 l 111 972 l 215 972 l 215 357 b 483 78 215 183 317 78 b 750 357 649 78 750 183 l 750 972 l 854 972 l 854 357 b 483 -14 854 126 714 -14 m 354 1279 b 483 1147 358 1203 413 1147 b 613 1279 553 1147 607 1203 l 707 1279 b 483 1065 707 1156 613 1065 b 258 1279 353 1065 258 1156 l 354 1279 "},"Û":{"ha":965,"x_min":0,"x_max":0,"o":"m 483 -14 b 111 357 253 -14 111 126 l 111 972 l 215 972 l 215 357 b 483 78 215 183 317 78 b 750 357 649 78 750 183 l 750 972 l 854 972 l 854 357 b 483 -14 854 126 714 -14 m 482 1193 l 356 1074 l 225 1074 l 449 1279 l 517 1279 l 740 1074 l 608 1074 "},"Ü":{"ha":965,"x_min":0,"x_max":0,"o":"m 483 -14 b 111 357 253 -14 111 126 l 111 972 l 215 972 l 215 357 b 483 78 215 183 317 78 b 750 357 649 78 750 183 l 750 972 l 854 972 l 854 357 b 483 -14 854 126 714 -14 m 264 1247 l 411 1247 l 411 1101 l 264 1101 m 556 1247 l 703 1247 l 703 1101 l 556 1101 "},"Ù":{"ha":965,"x_min":0,"x_max":0,"o":"m 483 -14 b 111 357 253 -14 111 126 l 111 972 l 215 972 l 215 357 b 483 78 215 183 317 78 b 750 357 649 78 750 183 l 750 972 l 854 972 l 854 357 b 483 -14 854 126 714 -14 m 450 1074 l 243 1279 l 413 1279 l 511 1074 "},"Ű":{"ha":965,"x_min":0,"x_max":0,"o":"m 483 -14 b 111 357 253 -14 111 126 l 111 972 l 215 972 l 215 357 b 483 78 215 183 317 78 b 750 357 649 78 750 183 l 750 972 l 854 972 l 854 357 b 483 -14 854 126 714 -14 m 413 1279 l 575 1279 l 400 1074 l 342 1074 m 665 1279 l 835 1279 l 628 1074 l 567 1074 "},"Ū":{"ha":965,"x_min":0,"x_max":0,"o":"m 483 -14 b 111 357 253 -14 111 126 l 111 972 l 215 972 l 215 357 b 483 78 215 183 317 78 b 750 357 649 78 750 183 l 750 972 l 854 972 l 854 357 b 483 -14 854 126 714 -14 m 728 1211 l 728 1129 l 238 1129 l 238 1211 "},"Ų":{"ha":965,"x_min":0,"x_max":0,"o":"m 582 -4 b 542 -11 569 -7 556 -10 b 525 -208 419 -46 428 -208 b 631 -131 558 -208 596 -196 l 631 -247 b 514 -290 596 -278 547 -290 b 436 -11 356 -290 321 -99 b 111 357 233 7 111 143 l 111 972 l 215 972 l 215 357 b 483 78 215 183 317 78 b 750 357 649 78 750 183 l 750 972 l 854 972 l 854 357 b 590 -3 854 165 757 36 l 592 -4 "},"Ů":{"ha":965,"x_min":0,"x_max":0,"o":"m 483 -14 b 111 357 253 -14 111 126 l 111 972 l 215 972 l 215 357 b 483 78 215 183 317 78 b 750 357 649 78 750 183 l 750 972 l 854 972 l 854 357 b 483 -14 854 126 714 -14 m 483 1067 b 332 1211 394 1067 332 1126 b 483 1354 332 1294 394 1354 b 635 1211 572 1354 635 1294 b 483 1067 635 1126 572 1067 m 483 1139 b 551 1211 522 1139 551 1169 b 483 1282 551 1251 522 1282 b 415 1211 444 1282 415 1251 b 483 1139 415 1169 444 1139 "},"Ũ":{"ha":965,"x_min":0,"x_max":0,"o":"m 483 -14 b 111 357 253 -14 111 126 l 111 972 l 215 972 l 215 357 b 483 78 215 183 317 78 b 750 357 649 78 750 183 l 750 972 l 854 972 l 854 357 b 483 -14 854 126 714 -14 m 368 1172 b 314 1068 326 1172 300 1139 l 226 1068 b 368 1253 211 1189 271 1253 b 597 1149 493 1253 525 1149 b 651 1253 639 1149 665 1182 l 739 1253 b 597 1068 754 1132 694 1068 b 368 1172 472 1068 440 1172 "},"V":{"ha":997,"x_min":0,"x_max":0,"o":"m 500 92 l 863 972 l 974 972 l 571 0 l 426 0 l 24 972 l 138 972 "},"W":{"ha":1317,"x_min":0,"x_max":0,"o":"m 463 94 l 611 497 l 435 972 l 533 972 l 671 601 l 807 972 l 903 972 l 717 474 l 857 94 l 1181 972 l 1286 972 l 925 0 l 796 0 l 658 371 l 521 0 l 392 0 l 31 972 l 139 972 "},"Ẃ":{"ha":1317,"x_min":0,"x_max":0,"o":"m 463 94 l 611 497 l 435 972 l 533 972 l 671 601 l 807 972 l 903 972 l 717 474 l 857 94 l 1181 972 l 1286 972 l 925 0 l 796 0 l 658 371 l 521 0 l 392 0 l 31 972 l 139 972 m 729 1279 l 899 1279 l 692 1074 l 631 1074 "},"Ŵ":{"ha":1317,"x_min":0,"x_max":0,"o":"m 463 94 l 611 497 l 435 972 l 533 972 l 671 601 l 807 972 l 903 972 l 717 474 l 857 94 l 1181 972 l 1286 972 l 925 0 l 796 0 l 658 371 l 521 0 l 392 0 l 31 972 l 139 972 m 657 1193 l 531 1074 l 400 1074 l 624 1279 l 692 1279 l 915 1074 l 783 1074 "},"Ẅ":{"ha":1317,"x_min":0,"x_max":0,"o":"m 463 94 l 611 497 l 435 972 l 533 972 l 671 601 l 807 972 l 903 972 l 717 474 l 857 94 l 1181 972 l 1286 972 l 925 0 l 796 0 l 658 371 l 521 0 l 392 0 l 31 972 l 139 972 m 439 1247 l 586 1247 l 586 1101 l 439 1101 m 731 1247 l 878 1247 l 878 1101 l 731 1101 "},"Ẁ":{"ha":1317,"x_min":0,"x_max":0,"o":"m 463 94 l 611 497 l 435 972 l 533 972 l 671 601 l 807 972 l 903 972 l 717 474 l 857 94 l 1181 972 l 1286 972 l 925 0 l 796 0 l 658 371 l 521 0 l 392 0 l 31 972 l 139 972 m 625 1074 l 418 1279 l 588 1279 l 686 1074 "},"X":{"ha":1061,"x_min":0,"x_max":0,"o":"m 531 565 l 883 972 l 1014 972 l 600 494 l 1033 0 l 903 0 l 531 424 l 158 0 l 28 0 l 460 494 l 47 972 l 178 972 "},"Y":{"ha":956,"x_min":0,"x_max":0,"o":"m 479 558 l 826 972 l 953 972 l 531 465 l 531 0 l 426 0 l 426 464 l 3 972 l 131 972 "},"Ý":{"ha":956,"x_min":0,"x_max":0,"o":"m 479 558 l 826 972 l 953 972 l 531 465 l 531 0 l 426 0 l 426 464 l 3 972 l 131 972 m 549 1279 l 718 1279 l 511 1074 l 450 1074 "},"Ŷ":{"ha":956,"x_min":0,"x_max":0,"o":"m 479 558 l 826 972 l 953 972 l 531 465 l 531 0 l 426 0 l 426 464 l 3 972 l 131 972 m 476 1193 l 350 1074 l 219 1074 l 443 1279 l 511 1279 l 735 1074 l 603 1074 "},"Ÿ":{"ha":956,"x_min":0,"x_max":0,"o":"m 479 558 l 826 972 l 953 972 l 531 465 l 531 0 l 426 0 l 426 464 l 3 972 l 131 972 m 258 1247 l 406 1247 l 406 1101 l 258 1101 m 550 1247 l 697 1247 l 697 1101 l 550 1101 "},"Ỳ":{"ha":956,"x_min":0,"x_max":0,"o":"m 479 558 l 826 972 l 953 972 l 531 465 l 531 0 l 426 0 l 426 464 l 3 972 l 131 972 m 444 1074 l 238 1279 l 407 1279 l 506 1074 "},"Ỹ":{"ha":956,"x_min":0,"x_max":0,"o":"m 479 558 l 826 972 l 953 972 l 531 465 l 531 0 l 426 0 l 426 464 l 3 972 l 131 972 m 363 1172 b 308 1068 321 1172 294 1139 l 221 1068 b 363 1253 206 1189 265 1253 b 592 1149 488 1253 519 1149 b 646 1253 633 1149 660 1182 l 733 1253 b 592 1068 749 1132 689 1068 b 363 1172 467 1068 435 1172 "},"Z":{"ha":856,"x_min":0,"x_max":0,"o":"m 183 90 l 800 90 l 800 0 l 56 0 l 56 76 l 672 882 l 56 882 l 56 972 l 800 972 l 800 896 "},"Ź":{"ha":856,"x_min":0,"x_max":0,"o":"m 183 90 l 800 90 l 800 0 l 56 0 l 56 76 l 672 882 l 56 882 l 56 972 l 800 972 l 800 896 m 499 1279 l 668 1279 l 461 1074 l 400 1074 "},"Ž":{"ha":856,"x_min":0,"x_max":0,"o":"m 183 90 l 800 90 l 800 0 l 56 0 l 56 76 l 672 882 l 56 882 l 56 972 l 800 972 l 800 896 m 428 1160 l 554 1279 l 685 1279 l 461 1074 l 393 1074 l 169 1279 l 301 1279 "},"Ż":{"ha":856,"x_min":0,"x_max":0,"o":"m 183 90 l 800 90 l 800 0 l 56 0 l 56 76 l 672 882 l 56 882 l 56 972 l 800 972 l 800 896 m 350 1249 l 506 1249 l 506 1093 l 350 1093 "},"a":{"ha":778,"x_min":0,"x_max":0,"o":"m 353 629 b 168 414 253 629 142 560 l 68 506 b 354 711 89 624 203 711 b 657 424 536 711 657 618 b 747 0 657 285 622 83 l 618 0 b 551 168 574 39 557 100 b 299 -14 514 47 431 -14 b 71 182 150 -14 71 74 b 351 414 71 331 194 413 l 556 415 b 353 629 556 561 476 629 m 171 192 b 313 68 171 121 226 68 b 551 303 492 68 551 236 l 553 332 l 351 329 b 171 192 243 328 171 288 "},"á":{"ha":778,"x_min":0,"x_max":0,"o":"m 353 629 b 168 414 253 629 142 560 l 68 506 b 354 711 89 624 203 711 b 657 424 536 711 657 618 b 747 0 657 285 622 83 l 618 0 b 551 168 574 39 557 100 b 299 -14 514 47 431 -14 b 71 182 150 -14 71 74 b 351 414 71 331 194 413 l 556 415 b 353 629 556 561 476 629 m 486 1029 l 642 1029 l 411 796 l 356 796 m 171 192 b 313 68 171 121 226 68 b 551 303 492 68 551 236 l 553 332 l 351 329 b 171 192 243 328 171 288 "},"ă":{"ha":778,"x_min":0,"x_max":0,"o":"m 353 629 b 168 414 253 629 142 560 l 68 506 b 354 711 89 624 203 711 b 657 424 536 711 657 618 b 747 0 657 285 622 83 l 618 0 b 551 168 574 39 557 100 b 299 -14 514 47 431 -14 b 71 182 150 -14 71 74 b 351 414 71 331 194 413 l 556 415 b 353 629 556 561 476 629 m 254 1024 b 389 867 258 933 308 867 b 524 1024 469 867 518 933 l 613 1024 b 389 789 613 889 524 789 b 164 1024 254 789 164 889 l 254 1024 m 171 192 b 313 68 171 121 226 68 b 551 303 492 68 551 236 l 553 332 l 351 329 b 171 192 243 328 171 288 "},"â":{"ha":778,"x_min":0,"x_max":0,"o":"m 353 629 b 168 414 253 629 142 560 l 68 506 b 354 711 89 624 203 711 b 657 424 536 711 657 618 b 747 0 657 285 622 83 l 618 0 b 551 168 574 39 557 100 b 299 -14 514 47 431 -14 b 71 182 150 -14 71 74 b 351 414 71 331 194 413 l 556 415 b 353 629 556 561 476 629 m 388 943 l 247 792 l 136 792 l 354 1029 l 422 1029 l 640 792 l 528 792 m 171 192 b 313 68 171 121 226 68 b 551 303 492 68 551 236 l 553 332 l 351 329 b 171 192 243 328 171 288 "},"ä":{"ha":778,"x_min":0,"x_max":0,"o":"m 353 629 b 168 414 253 629 142 560 l 68 506 b 354 711 89 624 203 711 b 657 424 536 711 657 618 b 747 0 657 285 622 83 l 618 0 b 551 168 574 39 557 100 b 299 -14 514 47 431 -14 b 71 182 150 -14 71 74 b 351 414 71 331 194 413 l 556 415 b 353 629 556 561 476 629 m 186 979 l 326 979 l 326 840 l 186 840 m 451 979 l 592 979 l 592 840 l 451 840 m 171 192 b 313 68 171 121 226 68 b 551 303 492 68 551 236 l 553 332 l 351 329 b 171 192 243 328 171 288 "},"à":{"ha":778,"x_min":0,"x_max":0,"o":"m 353 629 b 168 414 253 629 142 560 l 68 506 b 354 711 89 624 203 711 b 657 424 536 711 657 618 b 747 0 657 285 622 83 l 618 0 b 551 168 574 39 557 100 b 299 -14 514 47 431 -14 b 71 182 150 -14 71 74 b 351 414 71 331 194 413 l 556 415 b 353 629 556 561 476 629 m 367 796 l 136 1029 l 292 1029 l 422 796 m 171 192 b 313 68 171 121 226 68 b 551 303 492 68 551 236 l 553 332 l 351 329 b 171 192 243 328 171 288 "},"ā":{"ha":778,"x_min":0,"x_max":0,"o":"m 353 629 b 168 414 253 629 142 560 l 68 506 b 354 711 89 624 203 711 b 657 424 536 711 657 618 b 747 0 657 285 622 83 l 618 0 b 551 168 574 39 557 100 b 299 -14 514 47 431 -14 b 71 182 150 -14 71 74 b 351 414 71 331 194 413 l 556 415 b 353 629 556 561 476 629 m 633 960 l 633 878 l 143 878 l 143 960 m 171 192 b 313 68 171 121 226 68 b 551 303 492 68 551 236 l 553 332 l 351 329 b 171 192 243 328 171 288 "},"ą":{"ha":778,"x_min":0,"x_max":0,"o":"m 353 629 b 168 414 253 629 142 560 l 68 506 b 354 711 89 624 203 711 b 657 424 536 711 657 618 b 747 0 657 285 622 83 l 699 0 b 632 -204 525 0 524 -204 b 738 -126 665 -204 703 -192 l 738 -243 b 621 -286 703 -274 654 -286 b 597 21 442 -286 419 -39 b 551 168 568 60 556 111 b 299 -14 514 47 431 -14 b 71 182 150 -14 71 74 b 351 414 71 331 194 413 l 556 415 b 353 629 556 561 476 629 m 171 192 b 313 68 171 121 226 68 b 551 303 492 68 551 236 l 553 332 l 351 329 b 171 192 243 328 171 288 "},"å":{"ha":778,"x_min":0,"x_max":0,"o":"m 353 629 b 168 414 253 629 142 560 l 68 506 b 354 711 89 624 203 711 b 657 424 536 711 657 618 b 747 0 657 285 622 83 l 618 0 b 551 168 574 39 557 100 b 299 -14 514 47 431 -14 b 71 182 150 -14 71 74 b 351 414 71 331 194 413 l 556 415 b 353 629 556 561 476 629 m 389 785 b 244 922 304 785 244 842 b 389 1058 244 1001 304 1058 b 533 922 474 1058 533 1001 b 389 785 533 842 474 785 m 389 853 b 454 922 426 853 454 882 b 389 990 454 961 426 990 b 324 922 351 990 324 961 b 389 853 324 882 351 853 m 171 192 b 313 68 171 121 226 68 b 551 303 492 68 551 236 l 553 332 l 351 329 b 171 192 243 328 171 288 "},"ã":{"ha":778,"x_min":0,"x_max":0,"o":"m 353 629 b 168 414 253 629 142 560 l 68 506 b 354 711 89 624 203 711 b 657 424 536 711 657 618 b 747 0 657 285 622 83 l 618 0 b 551 168 574 39 557 100 b 299 -14 514 47 431 -14 b 71 182 150 -14 71 74 b 351 414 71 331 194 413 l 556 415 b 353 629 556 561 476 629 m 274 925 b 217 821 232 925 203 890 l 135 821 b 274 1000 121 939 179 1000 b 503 896 397 1000 429 896 b 560 1000 544 896 574 931 l 642 1000 b 503 821 656 882 597 821 b 274 925 379 821 347 925 m 171 192 b 313 68 171 121 226 68 b 551 303 492 68 551 236 l 553 332 l 351 329 b 171 192 243 328 171 288 "},"æ":{"ha":1322,"x_min":0,"x_max":0,"o":"m 553 332 l 351 329 b 171 192 243 328 171 288 b 313 68 171 121 226 68 b 551 303 492 68 551 236 l 551 303 m 556 415 b 353 629 556 561 476 629 b 168 414 253 629 142 560 l 68 506 b 354 711 89 624 203 711 b 624 560 482 711 578 660 b 915 704 685 649 786 704 b 1263 389 1126 704 1263 551 l 1263 335 l 661 335 l 661 333 b 917 76 661 190 768 76 b 1176 254 1050 76 1132 135 l 1232 131 b 917 -11 1171 42 1060 -11 b 594 183 764 -11 649 65 b 313 -14 556 65 460 -14 b 71 182 154 -14 71 74 b 351 414 71 331 194 413 l 556 415 m 1156 417 b 915 617 1142 549 1035 617 b 664 417 772 617 682 536 "},"b":{"ha":881,"x_min":0,"x_max":0,"o":"m 204 347 b 461 72 204 188 313 72 b 717 347 610 72 717 188 b 461 621 717 507 610 621 b 204 347 313 621 204 507 m 104 1111 l 204 1111 l 204 553 b 485 704 264 646 364 704 b 821 347 679 704 821 554 b 485 -11 821 139 679 -11 b 204 140 364 -11 264 47 l 204 0 l 104 0 "},"c":{"ha":790,"x_min":0,"x_max":0,"o":"m 164 347 b 424 76 164 199 260 76 b 669 254 539 76 628 135 l 725 131 b 419 -11 668 44 556 -11 b 60 347 196 -11 60 139 b 419 706 60 556 196 706 b 725 564 556 706 668 650 l 669 440 b 424 618 628 560 539 618 b 164 347 260 618 164 496 "},"ć":{"ha":790,"x_min":0,"x_max":0,"o":"m 164 347 b 424 76 164 199 260 76 b 669 254 539 76 628 135 l 725 131 b 419 -11 668 44 556 -11 b 60 347 196 -11 60 139 b 419 706 60 556 196 706 b 725 564 556 706 668 650 l 669 440 b 424 618 628 560 539 618 b 164 347 260 618 164 496 m 486 1029 l 642 1029 l 411 796 l 356 796 "},"č":{"ha":790,"x_min":0,"x_max":0,"o":"m 164 347 b 424 76 164 199 260 76 b 669 254 539 76 628 135 l 725 131 b 419 -11 668 44 556 -11 b 60 347 196 -11 60 139 b 419 706 60 556 196 706 b 725 564 556 706 668 650 l 669 440 b 424 618 628 560 539 618 b 164 347 260 618 164 496 m 388 878 l 528 1029 l 639 1029 l 421 792 l 353 792 l 135 1029 l 247 1029 "},"ç":{"ha":790,"x_min":0,"x_max":0,"o":"m 164 347 b 424 76 164 199 260 76 b 669 254 539 76 628 135 l 725 131 b 419 -11 668 44 556 -11 l 414 -11 l 410 -42 b 517 -167 472 -53 517 -101 b 379 -297 517 -243 458 -297 b 242 -185 299 -297 249 -247 l 319 -128 b 379 -231 306 -207 344 -231 b 439 -167 414 -231 439 -204 b 365 -104 439 -131 413 -104 l 338 -104 l 353 -7 b 60 347 169 21 60 160 b 419 706 60 556 196 706 b 725 564 556 706 668 650 l 669 440 b 424 618 628 560 539 618 b 164 347 260 618 164 496 "},"ĉ":{"ha":790,"x_min":0,"x_max":0,"o":"m 164 347 b 424 76 164 199 260 76 b 669 254 539 76 628 135 l 725 131 b 419 -11 668 44 556 -11 b 60 347 196 -11 60 139 b 419 706 60 556 196 706 b 725 564 556 706 668 650 l 669 440 b 424 618 628 560 539 618 b 164 347 260 618 164 496 m 388 943 l 247 792 l 136 792 l 354 1029 l 422 1029 l 640 792 l 528 792 "},"ċ":{"ha":790,"x_min":0,"x_max":0,"o":"m 164 347 b 424 76 164 199 260 76 b 669 254 539 76 628 135 l 725 131 b 419 -11 668 44 556 -11 b 60 347 196 -11 60 139 b 419 706 60 556 196 706 b 725 564 556 706 668 650 l 669 440 b 424 618 628 560 539 618 b 164 347 260 618 164 496 m 315 983 l 463 983 l 463 836 l 315 836 "},"d":{"ha":881,"x_min":0,"x_max":0,"o":"m 676 0 l 676 140 b 396 -11 617 47 517 -11 b 60 347 201 -11 60 139 b 396 704 60 554 201 704 b 676 553 517 704 617 646 l 676 1111 l 776 1111 l 776 0 m 164 347 b 419 72 164 188 271 72 b 676 347 568 72 676 188 b 419 621 676 507 568 621 b 164 347 271 621 164 507 "},"ð":{"ha":863,"x_min":0,"x_max":0,"o":"m 406 -14 b 60 354 196 -14 60 144 b 392 704 60 563 196 704 b 685 483 542 704 644 618 l 686 524 b 517 940 686 701 618 847 l 342 832 l 310 889 l 463 983 b 231 1057 393 1031 313 1057 l 231 1113 b 529 1026 342 1113 443 1082 l 689 1125 l 721 1068 l 586 983 b 790 496 711 876 790 706 b 406 -14 790 211 653 -14 m 647 354 b 406 617 647 511 550 617 b 164 354 261 617 164 511 b 406 76 164 188 261 76 b 647 354 550 76 647 188 "},"ď":{"ha":1032,"x_min":0,"x_max":0,"o":"m 676 0 l 676 140 b 396 -11 617 47 517 -11 b 60 347 201 -11 60 139 b 396 704 60 554 201 704 b 676 553 517 704 617 646 l 676 1111 l 776 1111 l 776 0 m 885 1111 l 1032 1111 l 1032 979 b 969 757 1032 875 1025 826 l 860 757 b 950 965 943 826 950 879 l 885 965 m 164 347 b 419 72 164 188 271 72 b 676 347 568 72 676 188 b 419 621 676 507 568 621 b 164 347 271 621 164 507 "},"ḑ":{"ha":881,"x_min":0,"x_max":0,"o":"m 676 0 l 676 140 b 396 -11 617 47 517 -11 b 60 347 201 -11 60 139 b 396 704 60 554 201 704 b 676 553 517 704 617 646 l 676 1111 l 776 1111 l 776 0 m 344 -81 l 492 -81 l 492 -131 b 429 -353 492 -235 485 -283 l 319 -353 b 404 -226 374 -308 396 -271 l 344 -226 m 164 347 b 419 72 164 188 271 72 b 676 347 568 72 676 188 b 419 621 676 507 568 621 b 164 347 271 621 164 507 "},"đ":{"ha":893,"x_min":0,"x_max":0,"o":"m 676 0 l 676 140 b 396 -11 617 47 517 -11 b 60 347 201 -11 60 139 b 396 704 60 554 201 704 b 676 553 517 704 617 646 l 676 865 l 429 865 l 429 914 l 676 914 l 676 1111 l 776 1111 l 776 914 l 919 914 l 919 865 l 776 865 l 776 0 m 164 347 b 419 72 164 188 271 72 b 676 347 568 72 676 188 b 419 621 676 507 568 621 b 164 347 271 621 164 507 "},"e":{"ha":825,"x_min":0,"x_max":0,"o":"m 60 347 b 418 704 60 551 201 704 b 765 375 629 704 765 551 l 765 335 l 164 335 l 164 333 b 419 76 164 190 271 76 b 679 254 553 76 635 135 l 735 131 b 419 -11 674 42 563 -11 b 60 347 201 -11 60 139 m 658 417 b 418 619 644 549 538 619 b 167 417 275 619 185 536 "},"é":{"ha":825,"x_min":0,"x_max":0,"o":"m 517 1029 l 672 1029 l 442 796 l 386 796 m 60 347 b 418 704 60 551 201 704 b 765 375 629 704 765 551 l 765 335 l 164 335 l 164 333 b 419 76 164 190 271 76 b 679 254 553 76 635 135 l 735 131 b 419 -11 674 42 563 -11 b 60 347 201 -11 60 139 m 658 417 b 418 619 644 549 538 619 b 167 417 275 619 185 536 "},"ĕ":{"ha":825,"x_min":0,"x_max":0,"o":"m 285 1024 b 419 867 289 933 339 867 b 554 1024 500 867 549 933 l 643 1024 b 419 789 643 889 554 789 b 194 1024 285 789 194 889 l 285 1024 m 60 347 b 418 704 60 551 201 704 b 765 375 629 704 765 551 l 765 335 l 164 335 l 164 333 b 419 76 164 190 271 76 b 679 254 553 76 635 135 l 735 131 b 419 -11 674 42 563 -11 b 60 347 201 -11 60 139 m 658 417 b 418 619 644 549 538 619 b 167 417 275 619 185 536 "},"ě":{"ha":825,"x_min":0,"x_max":0,"o":"m 418 878 l 558 1029 l 669 1029 l 451 792 l 383 792 l 165 1029 l 278 1029 m 60 347 b 418 704 60 551 201 704 b 765 375 629 704 765 551 l 765 335 l 164 335 l 164 333 b 419 76 164 190 271 76 b 679 254 553 76 635 135 l 735 131 b 419 -11 674 42 563 -11 b 60 347 201 -11 60 139 m 658 417 b 418 619 644 549 538 619 b 167 417 275 619 185 536 "},"ê":{"ha":825,"x_min":0,"x_max":0,"o":"m 418 943 l 278 792 l 167 792 l 385 1029 l 453 1029 l 671 792 l 558 792 m 60 347 b 418 704 60 551 201 704 b 765 375 629 704 765 551 l 765 335 l 164 335 l 164 333 b 419 76 164 190 271 76 b 679 254 553 76 635 135 l 735 131 b 419 -11 674 42 563 -11 b 60 347 201 -11 60 139 m 658 417 b 418 619 644 549 538 619 b 167 417 275 619 185 536 "},"ë":{"ha":825,"x_min":0,"x_max":0,"o":"m 217 979 l 357 979 l 357 840 l 217 840 m 482 979 l 622 979 l 622 840 l 482 840 m 60 347 b 418 704 60 551 201 704 b 765 375 629 704 765 551 l 765 335 l 164 335 l 164 333 b 419 76 164 190 271 76 b 679 254 553 76 635 135 l 735 131 b 419 -11 674 42 563 -11 b 60 347 201 -11 60 139 m 658 417 b 418 619 644 549 538 619 b 167 417 275 619 185 536 "},"ė":{"ha":825,"x_min":0,"x_max":0,"o":"m 346 983 l 493 983 l 493 836 l 346 836 m 60 347 b 418 704 60 551 201 704 b 765 375 629 704 765 551 l 765 335 l 164 335 l 164 333 b 419 76 164 190 271 76 b 679 254 553 76 635 135 l 735 131 b 419 -11 674 42 563 -11 b 60 347 201 -11 60 139 m 658 417 b 418 619 644 549 538 619 b 167 417 275 619 185 536 "},"ẹ":{"ha":825,"x_min":0,"x_max":0,"o":"m 346 -81 l 493 -81 l 493 -228 l 346 -228 m 60 347 b 418 704 60 551 201 704 b 765 375 629 704 765 551 l 765 335 l 164 335 l 164 333 b 419 76 164 190 271 76 b 679 254 553 76 635 135 l 735 131 b 419 -11 674 42 563 -11 b 60 347 201 -11 60 139 m 658 417 b 418 619 644 549 538 619 b 167 417 275 619 185 536 "},"è":{"ha":825,"x_min":0,"x_max":0,"o":"m 397 796 l 167 1029 l 322 1029 l 453 796 m 60 347 b 418 704 60 551 201 704 b 765 375 629 704 765 551 l 765 335 l 164 335 l 164 333 b 419 76 164 190 271 76 b 679 254 553 76 635 135 l 735 131 b 419 -11 674 42 563 -11 b 60 347 201 -11 60 139 m 658 417 b 418 619 644 549 538 619 b 167 417 275 619 185 536 "},"ē":{"ha":825,"x_min":0,"x_max":0,"o":"m 664 960 l 664 878 l 174 878 l 174 960 m 60 347 b 418 704 60 551 201 704 b 765 375 629 704 765 551 l 765 335 l 164 335 l 164 333 b 419 76 164 190 271 76 b 679 254 553 76 635 135 l 735 131 b 419 -11 674 42 563 -11 b 60 347 201 -11 60 139 m 658 417 b 418 619 644 549 538 619 b 167 417 275 619 185 536 "},"ę":{"ha":825,"x_min":0,"x_max":0,"o":"m 528 0 b 472 -8 510 -4 492 -7 b 463 -204 357 -47 368 -204 b 568 -126 496 -204 533 -192 l 568 -243 b 451 -286 533 -274 485 -286 b 372 -8 294 -286 258 -96 b 60 347 181 11 60 154 b 418 704 60 551 201 704 b 765 375 629 704 765 551 l 765 335 l 164 335 l 164 333 b 419 76 164 190 271 76 b 679 254 553 76 635 135 l 735 131 b 529 0 690 65 619 21 l 529 0 m 658 417 b 418 619 644 549 538 619 b 167 417 275 619 185 536 "},"ẽ":{"ha":825,"x_min":0,"x_max":0,"o":"m 304 925 b 247 821 263 925 233 890 l 165 821 b 304 1000 151 939 210 1000 b 533 896 428 1000 460 896 b 590 1000 575 896 604 931 l 672 1000 b 533 821 686 882 628 821 b 304 925 410 821 378 925 m 60 347 b 418 704 60 551 201 704 b 765 375 629 704 765 551 l 765 335 l 164 335 l 164 333 b 419 76 164 190 271 76 b 679 254 553 76 635 135 l 735 131 b 419 -11 674 42 563 -11 b 60 347 201 -11 60 139 m 658 417 b 418 619 644 549 538 619 b 167 417 275 619 185 536 "},"ə":{"ha":825,"x_min":0,"x_max":0,"o":"m 60 360 l 661 360 l 661 361 b 406 618 661 504 554 618 b 146 440 272 618 190 560 l 90 564 b 406 706 151 653 263 706 b 765 347 624 706 765 556 b 407 -10 765 143 624 -10 b 60 319 196 -10 60 143 m 167 278 b 407 75 181 146 288 75 b 658 278 550 75 640 158 l 167 278 "},"f":{"ha":629,"x_min":0,"x_max":0,"o":"m 188 863 b 440 1121 188 1032 289 1121 b 671 939 563 1121 654 1043 l 578 847 b 442 1039 592 976 513 1039 b 288 849 347 1039 288 978 l 288 694 l 601 694 l 601 613 l 288 613 l 288 0 l 188 0 l 188 613 l 42 613 l 42 694 l 188 694 l 188 863 "},"g":{"ha":854,"x_min":0,"x_max":0,"o":"m 247 467 b 433 307 247 375 319 307 b 619 467 547 307 619 375 b 433 624 619 557 547 624 b 247 467 325 624 247 557 m 133 29 b 72 142 97 51 72 86 b 238 285 72 239 156 286 b 151 467 183 328 151 392 b 433 704 151 604 263 704 b 568 681 485 704 529 696 b 726 907 556 811 629 892 l 818 814 b 789 815 808 815 799 815 b 626 650 679 815 626 742 l 624 650 b 715 467 683 607 715 543 b 432 228 715 328 610 228 b 286 239 372 228 340 239 b 169 157 219 239 169 211 b 326 92 169 75 272 83 l 508 118 b 819 -46 647 139 819 121 b 431 -290 819 -212 629 -290 b 44 -56 201 -290 56 -190 m 140 25 b 431 -207 115 -135 261 -207 b 724 -54 578 -207 724 -157 b 504 25 724 44 607 40 l 336 0 b 140 25 281 -8 199 -7 "},"ğ":{"ha":854,"x_min":0,"x_max":0,"o":"m 247 467 b 433 307 247 375 319 307 b 619 467 547 307 619 375 b 433 624 619 557 547 624 b 247 467 325 624 247 557 m 289 1024 b 424 867 293 933 343 867 b 558 1024 504 867 553 933 l 647 1024 b 424 789 647 889 558 789 b 199 1024 289 789 199 889 l 289 1024 m 133 29 b 72 142 97 51 72 86 b 238 285 72 239 156 286 b 151 467 183 328 151 392 b 433 704 151 604 263 704 b 594 668 497 704 551 692 b 754 865 596 782 665 851 l 846 772 b 817 774 836 774 826 774 b 654 624 713 774 660 708 b 715 467 694 582 715 528 b 432 228 715 328 610 228 b 286 239 372 228 340 239 b 169 157 219 239 169 211 b 326 92 169 75 272 83 l 508 118 b 819 -46 647 139 819 121 b 431 -290 819 -212 629 -290 b 44 -56 201 -290 56 -190 m 140 25 b 431 -207 115 -135 261 -207 b 724 -54 578 -207 724 -157 b 504 25 724 44 607 40 l 336 0 b 140 25 281 -8 199 -7 "},"ǧ":{"ha":854,"x_min":0,"x_max":0,"o":"m 247 467 b 433 307 247 375 319 307 b 619 467 547 307 619 375 b 433 624 619 557 547 624 b 247 467 325 624 247 557 m 422 878 l 563 1029 l 674 1029 l 456 792 l 388 792 l 169 1029 l 282 1029 m 133 29 b 72 142 97 51 72 86 b 238 285 72 239 156 286 b 151 467 183 328 151 392 b 433 704 151 604 263 704 b 594 668 497 704 551 692 b 754 865 596 782 665 851 l 846 772 b 817 774 836 774 826 774 b 654 624 713 774 660 708 b 715 467 694 582 715 528 b 432 228 715 328 610 228 b 286 239 372 228 340 239 b 169 157 219 239 169 211 b 326 92 169 75 272 83 l 508 118 b 819 -46 647 139 819 121 b 431 -290 819 -212 629 -290 b 44 -56 201 -290 56 -190 m 140 25 b 431 -207 115 -135 261 -207 b 724 -54 578 -207 724 -157 b 504 25 724 44 607 40 l 336 0 b 140 25 281 -8 199 -7 "},"ĝ":{"ha":854,"x_min":0,"x_max":0,"o":"m 247 467 b 433 307 247 375 319 307 b 619 467 547 307 619 375 b 433 624 619 557 547 624 b 247 467 325 624 247 557 m 422 943 l 282 792 l 171 792 l 389 1029 l 457 1029 l 653 817 b 754 865 681 842 715 860 l 846 772 b 817 774 836 774 826 774 b 654 624 713 774 660 708 b 715 467 694 582 715 528 b 432 228 715 328 610 228 b 286 239 372 228 340 239 b 169 157 219 239 169 211 b 326 92 169 75 272 83 l 508 118 b 819 -46 647 139 819 121 b 431 -290 819 -212 629 -290 b 44 -56 201 -290 56 -190 l 133 29 b 72 142 97 51 72 86 b 238 285 72 239 156 286 b 151 467 183 328 151 392 b 433 704 151 604 263 704 b 594 668 497 704 551 692 b 632 792 594 718 608 760 l 563 792 m 140 25 b 431 -207 115 -135 261 -207 b 724 -54 578 -207 724 -157 b 504 25 724 44 607 40 l 336 0 b 140 25 281 -8 199 -7 "},"ģ":{"ha":854,"x_min":0,"x_max":0,"o":"m 247 467 b 433 307 247 375 319 307 b 619 467 547 307 619 375 b 433 624 619 557 547 624 b 247 467 325 624 247 557 m 485 839 l 338 839 l 338 889 b 400 1111 338 993 344 1042 l 510 1111 b 425 985 456 1067 433 1029 l 485 985 m 133 29 b 72 142 97 51 72 86 b 238 285 72 239 156 286 b 151 467 183 328 151 392 b 433 704 151 604 263 704 b 568 681 485 704 529 696 b 726 907 556 811 629 892 l 818 814 b 789 815 808 815 799 815 b 626 650 679 815 626 742 l 624 650 b 715 467 683 607 715 543 b 432 228 715 328 610 228 b 286 239 372 228 340 239 b 169 157 219 239 169 211 b 326 92 169 75 272 83 l 508 118 b 819 -46 647 139 819 121 b 431 -290 819 -212 629 -290 b 44 -56 201 -290 56 -190 m 140 25 b 431 -207 115 -135 261 -207 b 724 -54 578 -207 724 -157 b 504 25 724 44 607 40 l 336 0 b 140 25 281 -8 199 -7 "},"ġ":{"ha":854,"x_min":0,"x_max":0,"o":"m 247 467 b 433 307 247 375 319 307 b 619 467 547 307 619 375 b 433 624 619 557 547 624 b 247 467 325 624 247 557 m 350 983 l 497 983 l 497 836 l 350 836 m 133 29 b 72 142 97 51 72 86 b 238 285 72 239 156 286 b 151 467 183 328 151 392 b 433 704 151 604 263 704 b 568 681 485 704 529 696 b 726 907 556 811 629 892 l 818 814 b 789 815 808 815 799 815 b 626 650 679 815 626 742 l 624 650 b 715 467 683 607 715 543 b 432 228 715 328 610 228 b 286 239 372 228 340 239 b 169 157 219 239 169 211 b 326 92 169 75 272 83 l 508 118 b 819 -46 647 139 819 121 b 431 -290 819 -212 629 -290 b 44 -56 201 -290 56 -190 m 140 25 b 431 -207 115 -135 261 -207 b 724 -54 578 -207 724 -157 b 504 25 724 44 607 40 l 336 0 b 140 25 281 -8 199 -7 "},"ḡ":{"ha":854,"x_min":0,"x_max":0,"o":"m 247 467 b 433 307 247 375 319 307 b 619 467 547 307 619 375 b 433 624 619 557 547 624 b 247 467 325 624 247 557 m 668 960 l 668 878 l 178 878 l 178 960 m 133 29 b 72 142 97 51 72 86 b 238 285 72 239 156 286 b 151 467 183 328 151 392 b 433 704 151 604 263 704 b 594 668 497 704 551 692 b 754 865 596 782 665 851 l 846 772 b 817 774 836 774 826 774 b 654 624 713 774 660 708 b 715 467 694 582 715 528 b 432 228 715 328 610 228 b 286 239 372 228 340 239 b 169 157 219 239 169 211 b 326 92 169 75 272 83 l 508 118 b 819 -46 647 139 819 121 b 431 -290 819 -212 629 -290 b 44 -56 201 -290 56 -190 m 140 25 b 431 -207 115 -135 261 -207 b 724 -54 578 -207 724 -157 b 504 25 724 44 607 40 l 336 0 b 140 25 281 -8 199 -7 "},"h":{"ha":776,"x_min":0,"x_max":0,"o":"m 408 633 b 204 406 292 633 214 553 l 204 0 l 104 0 l 104 1111 l 204 1111 l 204 569 b 440 711 246 657 324 711 b 693 443 601 711 693 610 l 693 0 l 592 0 l 592 425 b 408 633 592 563 515 633 "},"ħ":{"ha":776,"x_min":0,"x_max":0,"o":"m 408 633 b 204 406 292 633 214 553 l 204 0 l 104 0 l 104 865 l -32 865 l -32 914 l 104 914 l 104 1111 l 204 1111 l 204 914 l 458 914 l 458 865 l 204 865 l 204 569 b 440 711 246 657 324 711 b 693 443 601 711 693 610 l 693 0 l 592 0 l 592 425 b 408 633 592 563 515 633 "},"ĥ":{"ha":776,"x_min":0,"x_max":0,"o":"m 408 633 b 204 406 292 633 214 553 l 204 0 l 104 0 l 104 1111 l 204 1111 l 204 569 b 440 711 246 657 324 711 b 693 443 601 711 693 610 l 693 0 l 592 0 l 592 425 b 408 633 592 563 515 633 m 388 1332 l 261 1213 l 131 1213 l 354 1418 l 422 1418 l 646 1213 l 514 1213 "},"ḥ":{"ha":776,"x_min":0,"x_max":0,"o":"m 408 633 b 204 406 292 633 214 553 l 204 0 l 104 0 l 104 1111 l 204 1111 l 204 569 b 440 711 246 657 324 711 b 693 443 601 711 693 610 l 693 0 l 592 0 l 592 425 b 408 633 592 563 515 633 m 315 -81 l 463 -81 l 463 -228 l 315 -228 "},"i":{"ha":306,"x_min":0,"x_max":0,"o":"m 103 694 l 203 694 l 203 0 l 103 0 m 79 983 l 226 983 l 226 836 l 79 836 "},"ı":{"ha":306,"x_min":0,"x_max":0,"o":"m 103 694 l 203 694 l 203 0 l 103 0 "},"í":{"ha":306,"x_min":0,"x_max":0,"o":"m 103 694 l 203 694 l 203 0 l 103 0 m 250 1029 l 406 1029 l 175 796 l 119 796 "},"ĭ":{"ha":306,"x_min":0,"x_max":0,"o":"m 103 694 l 203 694 l 203 0 l 103 0 m 46 1024 b 153 867 49 928 90 867 b 260 1024 214 867 256 928 l 349 1024 b 153 789 349 879 274 789 b -44 1024 32 789 -44 879 l 46 1024 "},"î":{"ha":306,"x_min":0,"x_max":0,"o":"m 103 694 l 203 694 l 203 0 l 103 0 m 151 938 l 60 792 l -44 792 l 118 1029 l 186 1029 l 349 792 l 243 792 "},"ï":{"ha":306,"x_min":0,"x_max":0,"o":"m 103 694 l 203 694 l 203 0 l 103 0 m -36 979 l 104 979 l 104 840 l -36 840 m 201 979 l 342 979 l 342 840 l 201 840 "},"ì":{"ha":306,"x_min":0,"x_max":0,"o":"m 103 694 l 203 694 l 203 0 l 103 0 m 131 796 l -100 1029 l 56 1029 l 186 796 "},"ĳ":{"ha":617,"x_min":0,"x_max":0,"o":"m 103 694 l 203 694 l 203 0 l 103 0 m 79 983 l 226 983 l 226 836 l 79 836 m 413 694 l 513 694 l 513 -53 b 444 -278 513 -143 501 -229 l 315 -278 b 413 -18 399 -224 413 -122 m 390 983 l 538 983 l 538 836 l 390 836 "},"ī":{"ha":306,"x_min":0,"x_max":0,"o":"m 103 694 l 203 694 l 203 0 l 103 0 m 328 960 l 328 878 l -24 878 l -24 960 "},"į":{"ha":306,"x_min":0,"x_max":0,"o":"m 79 983 l 226 983 l 226 836 l 79 836 m 203 0 b 136 -204 29 0 28 -204 b 242 -126 169 -204 207 -192 l 242 -243 b 125 -286 207 -274 158 -286 b 103 22 -54 -286 -76 -39 l 103 694 l 203 694 l 203 0 "},"ɨ":{"ha":379,"x_min":0,"x_max":0,"o":"m 140 379 l 0 379 l 0 428 l 140 428 l 140 694 l 240 694 l 240 428 l 379 428 l 379 379 l 240 379 l 240 0 l 140 0 m 117 983 l 264 983 l 264 836 l 117 836 "},"ĩ":{"ha":306,"x_min":0,"x_max":0,"o":"m 103 694 l 203 694 l 203 0 l 103 0 m 57 925 b 8 821 21 925 -6 890 l -74 821 b 58 1000 -92 929 -33 1000 b 247 896 169 1000 183 896 b 296 1000 283 896 310 931 l 378 1000 b 246 821 396 892 338 821 b 57 925 135 821 121 925 "},"j":{"ha":308,"x_min":0,"x_max":0,"o":"m 104 694 l 204 694 l 204 -53 b 136 -278 204 -143 193 -229 l 7 -278 b 104 -18 90 -224 104 -122 m 82 983 l 229 983 l 229 836 l 82 836 "},"ȷ":{"ha":308,"x_min":0,"x_max":0,"o":"m 104 694 l 204 694 l 204 -53 b 136 -278 204 -143 193 -229 l 7 -278 b 104 -18 90 -224 104 -122 "},"ĵ":{"ha":308,"x_min":0,"x_max":0,"o":"m 104 694 l 204 694 l 204 -53 b 136 -278 204 -143 193 -229 l 7 -278 b 104 -18 90 -224 104 -122 m 154 938 l 63 792 l -42 792 l 121 1029 l 189 1029 l 351 792 l 246 792 "},"k":{"ha":732,"x_min":0,"x_max":0,"o":"m 104 1111 l 204 1111 l 204 361 l 575 694 l 704 694 l 419 442 l 732 0 l 614 0 l 344 375 l 204 250 l 204 0 l 104 0 "},"ķ":{"ha":732,"x_min":0,"x_max":0,"o":"m 104 1111 l 204 1111 l 204 361 l 575 694 l 704 694 l 419 442 l 732 0 l 614 0 l 344 375 l 204 250 l 204 0 l 104 0 m 308 -81 l 456 -81 l 456 -131 b 393 -353 456 -235 449 -283 l 283 -353 b 368 -226 338 -308 360 -271 l 308 -226 "},"ĸ":{"ha":732,"x_min":0,"x_max":0,"o":"m 104 694 l 204 694 l 204 361 l 575 694 l 704 694 l 419 442 l 732 0 l 614 0 l 344 375 l 204 250 l 204 0 l 104 0 "},"l":{"ha":308,"x_min":0,"x_max":0,"o":"m 104 1111 l 204 1111 l 204 0 l 104 0 "},"ĺ":{"ha":308,"x_min":0,"x_max":0,"o":"m 104 1111 l 204 1111 l 204 0 l 104 0 m 225 1418 l 394 1418 l 188 1213 l 126 1213 "},"ľ":{"ha":460,"x_min":0,"x_max":0,"o":"m 104 1111 l 204 1111 l 204 0 l 104 0 m 313 1111 l 460 1111 l 460 979 b 397 757 460 875 453 826 l 288 757 b 378 965 371 826 378 879 l 313 965 "},"ļ":{"ha":308,"x_min":0,"x_max":0,"o":"m 104 1111 l 204 1111 l 204 0 l 104 0 m 82 -81 l 229 -81 l 229 -131 b 167 -353 229 -235 222 -283 l 57 -353 b 142 -226 111 -308 133 -271 l 82 -226 "},"ŀ":{"ha":494,"x_min":0,"x_max":0,"o":"m 104 1111 l 204 1111 l 204 0 l 104 0 m 319 576 l 467 576 l 467 431 l 319 431 "},"ḷ":{"ha":308,"x_min":0,"x_max":0,"o":"m 104 1111 l 204 1111 l 204 0 l 104 0 m 81 -81 l 228 -81 l 228 -228 l 81 -228 "},"ł":{"ha":435,"x_min":0,"x_max":0,"o":"m 168 499 l 28 426 l 28 514 l 168 586 l 168 1111 l 268 1111 l 268 638 l 407 708 l 407 621 l 268 550 l 268 0 l 168 0 "},"m":{"ha":1208,"x_min":0,"x_max":0,"o":"m 393 633 b 203 421 285 633 213 558 l 203 0 l 103 0 l 103 694 l 203 694 l 203 579 b 426 711 243 661 315 711 b 642 582 532 711 607 664 b 878 711 686 664 765 711 b 1125 458 1039 711 1125 615 l 1125 0 l 1024 0 l 1024 440 b 854 633 1024 568 953 633 b 664 421 746 633 674 558 l 664 0 l 563 0 l 563 440 b 393 633 563 568 492 633 "},"n":{"ha":775,"x_min":0,"x_max":0,"o":"m 407 633 b 203 406 290 633 213 553 l 203 0 l 103 0 l 103 694 l 203 694 l 203 569 b 439 711 244 657 322 711 b 692 443 600 711 692 610 l 692 0 l 590 0 l 590 425 b 407 633 590 563 514 633 "},"ń":{"ha":775,"x_min":0,"x_max":0,"o":"m 407 633 b 203 406 290 633 213 553 l 203 0 l 103 0 l 103 694 l 203 694 l 203 569 b 439 711 244 657 322 711 b 692 443 600 711 692 610 l 692 0 l 590 0 l 590 425 b 407 633 590 563 514 633 m 490 1029 l 646 1029 l 415 796 l 360 796 "},"ŉ":{"ha":775,"x_min":0,"x_max":0,"o":"m 407 633 b 203 406 290 633 213 553 l 203 0 l 103 0 l 103 694 l 203 694 l 203 569 b 439 711 244 657 322 711 b 692 443 600 711 692 610 l 692 0 l 590 0 l 590 425 b 407 633 590 563 514 633 m 115 1111 l 263 1111 l 263 979 b 200 757 263 875 256 826 l 90 757 b 181 965 174 826 181 879 l 115 965 "},"ň":{"ha":775,"x_min":0,"x_max":0,"o":"m 407 633 b 203 406 290 633 213 553 l 203 0 l 103 0 l 103 694 l 203 694 l 203 569 b 439 711 244 657 322 711 b 692 443 600 711 692 610 l 692 0 l 590 0 l 590 425 b 407 633 590 563 514 633 m 392 878 l 532 1029 l 643 1029 l 425 792 l 357 792 l 139 1029 l 251 1029 "},"ņ":{"ha":775,"x_min":0,"x_max":0,"o":"m 407 633 b 203 406 290 633 213 553 l 203 0 l 103 0 l 103 694 l 203 694 l 203 569 b 439 711 244 657 322 711 b 692 443 600 711 692 610 l 692 0 l 590 0 l 590 425 b 407 633 590 563 514 633 m 321 -81 l 468 -81 l 468 -131 b 406 -353 468 -235 461 -283 l 296 -353 b 381 -226 350 -308 372 -271 l 321 -226 "},"ɲ":{"ha":854,"x_min":0,"x_max":0,"o":"m 486 633 b 282 406 369 633 292 553 l 282 -107 b 124 -286 282 -218 221 -286 b 7 -243 90 -286 42 -274 l 7 -119 b 113 -197 42 -185 79 -197 b 182 -93 157 -197 182 -165 l 182 694 l 282 694 l 282 569 b 518 711 324 657 401 711 b 771 443 679 711 771 610 l 771 0 l 669 0 l 669 425 b 486 633 669 563 593 633 "},"ñ":{"ha":775,"x_min":0,"x_max":0,"o":"m 407 633 b 203 406 290 633 213 553 l 203 0 l 103 0 l 103 694 l 203 694 l 203 569 b 439 711 244 657 322 711 b 692 443 600 711 692 610 l 692 0 l 590 0 l 590 425 b 407 633 590 563 514 633 m 278 925 b 221 821 236 925 207 890 l 139 821 b 278 1000 125 939 183 1000 b 507 896 401 1000 433 896 b 564 1000 549 896 578 931 l 646 1000 b 507 821 660 882 601 821 b 278 925 383 821 351 925 "},"ŋ":{"ha":790,"x_min":0,"x_max":0,"o":"m 422 633 b 218 406 306 633 228 553 l 218 0 l 118 0 l 118 694 l 218 694 l 218 569 b 454 711 260 657 338 711 b 707 443 615 711 707 610 l 707 -107 b 547 -286 707 -218 644 -286 b 431 -243 514 -286 465 -274 l 431 -119 b 536 -197 465 -185 503 -197 b 606 -93 581 -197 606 -165 l 606 425 b 422 633 606 563 529 633 "},"o":{"ha":839,"x_min":0,"x_max":0,"o":"m 419 -11 b 60 347 201 -11 60 139 b 419 704 60 554 201 704 b 779 347 638 704 779 554 b 419 -11 779 139 638 -11 m 419 76 b 675 347 568 76 675 190 b 419 617 675 504 568 617 b 164 347 271 617 164 504 b 419 76 164 190 271 76 "},"ó":{"ha":839,"x_min":0,"x_max":0,"o":"m 419 -11 b 60 347 201 -11 60 139 b 419 704 60 554 201 704 b 779 347 638 704 779 554 b 419 -11 779 139 638 -11 m 419 76 b 675 347 568 76 675 190 b 419 617 675 504 568 617 b 164 347 271 617 164 504 b 419 76 164 190 271 76 m 517 1029 l 672 1029 l 442 796 l 386 796 "},"ŏ":{"ha":839,"x_min":0,"x_max":0,"o":"m 419 -11 b 60 347 201 -11 60 139 b 419 704 60 554 201 704 b 779 347 638 704 779 554 b 419 -11 779 139 638 -11 m 419 76 b 675 347 568 76 675 190 b 419 617 675 504 568 617 b 164 347 271 617 164 504 b 419 76 164 190 271 76 m 285 1024 b 419 867 289 933 339 867 b 554 1024 500 867 549 933 l 643 1024 b 419 789 643 889 554 789 b 194 1024 285 789 194 889 l 285 1024 "},"ô":{"ha":839,"x_min":0,"x_max":0,"o":"m 419 -11 b 60 347 201 -11 60 139 b 419 704 60 554 201 704 b 779 347 638 704 779 554 b 419 -11 779 139 638 -11 m 419 76 b 675 347 568 76 675 190 b 419 617 675 504 568 617 b 164 347 271 617 164 504 b 419 76 164 190 271 76 m 418 943 l 278 792 l 167 792 l 385 1029 l 453 1029 l 671 792 l 558 792 "},"ö":{"ha":839,"x_min":0,"x_max":0,"o":"m 419 -11 b 60 347 201 -11 60 139 b 419 704 60 554 201 704 b 779 347 638 704 779 554 b 419 -11 779 139 638 -11 m 419 76 b 675 347 568 76 675 190 b 419 617 675 504 568 617 b 164 347 271 617 164 504 b 419 76 164 190 271 76 m 217 979 l 357 979 l 357 840 l 217 840 m 482 979 l 622 979 l 622 840 l 482 840 "},"ọ":{"ha":839,"x_min":0,"x_max":0,"o":"m 419 -11 b 60 347 201 -11 60 139 b 419 704 60 554 201 704 b 779 347 638 704 779 554 b 419 -11 779 139 638 -11 m 419 76 b 675 347 568 76 675 190 b 419 617 675 504 568 617 b 164 347 271 617 164 504 b 419 76 164 190 271 76 m 346 -81 l 493 -81 l 493 -228 l 346 -228 "},"ò":{"ha":839,"x_min":0,"x_max":0,"o":"m 419 -11 b 60 347 201 -11 60 139 b 419 704 60 554 201 704 b 779 347 638 704 779 554 b 419 -11 779 139 638 -11 m 419 76 b 675 347 568 76 675 190 b 419 617 675 504 568 617 b 164 347 271 617 164 504 b 419 76 164 190 271 76 m 397 796 l 167 1029 l 322 1029 l 453 796 "},"ő":{"ha":839,"x_min":0,"x_max":0,"o":"m 419 -11 b 60 347 201 -11 60 139 b 419 704 60 554 201 704 b 779 347 638 704 779 554 b 419 -11 779 139 638 -11 m 419 76 b 675 347 568 76 675 190 b 419 617 675 504 568 617 b 164 347 271 617 164 504 b 419 76 164 190 271 76 m 383 1029 l 531 1029 l 342 796 l 286 796 m 625 1029 l 781 1029 l 550 796 l 494 796 "},"ō":{"ha":839,"x_min":0,"x_max":0,"o":"m 419 -11 b 60 347 201 -11 60 139 b 419 704 60 554 201 704 b 779 347 638 704 779 554 b 419 -11 779 139 638 -11 m 419 76 b 675 347 568 76 675 190 b 419 617 675 504 568 617 b 164 347 271 617 164 504 b 419 76 164 190 271 76 m 664 960 l 664 878 l 174 878 l 174 960 "},"ø":{"ha":839,"x_min":0,"x_max":0,"o":"m 419 -11 b 204 51 335 -11 263 11 l 150 -14 l 81 -14 l 164 85 b 60 347 97 149 60 240 b 419 704 60 554 201 704 b 633 643 503 704 575 682 l 688 708 l 757 708 l 674 610 b 779 347 742 546 779 454 b 419 -11 779 139 638 -11 m 419 76 b 675 347 568 76 675 190 b 610 533 675 422 651 486 l 267 125 b 419 76 308 94 361 76 m 164 347 b 228 161 164 274 188 210 l 571 569 b 419 617 529 600 478 617 b 164 347 271 617 164 504 "},"ǿ":{"ha":839,"x_min":0,"x_max":0,"o":"m 419 -11 b 204 51 335 -11 263 11 l 150 -14 l 81 -14 l 164 85 b 60 347 97 149 60 240 b 419 704 60 554 201 704 b 633 643 503 704 575 682 l 688 708 l 757 708 l 674 610 b 779 347 742 546 779 454 b 419 -11 779 139 638 -11 m 419 76 b 675 347 568 76 675 190 b 610 533 675 422 651 486 l 267 125 b 419 76 308 94 361 76 m 517 1029 l 672 1029 l 442 796 l 386 796 m 164 347 b 228 161 164 274 188 210 l 571 569 b 419 617 529 600 478 617 b 164 347 271 617 164 504 "},"õ":{"ha":839,"x_min":0,"x_max":0,"o":"m 419 -11 b 60 347 201 -11 60 139 b 419 704 60 554 201 704 b 779 347 638 704 779 554 b 419 -11 779 139 638 -11 m 419 76 b 675 347 568 76 675 190 b 419 617 675 504 568 617 b 164 347 271 617 164 504 b 419 76 164 190 271 76 m 304 925 b 247 821 263 925 233 890 l 165 821 b 304 1000 151 939 210 1000 b 533 896 428 1000 460 896 b 590 1000 575 896 604 931 l 672 1000 b 533 821 686 882 628 821 b 304 925 410 821 378 925 "},"œ":{"ha":1440,"x_min":0,"x_max":0,"o":"m 419 -11 b 60 347 201 -11 60 139 b 419 704 60 554 201 704 b 728 544 560 704 668 643 b 1033 704 788 642 894 704 b 1381 389 1244 704 1381 551 l 1381 335 l 779 335 l 779 333 b 1035 76 779 190 886 76 b 1294 254 1168 76 1250 135 l 1350 131 b 1035 -11 1289 42 1178 -11 b 728 149 896 -11 788 50 b 419 -11 667 50 558 -11 m 419 76 b 675 347 568 76 675 190 b 419 617 675 504 568 617 b 164 347 271 617 164 504 b 419 76 164 190 271 76 m 1274 417 b 1033 617 1260 549 1153 617 b 782 417 890 617 800 536 "},"p":{"ha":879,"x_min":0,"x_max":0,"o":"m 203 347 b 460 72 203 188 311 72 b 715 347 608 72 715 188 b 460 621 715 507 608 621 b 203 347 311 621 203 507 m 103 694 l 203 694 l 203 553 b 483 704 263 646 363 704 b 819 347 678 704 819 554 b 483 -11 819 139 678 -11 b 203 140 363 -11 263 47 l 203 -278 l 103 -278 "},"þ":{"ha":881,"x_min":0,"x_max":0,"o":"m 204 347 b 461 72 204 188 313 72 b 717 347 610 72 717 188 b 461 621 717 507 610 621 b 204 347 313 621 204 507 m 104 1111 l 204 1111 l 204 553 b 485 704 264 646 364 704 b 821 347 679 704 821 554 b 485 -11 821 139 679 -11 b 204 140 364 -11 264 47 l 204 -278 l 104 -278 "},"q":{"ha":879,"x_min":0,"x_max":0,"o":"m 676 -278 l 676 140 b 396 -11 617 47 517 -11 b 60 347 201 -11 60 139 b 396 704 60 554 201 704 b 676 553 517 704 617 646 l 676 694 l 776 694 l 776 -278 m 164 347 b 419 72 164 188 271 72 b 676 347 568 72 676 188 b 419 621 676 507 568 621 b 164 347 271 621 164 507 "},"r":{"ha":632,"x_min":0,"x_max":0,"o":"m 103 694 l 203 694 l 203 565 b 413 704 247 668 322 704 b 614 528 526 704 599 629 l 521 436 b 369 622 538 564 454 622 b 203 299 272 622 203 565 l 203 0 l 103 0 "},"ŕ":{"ha":632,"x_min":0,"x_max":0,"o":"m 103 694 l 203 694 l 203 565 b 413 704 247 668 322 704 b 614 528 526 704 599 629 l 521 436 b 369 622 538 564 454 622 b 203 299 272 622 203 565 l 203 0 l 103 0 m 414 1029 l 569 1029 l 339 796 l 283 796 "},"ř":{"ha":632,"x_min":0,"x_max":0,"o":"m 103 694 l 203 694 l 203 565 b 413 704 247 668 322 704 b 614 528 526 704 599 629 l 521 436 b 369 622 538 564 454 622 b 203 299 272 622 203 565 l 203 0 l 103 0 m 315 878 l 456 1029 l 567 1029 l 349 792 l 281 792 l 63 1029 l 175 1029 "},"ŗ":{"ha":632,"x_min":0,"x_max":0,"o":"m 103 694 l 203 694 l 203 565 b 413 704 247 668 322 704 b 614 528 526 704 599 629 l 521 436 b 369 622 538 564 454 622 b 203 299 272 622 203 565 l 203 0 l 103 0 m 244 -81 l 392 -81 l 392 -131 b 329 -353 392 -235 385 -283 l 219 -353 b 304 -226 274 -308 296 -271 l 244 -226 "},"s":{"ha":694,"x_min":0,"x_max":0,"o":"m 339 629 b 196 521 261 629 196 589 b 632 200 196 329 632 485 b 353 -14 632 49 493 -14 b 57 185 189 -14 82 64 l 157 276 b 354 68 136 135 243 68 b 531 192 447 68 531 110 b 94 513 531 385 94 228 b 339 711 94 647 211 711 b 606 526 485 711 582 642 l 506 435 b 339 629 528 567 433 629 "},"ś":{"ha":694,"x_min":0,"x_max":0,"o":"m 339 629 b 196 521 261 629 196 589 b 632 200 196 329 632 485 b 353 -14 632 49 493 -14 b 57 185 189 -14 82 64 l 157 276 b 354 68 136 135 243 68 b 531 192 447 68 531 110 b 94 513 531 385 94 228 b 339 711 94 647 211 711 b 606 526 485 711 582 642 l 506 435 b 339 629 528 567 433 629 m 444 1029 l 600 1029 l 369 796 l 314 796 "},"ꞌ":{"ha":368,"x_min":0,"x_max":0,"o":"m 118 972 l 250 972 l 213 599 l 157 599 "},"š":{"ha":694,"x_min":0,"x_max":0,"o":"m 339 629 b 196 521 261 629 196 589 b 632 200 196 329 632 485 b 353 -14 632 49 493 -14 b 57 185 189 -14 82 64 l 157 276 b 354 68 136 135 243 68 b 531 192 447 68 531 110 b 94 513 531 385 94 228 b 339 711 94 647 211 711 b 606 526 485 711 582 642 l 506 435 b 339 629 528 567 433 629 m 346 878 l 486 1029 l 597 1029 l 379 792 l 311 792 l 93 1029 l 206 1029 "},"ş":{"ha":694,"x_min":0,"x_max":0,"o":"m 339 629 b 196 521 261 629 196 589 b 632 200 196 329 632 485 b 372 -14 632 56 506 -8 l 368 -42 b 475 -167 431 -53 475 -101 b 338 -297 475 -243 417 -297 b 200 -185 257 -297 207 -247 l 278 -128 b 338 -231 264 -207 303 -231 b 397 -167 372 -231 397 -204 b 324 -104 397 -131 371 -104 l 296 -104 l 311 -12 b 57 185 171 0 79 75 l 157 276 b 354 68 136 135 243 68 b 531 192 447 68 531 110 b 94 513 531 385 94 228 b 339 711 94 647 211 711 b 606 526 485 711 582 642 l 506 435 b 339 629 528 567 433 629 "},"ŝ":{"ha":694,"x_min":0,"x_max":0,"o":"m 339 629 b 196 521 261 629 196 589 b 632 200 196 329 632 485 b 353 -14 632 49 493 -14 b 57 185 189 -14 82 64 l 157 276 b 354 68 136 135 243 68 b 531 192 447 68 531 110 b 94 513 531 385 94 228 b 339 711 94 647 211 711 b 606 526 485 711 582 642 l 506 435 b 339 629 528 567 433 629 m 346 943 l 206 792 l 94 792 l 313 1029 l 381 1029 l 599 792 l 486 792 "},"ș":{"ha":694,"x_min":0,"x_max":0,"o":"m 339 629 b 196 521 261 629 196 589 b 632 200 196 329 632 485 b 353 -14 632 49 493 -14 b 57 185 189 -14 82 64 l 157 276 b 354 68 136 135 243 68 b 531 192 447 68 531 110 b 94 513 531 385 94 228 b 339 711 94 647 211 711 b 606 526 485 711 582 642 l 506 435 b 339 629 528 567 433 629 m 275 -81 l 422 -81 l 422 -131 b 360 -353 422 -235 415 -283 l 250 -353 b 335 -226 304 -308 326 -271 l 275 -226 "},"ṣ":{"ha":694,"x_min":0,"x_max":0,"o":"m 339 629 b 196 521 261 629 196 589 b 632 200 196 329 632 485 b 353 -14 632 49 493 -14 b 57 185 189 -14 82 64 l 157 276 b 354 68 136 135 243 68 b 531 192 447 68 531 110 b 94 513 531 385 94 228 b 339 711 94 647 211 711 b 606 526 485 711 582 642 l 506 435 b 339 629 528 567 433 629 m 274 -81 l 421 -81 l 421 -228 l 274 -228 "},"ß":{"ha":821,"x_min":0,"x_max":0,"o":"m 647 901 b 501 579 647 732 501 707 b 788 203 501 422 788 435 b 556 -17 788 71 690 -17 b 329 164 425 -17 349 56 l 429 256 b 556 67 413 142 463 67 b 686 194 633 67 686 118 b 401 565 686 375 401 350 b 550 894 401 738 550 758 b 382 1039 550 981 485 1039 b 204 821 278 1039 204 960 l 204 0 l 104 0 l 104 835 b 381 1121 104 1014 218 1121 b 647 901 532 1121 647 1044 "},"t":{"ha":586,"x_min":0,"x_max":0,"o":"m 544 38 b 381 -17 490 -3 429 -17 b 200 163 274 -17 200 51 l 200 613 l 54 613 l 54 694 l 200 694 l 200 843 l 300 942 l 300 694 l 544 694 l 544 613 l 300 613 l 300 176 b 394 72 300 104 332 72 b 544 178 435 72 490 88 l 544 38 "},"ŧ":{"ha":586,"x_min":0,"x_max":0,"o":"m 544 38 b 381 -17 490 -3 429 -17 b 200 163 274 -17 200 51 l 200 379 l 56 379 l 56 428 l 200 428 l 200 613 l 54 613 l 54 694 l 200 694 l 200 843 l 300 942 l 300 694 l 544 694 l 544 613 l 300 613 l 300 428 l 546 428 l 546 379 l 300 379 l 300 176 b 394 72 300 104 332 72 b 544 178 435 72 490 88 l 544 38 "},"ť":{"ha":586,"x_min":0,"x_max":0,"o":"m 544 38 b 381 -17 490 -3 429 -17 b 200 163 274 -17 200 51 l 200 613 l 54 613 l 54 694 l 200 694 l 200 843 l 300 942 l 300 694 l 544 694 l 544 613 l 300 613 l 300 176 b 394 72 300 104 332 72 b 544 178 435 72 490 88 l 544 38 m 444 1111 l 592 1111 l 592 979 b 529 757 592 875 585 826 l 419 757 b 510 965 503 826 510 879 l 444 965 "},"ţ":{"ha":586,"x_min":0,"x_max":0,"o":"m 544 38 b 403 -15 499 3 447 -12 l 399 -42 b 506 -167 461 -53 506 -101 b 368 -297 506 -243 447 -297 b 231 -185 288 -297 238 -247 l 308 -128 b 368 -231 294 -207 333 -231 b 428 -167 403 -231 428 -204 b 354 -104 428 -131 401 -104 l 326 -104 l 340 -14 b 200 163 256 1 200 65 l 200 613 l 54 613 l 54 694 l 200 694 l 200 843 l 300 942 l 300 694 l 544 694 l 544 613 l 300 613 l 300 176 b 394 72 300 104 332 72 b 544 178 435 72 490 88 l 544 38 "},"ț":{"ha":586,"x_min":0,"x_max":0,"o":"m 544 38 b 381 -17 490 -3 429 -17 b 200 163 274 -17 200 51 l 200 613 l 54 613 l 54 694 l 200 694 l 200 843 l 300 942 l 300 694 l 544 694 l 544 613 l 300 613 l 300 176 b 394 72 300 104 332 72 b 544 178 435 72 490 88 l 544 38 m 306 -81 l 453 -81 l 453 -131 b 390 -353 453 -235 446 -283 l 281 -353 b 365 -226 335 -308 357 -271 l 306 -226 "},"u":{"ha":775,"x_min":0,"x_max":0,"o":"m 368 61 b 572 289 485 61 563 142 l 572 694 l 672 694 l 672 0 l 572 0 l 572 125 b 336 -17 531 38 453 -17 b 83 251 175 -17 83 85 l 83 694 l 185 694 l 185 269 b 368 61 185 132 261 61 "},"ú":{"ha":775,"x_min":0,"x_max":0,"o":"m 368 61 b 572 289 485 61 563 142 l 572 694 l 672 694 l 672 0 l 572 0 l 572 125 b 336 -17 531 38 453 -17 b 83 251 175 -17 83 85 l 83 694 l 185 694 l 185 269 b 368 61 185 132 261 61 m 488 1029 l 643 1029 l 413 796 l 357 796 "},"ʉ":{"ha":775,"x_min":0,"x_max":0,"o":"m 368 61 b 572 289 485 61 563 142 l 572 694 l 672 694 l 672 0 l 572 0 l 572 125 b 336 -17 531 38 453 -17 b 83 251 175 -17 83 85 l 83 694 l 185 694 l 185 269 b 368 61 185 132 261 61 "},"ŭ":{"ha":775,"x_min":0,"x_max":0,"o":"m 368 61 b 572 289 485 61 563 142 l 572 694 l 672 694 l 672 0 l 572 0 l 572 125 b 336 -17 531 38 453 -17 b 83 251 175 -17 83 85 l 83 694 l 185 694 l 185 269 b 368 61 185 132 261 61 m 256 1024 b 390 867 260 933 310 867 b 525 1024 471 867 519 933 l 614 1024 b 390 789 614 889 525 789 b 165 1024 256 789 165 889 l 256 1024 "},"û":{"ha":775,"x_min":0,"x_max":0,"o":"m 368 61 b 572 289 485 61 563 142 l 572 694 l 672 694 l 672 0 l 572 0 l 572 125 b 336 -17 531 38 453 -17 b 83 251 175 -17 83 85 l 83 694 l 185 694 l 185 269 b 368 61 185 132 261 61 m 389 943 l 249 792 l 138 792 l 356 1029 l 424 1029 l 642 792 l 529 792 "},"ü":{"ha":775,"x_min":0,"x_max":0,"o":"m 368 61 b 572 289 485 61 563 142 l 572 694 l 672 694 l 672 0 l 572 0 l 572 125 b 336 -17 531 38 453 -17 b 83 251 175 -17 83 85 l 83 694 l 185 694 l 185 269 b 368 61 185 132 261 61 m 188 979 l 328 979 l 328 840 l 188 840 m 453 979 l 593 979 l 593 840 l 453 840 "},"ù":{"ha":775,"x_min":0,"x_max":0,"o":"m 368 61 b 572 289 485 61 563 142 l 572 694 l 672 694 l 672 0 l 572 0 l 572 125 b 336 -17 531 38 453 -17 b 83 251 175 -17 83 85 l 83 694 l 185 694 l 185 269 b 368 61 185 132 261 61 m 368 796 l 138 1029 l 293 1029 l 424 796 "},"ű":{"ha":775,"x_min":0,"x_max":0,"o":"m 368 61 b 572 289 485 61 563 142 l 572 694 l 672 694 l 672 0 l 572 0 l 572 125 b 336 -17 531 38 453 -17 b 83 251 175 -17 83 85 l 83 694 l 185 694 l 185 269 b 368 61 185 132 261 61 m 354 1029 l 501 1029 l 313 796 l 257 796 m 596 1029 l 751 1029 l 521 796 l 465 796 "},"ū":{"ha":775,"x_min":0,"x_max":0,"o":"m 368 61 b 572 289 485 61 563 142 l 572 694 l 672 694 l 672 0 l 572 0 l 572 125 b 336 -17 531 38 453 -17 b 83 251 175 -17 83 85 l 83 694 l 185 694 l 185 269 b 368 61 185 132 261 61 m 635 960 l 635 878 l 144 878 l 144 960 "},"ų":{"ha":775,"x_min":0,"x_max":0,"o":"m 368 61 b 572 289 485 61 563 142 l 572 694 l 672 694 l 672 0 b 606 -204 499 0 497 -204 b 711 -126 639 -204 676 -192 l 711 -243 b 594 -286 676 -274 628 -286 b 572 22 415 -286 393 -39 l 572 125 b 336 -17 531 38 453 -17 b 83 251 175 -17 83 85 l 83 694 l 185 694 l 185 269 b 368 61 185 132 261 61 "},"ů":{"ha":775,"x_min":0,"x_max":0,"o":"m 368 61 b 572 289 485 61 563 142 l 572 694 l 672 694 l 672 0 l 572 0 l 572 125 b 336 -17 531 38 453 -17 b 83 251 175 -17 83 85 l 83 694 l 185 694 l 185 269 b 368 61 185 132 261 61 m 390 785 b 246 922 306 785 246 842 b 390 1058 246 1001 306 1058 b 535 922 475 1058 535 1001 b 390 785 535 842 475 785 m 390 853 b 456 922 428 853 456 882 b 390 990 456 961 428 990 b 325 922 353 990 325 961 b 390 853 325 882 353 853 "},"ũ":{"ha":775,"x_min":0,"x_max":0,"o":"m 368 61 b 572 289 485 61 563 142 l 572 694 l 672 694 l 672 0 l 572 0 l 572 125 b 336 -17 531 38 453 -17 b 83 251 175 -17 83 85 l 83 694 l 185 694 l 185 269 b 368 61 185 132 261 61 m 275 925 b 218 821 233 925 204 890 l 136 821 b 275 1000 122 939 181 1000 b 504 896 399 1000 431 896 b 561 1000 546 896 575 931 l 643 1000 b 504 821 657 882 599 821 b 275 925 381 821 349 925 "},"v":{"ha":746,"x_min":0,"x_max":0,"o":"m 374 78 l 626 694 l 732 694 l 444 0 l 300 0 l 14 694 l 121 694 "},"w":{"ha":968,"x_min":0,"x_max":0,"o":"m 274 100 l 425 694 l 544 694 l 696 100 l 840 694 l 940 694 l 768 0 l 629 0 l 483 568 l 338 0 l 199 0 l 28 694 l 129 694 "},"ẃ":{"ha":968,"x_min":0,"x_max":0,"o":"m 274 100 l 425 694 l 544 694 l 696 100 l 840 694 l 940 694 l 768 0 l 629 0 l 483 568 l 338 0 l 199 0 l 28 694 l 129 694 m 582 1029 l 738 1029 l 507 796 l 451 796 "},"ŵ":{"ha":968,"x_min":0,"x_max":0,"o":"m 274 100 l 425 694 l 544 694 l 696 100 l 840 694 l 940 694 l 768 0 l 629 0 l 483 568 l 338 0 l 199 0 l 28 694 l 129 694 m 483 943 l 343 792 l 232 792 l 450 1029 l 518 1029 l 736 792 l 624 792 "},"ẅ":{"ha":968,"x_min":0,"x_max":0,"o":"m 274 100 l 425 694 l 544 694 l 696 100 l 840 694 l 940 694 l 768 0 l 629 0 l 483 568 l 338 0 l 199 0 l 28 694 l 129 694 m 282 979 l 422 979 l 422 840 l 282 840 m 547 979 l 688 979 l 688 840 l 547 840 "},"ẁ":{"ha":968,"x_min":0,"x_max":0,"o":"m 274 100 l 425 694 l 544 694 l 696 100 l 840 694 l 940 694 l 768 0 l 629 0 l 483 568 l 338 0 l 199 0 l 28 694 l 129 694 m 463 796 l 232 1029 l 388 1029 l 518 796 "},"x":{"ha":774,"x_min":0,"x_max":0,"o":"m 388 421 l 611 694 l 732 694 l 451 353 l 746 0 l 625 0 l 388 285 l 150 0 l 28 0 l 321 353 l 42 694 l 164 694 "},"y":{"ha":746,"x_min":0,"x_max":0,"o":"m 374 78 l 626 694 l 732 694 l 394 -119 b 179 -294 353 -221 293 -294 b 56 -254 143 -294 92 -285 l 56 -114 b 185 -206 100 -192 151 -206 b 317 -60 242 -206 271 -172 l 321 -50 l 14 694 l 121 694 "},"ý":{"ha":746,"x_min":0,"x_max":0,"o":"m 374 78 l 626 694 l 732 694 l 394 -119 b 179 -294 353 -221 293 -294 b 56 -254 143 -294 92 -285 l 56 -114 b 185 -206 100 -192 151 -206 b 317 -60 242 -206 271 -172 l 321 -50 l 14 694 l 121 694 m 468 1029 l 624 1029 l 393 796 l 338 796 "},"ŷ":{"ha":746,"x_min":0,"x_max":0,"o":"m 374 78 l 626 694 l 732 694 l 394 -119 b 179 -294 353 -221 293 -294 b 56 -254 143 -294 92 -285 l 56 -114 b 185 -206 100 -192 151 -206 b 317 -60 242 -206 271 -172 l 321 -50 l 14 694 l 121 694 m 369 943 l 229 792 l 118 792 l 336 1029 l 404 1029 l 622 792 l 510 792 "},"ÿ":{"ha":746,"x_min":0,"x_max":0,"o":"m 374 78 l 626 694 l 732 694 l 394 -119 b 179 -294 353 -221 293 -294 b 56 -254 143 -294 92 -285 l 56 -114 b 185 -206 100 -192 151 -206 b 317 -60 242 -206 271 -172 l 321 -50 l 14 694 l 121 694 m 168 979 l 308 979 l 308 840 l 168 840 m 433 979 l 574 979 l 574 840 l 433 840 "},"ỳ":{"ha":746,"x_min":0,"x_max":0,"o":"m 374 78 l 626 694 l 732 694 l 394 -119 b 179 -294 353 -221 293 -294 b 56 -254 143 -294 92 -285 l 56 -114 b 185 -206 100 -192 151 -206 b 317 -60 242 -206 271 -172 l 321 -50 l 14 694 l 121 694 m 349 796 l 118 1029 l 274 1029 l 404 796 "},"ỹ":{"ha":746,"x_min":0,"x_max":0,"o":"m 374 78 l 626 694 l 732 694 l 394 -119 b 179 -294 353 -221 293 -294 b 56 -254 143 -294 92 -285 l 56 -114 b 185 -206 100 -192 151 -206 b 317 -60 242 -206 271 -172 l 321 -50 l 14 694 l 121 694 m 256 925 b 199 821 214 925 185 890 l 117 821 b 256 1000 103 939 161 1000 b 485 896 379 1000 411 896 b 542 1000 526 896 556 931 l 624 1000 b 485 821 638 882 579 821 b 256 925 361 821 329 925 "},"z":{"ha":651,"x_min":0,"x_max":0,"o":"m 188 82 l 592 82 l 592 0 l 60 0 l 60 72 l 464 613 l 60 613 l 60 694 l 592 694 l 592 622 "},"ź":{"ha":651,"x_min":0,"x_max":0,"o":"m 188 82 l 592 82 l 592 0 l 60 0 l 60 72 l 464 613 l 60 613 l 60 694 l 592 694 l 592 622 m 424 1029 l 579 1029 l 349 796 l 293 796 "},"ž":{"ha":651,"x_min":0,"x_max":0,"o":"m 188 82 l 592 82 l 592 0 l 60 0 l 60 72 l 464 613 l 60 613 l 60 694 l 592 694 l 592 622 m 325 878 l 465 1029 l 576 1029 l 358 792 l 290 792 l 72 1029 l 185 1029 "},"ż":{"ha":651,"x_min":0,"x_max":0,"o":"m 188 82 l 592 82 l 592 0 l 60 0 l 60 72 l 464 613 l 60 613 l 60 694 l 592 694 l 592 622 m 253 983 l 400 983 l 400 836 l 253 836 "},"ﬁ":{"ha":853,"x_min":0,"x_max":0,"o":"m 188 849 b 461 1121 188 1028 297 1121 b 713 939 594 1121 694 1043 l 619 847 b 463 1039 638 976 546 1039 b 288 835 356 1039 288 974 l 288 694 l 750 694 l 750 0 l 650 0 l 650 613 l 288 613 l 288 0 l 188 0 l 188 613 l 42 613 l 42 694 l 188 694 l 188 849 "},"ﬂ":{"ha":853,"x_min":0,"x_max":0,"o":"m 650 821 b 472 1039 650 958 585 1039 b 288 821 356 1039 288 958 l 288 694 l 650 694 l 650 821 m 42 694 l 188 694 l 188 821 b 471 1121 188 1010 292 1121 b 750 821 647 1115 750 1004 l 750 0 l 650 0 l 650 613 l 288 613 l 288 0 l 188 0 l 188 613 l 42 613 "},"ª":{"ha":636,"x_min":0,"x_max":0,"o":"m 288 913 b 157 735 210 913 124 857 l 61 821 b 289 985 76 914 168 985 b 529 758 433 985 529 910 b 608 429 529 646 499 485 l 489 429 b 436 533 458 454 443 492 b 246 418 403 457 340 418 b 64 572 128 418 64 488 b 286 756 64 689 163 754 l 436 757 b 288 913 435 864 379 913 m 154 581 b 257 489 154 528 194 489 b 432 649 376 489 424 590 l 433 685 l 286 682 b 154 581 206 681 154 653 "},"º":{"ha":675,"x_min":0,"x_max":0,"o":"m 338 421 b 54 700 165 421 54 539 b 338 979 54 861 165 979 b 621 700 510 979 621 861 b 338 421 621 539 510 421 m 338 496 b 528 700 447 496 528 582 b 338 904 528 819 447 904 b 147 700 228 904 147 819 b 338 496 147 582 228 496 "},"Ω":{"ha":1150,"x_min":0,"x_max":0,"o":"m 90 90 l 329 90 b 86 499 176 165 86 310 b 575 990 86 778 278 990 b 1064 499 872 990 1064 778 b 819 90 1064 310 974 165 l 1060 90 l 1060 0 l 660 0 l 660 90 b 960 490 839 132 960 288 b 575 900 960 729 799 900 b 190 490 351 900 190 729 b 490 90 190 288 311 132 l 490 0 l 90 0 "},"π":{"ha":860,"x_min":0,"x_max":0,"o":"m 818 613 l 633 613 l 633 185 b 703 81 633 113 658 81 b 808 158 736 81 774 93 l 808 35 b 692 -8 774 4 725 -8 b 533 171 594 -8 533 60 l 533 613 l 325 613 l 325 0 l 225 0 l 225 613 l 54 613 l 54 694 l 818 694 "},"⓿":{"ha":1206,"x_min":0,"x_max":0,"o":"m 603 -33 b 72 490 304 -33 72 199 b 603 1014 72 782 304 1014 b 1133 490 901 1014 1133 782 b 603 -33 1133 199 901 -33 m 603 210 b 819 488 739 210 819 314 b 603 765 819 661 739 765 b 386 488 467 765 386 661 b 603 210 386 314 467 210 m 603 257 b 442 488 503 257 442 346 b 603 718 442 631 503 718 b 764 488 703 718 764 631 b 603 257 764 346 703 257 "},"❶":{"ha":1206,"x_min":0,"x_max":0,"o":"m 603 -33 b 72 490 304 -33 72 199 b 603 1014 72 782 304 1014 b 1133 490 901 1014 1133 782 b 603 -33 1133 199 901 -33 m 635 221 l 635 761 l 586 761 l 486 669 l 486 608 l 581 694 l 581 221 "},"❷":{"ha":1206,"x_min":0,"x_max":0,"o":"m 603 -33 b 72 490 304 -33 72 199 b 603 1014 72 782 304 1014 b 1133 490 901 1014 1133 782 b 603 -33 1133 199 901 -33 m 417 219 l 797 219 l 797 268 l 475 268 b 794 611 476 457 794 406 b 610 769 794 718 713 769 b 410 625 501 769 431 717 l 461 565 b 610 725 457 679 538 725 b 736 611 676 725 736 688 b 417 257 736 443 417 492 "},"❸":{"ha":1206,"x_min":0,"x_max":0,"o":"m 603 -33 b 72 490 304 -33 72 199 b 603 1014 72 782 304 1014 b 1133 490 901 1014 1133 782 b 603 -33 1133 199 901 -33 m 604 479 b 732 369 681 479 732 435 b 594 247 732 289 664 247 b 440 408 517 247 436 294 l 389 347 b 594 203 408 256 481 203 b 789 365 701 203 789 258 b 683 506 789 433 749 483 b 765 619 735 525 765 565 b 594 763 765 714 690 763 b 407 625 493 763 426 713 l 458 564 b 594 719 454 674 529 719 b 708 619 656 719 708 683 b 604 526 708 563 667 526 m 529 479 l 603 479 l 603 526 l 529 526 "},"❹":{"ha":1206,"x_min":0,"x_max":0,"o":"m 603 -33 b 72 490 304 -33 72 199 b 603 1014 72 782 304 1014 b 1133 490 901 1014 1133 782 b 603 -33 1133 199 901 -33 m 688 219 l 688 379 l 821 379 l 821 424 l 688 424 l 688 761 l 599 761 l 367 422 l 367 379 l 632 379 l 632 219 m 632 721 l 632 424 l 426 424 "},"❺":{"ha":1206,"x_min":0,"x_max":0,"o":"m 603 -33 b 72 490 304 -33 72 199 b 603 1014 72 782 304 1014 b 1133 490 901 1014 1133 782 b 603 -33 1133 199 901 -33 m 465 444 b 607 536 492 500 538 536 b 749 397 690 536 749 479 b 607 250 749 310 690 250 b 457 408 538 250 457 296 l 406 347 b 603 203 429 256 504 203 b 806 397 725 203 806 279 b 619 582 806 508 732 582 b 475 508 565 582 510 563 l 482 703 l 779 703 l 779 753 l 433 753 l 422 447 l 465 444 "},"❻":{"ha":1206,"x_min":0,"x_max":0,"o":"m 603 -33 b 72 490 304 -33 72 199 b 603 1014 72 782 304 1014 b 1133 490 901 1014 1133 782 b 603 -33 1133 199 901 -33 m 604 207 b 800 394 724 207 800 286 b 611 571 800 500 724 571 b 443 451 524 571 465 524 b 442 486 442 463 442 474 b 608 715 442 618 508 715 b 757 606 675 715 738 679 l 792 675 b 608 763 757 732 688 763 b 386 478 471 763 386 647 b 604 207 386 322 464 207 m 464 390 b 604 525 464 468 524 525 b 744 390 685 525 744 468 b 604 254 744 311 685 254 b 464 390 525 254 464 310 "},"❼":{"ha":1206,"x_min":0,"x_max":0,"o":"m 603 -33 b 72 490 304 -33 72 199 b 603 1014 72 782 304 1014 b 1133 490 901 1014 1133 782 b 603 -33 1133 199 901 -33 m 544 219 l 797 719 l 797 761 l 431 761 l 431 711 l 738 711 l 488 219 "},"❽":{"ha":1206,"x_min":0,"x_max":0,"o":"m 603 -33 b 72 490 304 -33 72 199 b 603 1014 72 782 304 1014 b 1133 490 901 1014 1133 782 b 603 -33 1133 199 901 -33 m 603 526 b 479 619 525 526 479 563 b 603 717 479 682 536 717 b 726 619 669 717 726 682 b 603 526 726 563 681 526 m 603 479 b 750 365 694 479 750 431 b 603 247 750 286 679 247 b 456 365 526 247 456 286 b 603 479 456 431 511 479 m 400 365 b 603 203 400 254 492 203 b 806 365 714 203 806 254 b 690 504 806 431 764 482 b 782 619 749 524 782 564 b 603 763 782 714 704 763 b 424 619 501 763 424 714 b 515 504 424 564 457 524 b 400 365 442 482 400 431 "},"❾":{"ha":1206,"x_min":0,"x_max":0,"o":"m 603 -33 b 72 490 304 -33 72 199 b 603 1014 72 782 304 1014 b 1133 490 901 1014 1133 782 b 603 -33 1133 199 901 -33 m 601 767 b 406 578 482 767 406 686 b 594 400 406 472 482 400 b 761 513 679 400 739 444 b 763 486 763 503 763 494 b 597 258 763 353 696 258 b 449 369 529 258 467 294 l 413 296 b 597 207 447 239 519 207 b 821 493 736 207 821 325 b 601 767 821 649 743 767 m 740 582 b 601 449 740 504 682 449 b 463 582 521 449 463 504 b 601 715 463 660 521 715 b 740 582 681 715 740 661 "},"⓪":{"ha":1206,"x_min":0,"x_max":0,"o":"m 603 14 b 1078 490 869 14 1078 222 b 603 967 1078 758 869 967 b 128 490 336 967 128 758 b 603 14 128 222 336 14 m 603 -35 b 72 490 306 -35 72 197 b 603 1015 72 783 306 1015 b 1133 490 900 1015 1133 783 b 603 -35 1133 197 900 -35 m 603 214 b 386 492 467 214 386 318 b 603 769 386 665 467 769 b 819 492 739 769 819 665 b 603 214 819 318 739 214 m 603 261 b 764 492 703 261 764 350 b 603 722 764 635 703 722 b 442 492 503 722 442 635 b 603 261 442 350 503 261 "},"①":{"ha":1206,"x_min":0,"x_max":0,"o":"m 603 14 b 1078 490 869 14 1078 222 b 603 967 1078 758 869 967 b 128 490 336 967 128 758 b 603 14 128 222 336 14 m 603 -35 b 72 490 306 -35 72 197 b 603 1015 72 783 306 1015 b 1133 490 900 1015 1133 783 b 603 -35 1133 197 900 -35 m 581 699 l 486 613 l 486 674 l 586 765 l 635 765 l 635 225 l 581 225 "},"②":{"ha":1206,"x_min":0,"x_max":0,"o":"m 603 14 b 1078 490 869 14 1078 222 b 603 967 1078 758 869 967 b 128 490 336 967 128 758 b 603 14 128 222 336 14 m 603 -35 b 72 490 306 -35 72 197 b 603 1015 72 783 306 1015 b 1133 490 900 1015 1133 783 b 603 -35 1133 197 900 -35 m 417 261 b 736 615 417 496 736 447 b 610 729 736 692 676 729 b 461 569 538 729 457 683 l 410 629 b 610 774 431 721 501 774 b 794 615 713 774 794 722 b 475 272 794 410 476 461 l 797 272 l 797 224 l 417 224 l 417 261 "},"③":{"ha":1206,"x_min":0,"x_max":0,"o":"m 603 14 b 1078 490 869 14 1078 222 b 603 967 1078 758 869 967 b 128 490 336 967 128 758 b 603 14 128 222 336 14 m 603 -35 b 72 490 306 -35 72 197 b 603 1015 72 783 306 1015 b 1133 490 900 1015 1133 783 b 603 -35 1133 197 900 -35 m 604 531 b 708 624 667 531 708 567 b 594 724 708 688 656 724 b 458 568 529 724 454 678 l 407 629 b 594 767 426 717 493 767 b 765 624 690 767 765 718 b 683 510 765 569 735 529 b 789 369 749 488 789 438 b 594 207 789 263 701 207 b 389 351 481 207 408 260 l 440 413 b 594 251 436 299 517 251 b 732 374 664 251 732 293 b 604 483 732 439 681 483 l 604 531 m 603 531 l 603 483 l 529 483 l 529 531 "},"④":{"ha":1206,"x_min":0,"x_max":0,"o":"m 603 14 b 1078 490 869 14 1078 222 b 603 967 1078 758 869 967 b 128 490 336 967 128 758 b 603 14 128 222 336 14 m 603 -35 b 72 490 306 -35 72 197 b 603 1015 72 783 306 1015 b 1133 490 900 1015 1133 783 b 603 -35 1133 197 900 -35 m 632 383 l 367 383 l 367 426 l 599 765 l 688 765 l 688 428 l 821 428 l 821 383 l 688 383 l 688 224 l 632 224 m 632 428 l 632 725 l 426 428 "},"⑤":{"ha":1206,"x_min":0,"x_max":0,"o":"m 603 14 b 1078 490 869 14 1078 222 b 603 967 1078 758 869 967 b 128 490 336 967 128 758 b 603 14 128 222 336 14 m 603 -35 b 72 490 306 -35 72 197 b 603 1015 72 783 306 1015 b 1133 490 900 1015 1133 783 b 603 -35 1133 197 900 -35 m 422 451 l 433 757 l 779 757 l 779 707 l 482 707 l 475 513 b 619 586 510 567 565 586 b 806 401 732 586 806 513 b 603 207 806 283 725 207 b 406 351 504 207 429 260 l 457 413 b 607 254 457 300 538 254 b 749 401 690 254 749 314 b 607 540 749 483 690 540 b 465 449 538 540 492 504 "},"⑥":{"ha":1206,"x_min":0,"x_max":0,"o":"m 603 14 b 1078 490 869 14 1078 222 b 603 967 1078 758 869 967 b 128 490 336 967 128 758 b 603 14 128 222 336 14 m 603 -35 b 72 490 306 -35 72 197 b 603 1015 72 783 306 1015 b 1133 490 900 1015 1133 783 b 603 -35 1133 197 900 -35 m 604 211 b 386 482 464 211 386 326 b 608 767 386 651 471 767 b 792 679 688 767 757 736 l 757 610 b 608 719 738 683 675 719 b 442 490 508 719 442 622 b 443 456 442 478 442 467 b 611 575 465 528 524 575 b 800 399 724 575 800 504 b 604 211 800 290 724 211 m 464 394 b 604 258 464 314 525 258 b 744 394 685 258 744 315 b 604 529 744 472 685 529 b 464 394 524 529 464 472 "},"⑦":{"ha":1206,"x_min":0,"x_max":0,"o":"m 603 14 b 1078 490 869 14 1078 222 b 603 967 1078 758 869 967 b 128 490 336 967 128 758 b 603 14 128 222 336 14 m 603 -35 b 72 490 306 -35 72 197 b 603 1015 72 783 306 1015 b 1133 490 900 1015 1133 783 b 603 -35 1133 197 900 -35 m 738 715 l 431 715 l 431 765 l 797 765 l 797 724 l 544 224 l 488 224 "},"⑧":{"ha":1206,"x_min":0,"x_max":0,"o":"m 603 14 b 1078 490 869 14 1078 222 b 603 967 1078 758 869 967 b 128 490 336 967 128 758 b 603 14 128 222 336 14 m 603 -35 b 72 490 306 -35 72 197 b 603 1015 72 783 306 1015 b 1133 490 900 1015 1133 783 b 603 -35 1133 197 900 -35 m 603 531 b 726 624 681 531 726 567 b 603 721 726 686 669 721 b 479 624 536 721 479 686 b 603 531 479 567 525 531 m 603 483 b 456 369 511 483 456 435 b 603 251 456 290 526 251 b 750 369 679 251 750 290 b 603 483 750 435 694 483 m 400 369 b 515 508 400 435 442 486 b 424 624 457 528 424 568 b 603 767 424 718 501 767 b 782 624 704 767 782 718 b 690 508 782 568 749 528 b 806 369 764 486 806 435 b 603 207 806 258 714 207 b 400 369 492 207 400 258 "},"⑨":{"ha":1206,"x_min":0,"x_max":0,"o":"m 603 14 b 1078 490 869 14 1078 222 b 603 967 1078 758 869 967 b 128 490 336 967 128 758 b 603 14 128 222 336 14 m 603 -35 b 72 490 306 -35 72 197 b 603 1015 72 783 306 1015 b 1133 490 900 1015 1133 783 b 603 -35 1133 197 900 -35 m 601 771 b 821 497 743 771 821 653 b 597 211 821 329 736 211 b 413 300 519 211 447 243 l 449 374 b 597 263 467 299 529 263 b 763 490 696 263 763 357 l 761 517 b 594 404 739 449 679 404 b 406 582 482 404 406 476 b 601 771 406 690 482 771 m 740 586 b 601 719 740 665 681 719 b 463 586 521 719 463 664 b 601 453 463 508 521 453 b 740 586 682 453 740 508 "},"⁄":{"ha":368,"x_min":0,"x_max":0,"o":"m 490 972 l 549 972 l -122 0 l -181 0 "},"½":{"ha":1121,"x_min":0,"x_max":0,"o":"m 138 904 l 43 818 l 43 879 l 143 971 l 192 971 l 192 431 l 138 431 m 774 972 l 832 972 l 161 0 l 103 0 m 697 38 b 1017 392 697 272 1017 224 b 890 506 1017 468 957 506 b 742 346 818 506 738 460 l 690 406 b 890 550 711 497 782 550 b 1075 392 993 550 1075 499 b 756 49 1075 186 757 238 l 1078 49 l 1078 0 l 697 0 l 697 38 "},"¼":{"ha":1088,"x_min":0,"x_max":0,"o":"m 138 904 l 43 818 l 43 879 l 143 971 l 192 971 l 192 431 l 138 431 m 774 972 l 832 972 l 161 0 l 103 0 m 869 160 l 604 160 l 604 203 l 836 542 l 925 542 l 925 204 l 1058 204 l 1058 160 l 925 160 l 925 0 l 869 0 m 869 204 l 869 501 l 664 204 "},"¾":{"ha":1292,"x_min":0,"x_max":0,"o":"m 258 736 b 363 829 321 736 363 772 b 249 929 363 893 310 929 b 113 774 183 929 108 883 l 61 835 b 249 972 81 922 147 972 b 419 829 344 972 419 924 b 338 715 419 775 389 735 b 443 575 403 693 443 643 b 249 413 443 468 356 413 b 43 557 135 413 63 465 l 94 618 b 249 457 90 504 171 457 b 386 579 318 457 386 499 b 258 689 386 644 335 689 l 258 736 m 257 736 l 257 689 l 183 689 l 183 736 m 978 972 l 1036 972 l 365 0 l 307 0 m 1074 160 l 808 160 l 808 203 l 1040 542 l 1129 542 l 1129 204 l 1263 204 l 1263 160 l 1129 160 l 1129 0 l 1074 0 m 1074 204 l 1074 501 l 868 204 "},"⅛":{"ha":1147,"x_min":0,"x_max":0,"o":"m 138 904 l 43 818 l 43 879 l 143 971 l 192 971 l 192 431 l 138 431 m 774 972 l 832 972 l 161 0 l 103 0 m 888 307 b 1011 400 965 307 1011 343 b 888 497 1011 463 954 497 b 764 400 821 497 764 463 b 888 307 764 343 810 307 m 888 260 b 740 146 796 260 740 211 b 888 28 740 67 811 28 b 1035 146 964 28 1035 67 b 888 260 1035 211 979 260 m 685 146 b 800 285 685 211 726 263 b 708 400 742 304 708 344 b 888 543 708 494 786 543 b 1067 400 989 543 1067 494 b 975 285 1067 344 1033 304 b 1090 146 1049 263 1090 211 b 888 -17 1090 35 999 -17 b 685 146 776 -17 685 35 "},"⅜":{"ha":1351,"x_min":0,"x_max":0,"o":"m 258 736 b 363 829 321 736 363 772 b 249 929 363 893 310 929 b 113 774 183 929 108 883 l 61 835 b 249 972 81 922 147 972 b 419 829 344 972 419 924 b 338 715 419 775 389 735 b 443 575 403 693 443 643 b 249 413 443 468 356 413 b 43 557 135 413 63 465 l 94 618 b 249 457 90 504 171 457 b 386 579 318 457 386 499 b 258 689 386 644 335 689 l 258 736 m 257 736 l 257 689 l 183 689 l 183 736 m 978 972 l 1036 972 l 365 0 l 307 0 m 1092 307 b 1215 400 1169 307 1215 343 b 1092 497 1215 463 1158 497 b 968 400 1025 497 968 463 b 1092 307 968 343 1014 307 m 1092 260 b 944 146 1000 260 944 211 b 1092 28 944 67 1015 28 b 1239 146 1168 28 1239 67 b 1092 260 1239 211 1183 260 m 889 146 b 1004 285 889 211 931 263 b 913 400 946 304 913 344 b 1092 543 913 494 990 543 b 1271 400 1193 543 1271 494 b 1179 285 1271 344 1238 304 b 1294 146 1253 263 1294 211 b 1092 -17 1294 35 1203 -17 b 889 146 981 -17 889 35 "},"⅝":{"ha":1353,"x_min":0,"x_max":0,"o":"m 74 657 l 85 963 l 431 963 l 431 913 l 133 913 l 126 718 b 271 792 161 772 217 792 b 457 607 383 792 457 718 b 254 413 457 489 376 413 b 57 557 156 413 81 465 l 108 618 b 258 460 108 506 189 460 b 400 607 342 460 400 519 b 258 746 400 689 342 746 b 117 654 189 746 143 710 m 979 972 l 1038 972 l 367 0 l 308 0 m 1093 307 b 1217 400 1171 307 1217 343 b 1093 497 1217 463 1160 497 b 969 400 1026 497 969 463 b 1093 307 969 343 1015 307 m 1093 260 b 946 146 1001 260 946 211 b 1093 28 946 67 1017 28 b 1240 146 1169 28 1240 67 b 1093 260 1240 211 1185 260 m 890 146 b 1006 285 890 211 932 263 b 914 400 947 304 914 344 b 1093 543 914 494 992 543 b 1272 400 1194 543 1272 494 b 1181 285 1272 344 1239 304 b 1296 146 1254 263 1296 211 b 1093 -17 1296 35 1204 -17 b 890 146 982 -17 890 35 "},"⅞":{"ha":1174,"x_min":0,"x_max":0,"o":"m 322 921 l 15 921 l 15 971 l 382 971 l 382 929 l 129 429 l 72 429 m 800 972 l 858 972 l 188 0 l 129 0 m 914 307 b 1038 400 992 307 1038 343 b 914 497 1038 463 981 497 b 790 400 847 497 790 463 b 914 307 790 343 836 307 m 914 260 b 767 146 822 260 767 211 b 914 28 767 67 838 28 b 1061 146 990 28 1061 67 b 914 260 1061 211 1006 260 m 711 146 b 826 285 711 211 753 263 b 735 400 768 304 735 344 b 914 543 735 494 813 543 b 1093 400 1015 543 1093 494 b 1001 285 1093 344 1060 304 b 1117 146 1075 263 1117 211 b 914 -17 1117 35 1025 -17 b 711 146 803 -17 711 35 "},"₀":{"ha":547,"x_min":0,"x_max":0,"o":"m 274 -287 b 57 -10 138 -287 57 -183 b 274 268 57 164 138 268 b 490 -10 410 268 490 164 b 274 -287 490 -183 410 -287 m 274 -240 b 435 -10 374 -240 435 -151 b 274 221 435 133 374 221 b 113 -10 174 221 113 133 b 274 -240 113 -151 174 -240 "},"₁":{"ha":290,"x_min":0,"x_max":0,"o":"m 138 197 l 43 111 l 43 172 l 143 264 l 192 264 l 192 -276 l 138 -276 "},"₂":{"ha":488,"x_min":0,"x_max":0,"o":"m 64 -240 b 383 114 64 -6 383 -54 b 257 228 383 190 324 228 b 108 68 185 228 104 182 l 57 128 b 257 272 78 219 149 272 b 442 114 360 272 442 221 b 122 -229 442 -92 124 -40 l 444 -229 l 444 -278 l 64 -278 l 64 -240 "},"₃":{"ha":500,"x_min":0,"x_max":0,"o":"m 258 29 b 363 122 321 29 363 65 b 249 222 363 186 310 222 b 113 67 183 222 108 176 l 61 128 b 249 265 81 215 147 265 b 419 122 344 265 419 217 b 338 8 419 68 389 28 b 443 -132 403 -14 443 -64 b 249 -294 443 -239 356 -294 b 43 -150 135 -294 63 -242 l 94 -89 b 249 -250 90 -203 171 -250 b 386 -128 318 -250 386 -208 b 258 -18 386 -62 335 -18 l 258 29 m 257 29 l 257 -18 l 183 -18 l 183 29 "},"₄":{"ha":513,"x_min":0,"x_max":0,"o":"m 294 -118 l 29 -118 l 29 -75 l 261 264 l 350 264 l 350 -74 l 483 -74 l 483 -118 l 350 -118 l 350 -278 l 294 -278 m 294 -74 l 294 224 l 89 -74 "},"₅":{"ha":500,"x_min":0,"x_max":0,"o":"m 74 -50 l 85 256 l 431 256 l 431 206 l 133 206 l 126 11 b 271 85 161 65 217 85 b 457 -100 383 85 457 11 b 254 -294 457 -218 376 -294 b 57 -150 156 -294 81 -242 l 108 -89 b 258 -247 108 -201 189 -247 b 400 -100 342 -247 400 -187 b 258 39 400 -18 342 39 b 117 -53 189 39 143 3 "},"₆":{"ha":500,"x_min":0,"x_max":0,"o":"m 261 -290 b 43 -19 121 -290 43 -175 b 265 265 43 150 128 265 b 449 178 344 265 414 235 l 414 108 b 265 218 394 182 332 218 b 99 -11 165 218 99 121 b 100 -46 99 -24 99 -35 b 268 74 122 26 181 74 b 457 -103 381 74 457 3 b 261 -290 457 -211 381 -290 m 121 -107 b 261 -243 121 -187 182 -243 b 401 -107 342 -243 401 -186 b 261 28 401 -29 342 28 b 121 -107 181 28 121 -29 "},"₇":{"ha":383,"x_min":0,"x_max":0,"o":"m 322 214 l 15 214 l 15 264 l 382 264 l 382 222 l 129 -278 l 72 -278 "},"₈":{"ha":519,"x_min":0,"x_max":0,"o":"m 260 29 b 383 122 338 29 383 65 b 260 219 383 185 326 219 b 136 122 193 219 136 185 b 260 29 136 65 182 29 m 260 -18 b 113 -132 168 -18 113 -67 b 260 -250 113 -211 183 -250 b 407 -132 336 -250 407 -211 b 260 -18 407 -67 351 -18 m 57 -132 b 172 7 57 -67 99 -15 b 81 122 114 26 81 67 b 260 265 81 217 158 265 b 439 122 361 265 439 217 b 347 7 439 67 406 26 b 463 -132 421 -15 463 -67 b 260 -294 463 -243 371 -294 b 57 -132 149 -294 57 -243 "},"₉":{"ha":526,"x_min":0,"x_max":0,"o":"m 251 269 b 471 -4 393 269 471 151 b 247 -290 471 -172 386 -290 b 63 -201 169 -290 97 -258 l 99 -128 b 247 -239 117 -203 179 -239 b 413 -11 346 -239 413 -144 l 411 15 b 244 -97 389 -53 329 -97 b 56 81 132 -97 56 -25 b 251 269 56 189 132 269 m 390 85 b 251 218 390 164 331 218 b 113 85 171 218 113 163 b 251 -49 113 7 171 -49 b 390 85 332 -49 390 7 "},"⁰":{"ha":547,"x_min":0,"x_max":0,"o":"m 274 697 b 57 975 138 697 57 801 b 274 1253 57 1149 138 1253 b 490 975 410 1253 490 1149 b 274 697 490 801 410 697 m 274 744 b 435 975 374 744 435 833 b 274 1206 435 1118 374 1206 b 113 975 174 1206 113 1118 b 274 744 113 833 174 744 "},"¹":{"ha":290,"x_min":0,"x_max":0,"o":"m 138 1182 l 43 1096 l 43 1157 l 143 1249 l 192 1249 l 192 708 l 138 708 "},"²":{"ha":488,"x_min":0,"x_max":0,"o":"m 64 744 b 383 1099 64 979 383 931 b 257 1213 383 1175 324 1213 b 108 1053 185 1213 104 1167 l 57 1113 b 257 1257 78 1204 149 1257 b 442 1099 360 1257 442 1206 b 122 756 442 893 124 944 l 444 756 l 444 707 l 64 707 l 64 744 "},"³":{"ha":500,"x_min":0,"x_max":0,"o":"m 258 1014 b 363 1107 321 1014 363 1050 b 249 1207 363 1171 310 1207 b 113 1051 183 1207 108 1161 l 61 1113 b 249 1250 81 1200 147 1250 b 419 1107 344 1250 419 1201 b 338 993 419 1053 389 1013 b 443 853 403 971 443 921 b 249 690 443 746 356 690 b 43 835 135 690 63 743 l 94 896 b 249 735 90 782 171 735 b 386 857 318 735 386 776 b 258 967 386 922 335 967 l 258 1014 m 257 1014 l 257 967 l 183 967 l 183 1014 "},"⁴":{"ha":513,"x_min":0,"x_max":0,"o":"m 294 867 l 29 867 l 29 910 l 261 1249 l 350 1249 l 350 911 l 483 911 l 483 867 l 350 867 l 350 707 l 294 707 m 294 911 l 294 1208 l 89 911 "},"⁵":{"ha":500,"x_min":0,"x_max":0,"o":"m 74 935 l 85 1240 l 431 1240 l 431 1190 l 133 1190 l 126 996 b 271 1069 161 1050 217 1069 b 457 885 383 1069 457 996 b 254 690 457 767 376 690 b 57 835 156 690 81 743 l 108 896 b 258 738 108 783 189 738 b 400 885 342 738 400 797 b 258 1024 400 967 342 1024 b 117 932 189 1024 143 988 "},"⁶":{"ha":500,"x_min":0,"x_max":0,"o":"m 261 694 b 43 965 121 694 43 810 b 265 1250 43 1135 128 1250 b 449 1163 344 1250 414 1219 l 414 1093 b 265 1203 394 1167 332 1203 b 99 974 165 1203 99 1106 b 100 939 99 961 99 950 b 268 1058 122 1011 181 1058 b 457 882 381 1058 457 988 b 261 694 457 774 381 694 m 121 878 b 261 742 121 797 182 742 b 401 878 342 742 401 799 b 261 1013 401 956 342 1013 b 121 878 181 1013 121 956 "},"⁷":{"ha":383,"x_min":0,"x_max":0,"o":"m 322 1199 l 15 1199 l 15 1249 l 382 1249 l 382 1207 l 129 707 l 72 707 "},"⁸":{"ha":519,"x_min":0,"x_max":0,"o":"m 260 1014 b 383 1107 338 1014 383 1050 b 260 1204 383 1169 326 1204 b 136 1107 193 1204 136 1169 b 260 1014 136 1050 182 1014 m 260 967 b 113 853 168 967 113 918 b 260 735 113 774 183 735 b 407 853 336 735 407 774 b 260 967 407 918 351 967 m 57 853 b 172 992 57 918 99 969 b 81 1107 114 1011 81 1051 b 260 1250 81 1201 158 1250 b 439 1107 361 1250 439 1201 b 347 992 439 1051 406 1011 b 463 853 421 969 463 918 b 260 690 463 742 371 690 b 57 853 149 690 57 742 "},"⁹":{"ha":526,"x_min":0,"x_max":0,"o":"m 251 1254 b 471 981 393 1254 471 1136 b 247 694 471 813 386 694 b 63 783 169 694 97 726 l 99 857 b 247 746 117 782 179 746 b 413 974 346 746 413 840 l 411 1000 b 244 888 389 932 329 888 b 56 1065 132 888 56 960 b 251 1254 56 1174 132 1254 m 390 1069 b 251 1203 390 1149 331 1203 b 113 1069 171 1203 113 1147 b 251 936 113 992 171 936 b 390 1069 332 936 390 992 "}," ":{"ha":278,"x_min":0,"x_max":0,"o":""},"﴾":{"ha":868,"x_min":0,"x_max":0,"o":"m 297 338 b 324 333 306 335 314 333 b 349 338 332 333 340 335 l 349 139 l 297 139 l 297 338 m 263 475 b 240 435 251 464 243 450 l 69 533 l 92 574 l 263 475 m 572 533 l 404 436 b 382 476 401 451 393 465 l 550 574 m 242 396 b 265 356 246 381 254 367 l 92 256 l 69 296 l 242 396 m 297 694 l 349 694 l 349 497 b 324 501 340 500 332 501 b 297 497 314 501 306 500 m 379 354 b 403 393 390 365 399 378 l 572 296 l 550 256 l 379 354 m 815 1088 b 358 764 619 1071 453 950 l 303 764 b 815 1135 403 975 592 1115 l 815 1088 m 358 69 b 815 -254 453 -117 619 -237 l 815 -301 b 303 69 592 -282 403 -142 l 358 69 "},"﴿":{"ha":868,"x_min":0,"x_max":0,"o":"m 571 496 b 544 500 563 499 554 500 b 519 496 536 500 528 499 l 519 694 l 571 694 l 571 496 m 606 358 b 628 399 617 369 625 383 l 799 300 l 776 260 l 606 358 m 296 300 l 464 397 b 486 357 467 382 475 368 l 318 260 m 626 438 b 603 478 622 453 614 467 l 776 578 l 799 538 l 626 438 m 571 139 l 519 139 l 519 336 b 544 332 528 333 536 332 b 571 336 554 332 563 333 m 489 479 b 465 440 478 468 469 456 l 296 538 l 318 578 l 489 479 m 53 -254 b 510 69 249 -237 415 -117 l 565 69 b 53 -301 465 -142 276 -282 l 53 -254 m 510 764 b 53 1088 415 950 249 1071 l 53 1135 b 565 764 276 1115 465 975 l 510 764 "},".":{"ha":383,"x_min":0,"x_max":0,"o":"m 118 146 l 265 146 l 265 0 l 118 0 "},",":{"ha":408,"x_min":0,"x_max":0,"o":"m 143 146 l 290 146 l 290 14 b 228 -208 290 -90 283 -139 l 118 -208 b 208 0 201 -139 208 -86 l 143 0 "},":":{"ha":383,"x_min":0,"x_max":0,"o":"m 118 146 l 265 146 l 265 0 l 118 0 m 118 697 l 265 697 l 265 551 l 118 551 "},";":{"ha":408,"x_min":0,"x_max":0,"o":"m 143 146 l 290 146 l 290 14 b 228 -208 290 -90 283 -139 l 118 -208 b 208 0 201 -139 208 -86 l 143 0 m 143 697 l 290 697 l 290 551 l 143 551 "},"…":{"ha":1050,"x_min":0,"x_max":0,"o":"m 118 146 l 265 146 l 265 0 l 118 0 m 451 146 l 599 146 l 599 0 l 451 0 m 785 146 l 932 146 l 932 0 l 785 0 "},"!":{"ha":383,"x_min":0,"x_max":0,"o":"m 118 146 l 265 146 l 265 0 l 118 0 m 136 751 l 136 972 l 247 972 l 247 751 l 219 250 l 164 250 "},"¡":{"ha":383,"x_min":0,"x_max":0,"o":"m 265 549 l 118 549 l 118 694 l 265 694 m 247 -57 l 247 -278 l 136 -278 l 136 -57 l 164 444 l 219 444 "},"?":{"ha":653,"x_min":0,"x_max":0,"o":"m 279 253 b 508 738 260 524 508 536 b 335 904 508 838 439 904 b 128 639 204 904 121 799 l 31 754 b 335 989 58 894 181 989 b 613 738 501 989 613 889 b 335 253 613 496 335 464 l 279 253 m 238 146 l 385 146 l 385 0 l 238 0 "},"¿":{"ha":653,"x_min":0,"x_max":0,"o":"m 374 442 b 144 -43 393 171 144 158 b 318 -210 144 -143 214 -210 b 525 56 449 -210 532 -104 l 622 -60 b 318 -294 594 -200 472 -294 b 40 -43 151 -294 40 -194 b 318 442 40 199 318 231 l 374 442 m 415 549 l 268 549 l 268 694 l 415 694 "},"·":{"ha":383,"x_min":0,"x_max":0,"o":"m 118 438 l 265 438 l 265 292 l 118 292 "},"•":{"ha":485,"x_min":0,"x_max":0,"o":"m 118 488 l 367 488 l 367 242 l 118 242 "},"*":{"ha":642,"x_min":0,"x_max":0,"o":"m 297 629 b 324 625 306 626 314 625 b 349 629 332 625 340 626 l 349 431 l 297 431 l 297 629 m 263 767 b 240 726 251 756 243 742 l 69 825 l 92 865 l 263 767 m 572 825 l 404 728 b 382 768 401 743 393 757 l 550 865 m 242 688 b 265 647 246 672 254 658 l 92 547 l 69 588 l 242 688 m 297 986 l 349 986 l 349 789 b 324 793 340 792 332 793 b 297 789 314 793 306 792 m 379 646 b 403 685 390 657 399 669 l 572 588 l 550 547 l 379 646 "},"⁂":{"ha":1308,"x_min":0,"x_max":0,"o":"m 631 629 b 657 625 639 626 647 625 b 682 629 665 625 674 626 l 682 431 l 631 431 l 631 629 m 596 767 b 574 726 585 756 576 742 l 403 825 l 425 865 l 596 767 m 906 825 l 738 728 b 715 768 735 743 726 757 l 883 865 m 575 688 b 599 647 579 672 588 658 l 425 547 l 403 588 l 575 688 m 631 986 l 682 986 l 682 789 b 657 793 674 792 665 793 b 631 789 647 793 639 792 m 713 646 b 736 685 724 657 732 669 l 906 588 l 883 547 l 713 646 m 297 213 b 324 208 306 210 314 208 b 349 213 332 208 340 210 l 349 14 l 297 14 l 297 213 m 263 350 b 240 310 251 339 243 325 l 69 408 l 92 449 l 263 350 m 572 408 l 404 311 b 382 351 401 326 393 340 l 550 449 m 242 271 b 265 231 246 256 254 242 l 92 131 l 69 171 l 242 271 m 297 569 l 349 569 l 349 372 b 324 376 340 375 332 376 b 297 372 314 376 306 375 m 379 229 b 403 268 390 240 399 253 l 572 171 l 550 131 l 379 229 m 964 213 b 990 208 972 210 981 208 b 1015 213 999 208 1007 210 l 1015 14 l 964 14 l 964 213 m 929 350 b 907 310 918 339 910 325 l 736 408 l 758 449 l 929 350 m 1239 408 l 1071 311 b 1049 351 1068 326 1060 340 l 1217 449 m 908 271 b 932 231 913 256 921 242 l 758 131 l 736 171 l 908 271 m 964 569 l 1015 569 l 1015 372 b 990 376 1007 375 999 376 b 964 372 981 376 972 375 m 1046 229 b 1069 268 1057 240 1065 253 l 1239 171 l 1217 131 l 1046 229 "},"‼":{"ha":767,"x_min":0,"x_max":0,"o":"m 118 146 l 265 146 l 265 0 l 118 0 m 136 751 l 136 972 l 247 972 l 247 751 l 219 250 l 164 250 m 501 146 l 649 146 l 649 0 l 501 0 m 519 751 l 519 972 l 631 972 l 631 751 l 603 250 l 547 250 "},"‽":{"ha":667,"x_min":0,"x_max":0,"o":"m 268 640 l 268 778 l 379 778 l 379 640 l 365 471 b 522 738 429 558 522 611 b 342 904 522 838 450 904 b 128 639 207 904 121 799 l 31 754 b 342 989 58 894 183 989 b 626 738 513 989 626 889 b 351 289 626 510 381 468 l 349 253 l 293 253 m 251 146 l 399 146 l 399 0 l 251 0 "},"#":{"ha":881,"x_min":0,"x_max":0,"o":"m 218 314 l 33 314 l 33 356 l 226 356 l 283 642 l 79 642 l 79 683 l 292 683 l 350 972 l 399 972 l 340 683 l 604 683 l 663 972 l 711 972 l 653 683 l 847 683 l 847 642 l 644 642 l 588 356 l 801 356 l 801 314 l 579 314 l 517 0 l 468 0 l 531 314 l 267 314 l 204 0 l 156 0 m 539 356 l 596 642 l 332 642 l 275 356 "},"/":{"ha":667,"x_min":0,"x_max":0,"o":"m 583 1111 l 639 1111 l 83 -278 l 28 -278 "},"\\":{"ha":667,"x_min":0,"x_max":0,"o":"m 583 -278 l 28 1111 l 83 1111 l 639 -278 "},"-":{"ha":657,"x_min":0,"x_max":0,"o":"m 574 417 l 574 335 l 83 335 l 83 417 "},"–":{"ha":796,"x_min":0,"x_max":0,"o":"m 713 400 l 713 351 l 83 351 l 83 400 "},"—":{"ha":935,"x_min":0,"x_max":0,"o":"m 851 400 l 851 351 l 83 351 l 83 400 "},"_":{"ha":796,"x_min":0,"x_max":0,"o":"m 713 -69 l 713 -118 l 83 -118 l 83 -69 "},"₍":{"ha":460,"x_min":0,"x_max":0,"o":"m 421 378 b 111 -15 249 361 111 207 b 421 -408 111 -237 249 -392 l 421 -458 b 56 -15 215 -440 56 -262 b 421 428 56 232 215 410 l 421 378 "},"₎":{"ha":460,"x_min":0,"x_max":0,"o":"m 39 428 b 404 -15 244 410 404 232 b 39 -458 404 -262 244 -440 l 39 -408 b 349 -15 211 -392 349 -237 b 39 378 349 207 211 361 l 39 428 "},"(":{"ha":693,"x_min":0,"x_max":0,"o":"m 640 1086 b 108 417 343 1060 108 793 b 640 -253 108 40 343 -226 l 640 -303 b 53 417 310 -274 53 15 b 640 1136 53 818 310 1107 l 640 1086 "},")":{"ha":693,"x_min":0,"x_max":0,"o":"m 53 1136 b 640 417 383 1107 640 818 b 53 -303 640 15 383 -274 l 53 -253 b 585 417 350 -226 585 40 b 53 1086 585 793 350 1060 l 53 1136 "},"{":{"ha":722,"x_min":0,"x_max":0,"o":"m 604 1067 b 189 690 358 1099 189 950 b 236 469 189 607 207 531 b 435 569 288 532 356 569 b 604 421 535 569 604 506 b 433 272 604 336 535 272 b 236 371 356 272 288 310 b 189 150 207 310 189 233 b 604 -228 189 -110 360 -258 l 604 -278 b 133 150 329 -308 133 -135 b 201 421 133 251 158 347 b 133 690 158 493 133 588 b 604 1117 133 975 328 1149 l 604 1067 m 265 421 b 433 321 308 358 368 321 b 549 421 504 321 549 361 b 435 521 549 481 504 521 b 265 421 368 521 308 483 "},"}":{"ha":722,"x_min":0,"x_max":0,"o":"m 118 -228 b 533 149 364 -260 533 -111 b 486 371 533 232 515 308 b 288 271 435 308 365 271 b 118 418 188 271 118 333 b 289 568 118 503 188 568 b 486 468 367 568 435 531 b 533 689 515 529 533 606 b 118 1067 533 949 363 1097 l 118 1117 b 589 689 393 1147 589 974 b 521 419 589 588 564 493 b 589 149 564 346 589 251 b 118 -278 589 -136 394 -310 l 118 -228 m 174 418 b 288 319 174 358 218 319 b 457 419 354 319 414 357 b 289 519 414 482 354 519 b 174 418 218 519 174 478 "},"[":{"ha":599,"x_min":0,"x_max":0,"o":"m 557 -278 l 118 -278 l 118 1111 l 557 1111 l 557 1065 l 174 1065 l 174 -232 l 557 -232 "},"]":{"ha":599,"x_min":0,"x_max":0,"o":"m 42 1111 l 481 1111 l 481 -278 l 42 -278 l 42 -232 l 425 -232 l 425 1065 l 42 1065 "},"⁽":{"ha":460,"x_min":0,"x_max":0,"o":"m 421 1357 b 111 964 249 1340 111 1186 b 421 571 111 742 249 588 l 421 521 b 56 964 215 539 56 717 b 421 1407 56 1211 215 1389 l 421 1357 "},"⁾":{"ha":460,"x_min":0,"x_max":0,"o":"m 39 1407 b 404 964 244 1389 404 1211 b 39 521 404 717 244 539 l 39 571 b 349 964 211 588 349 742 b 39 1357 349 1186 211 1340 l 39 1407 "},"‚":{"ha":408,"x_min":0,"x_max":0,"o":"m 143 146 l 290 146 l 290 14 b 228 -208 290 -90 283 -139 l 118 -208 b 208 0 201 -139 208 -86 l 143 0 "},"„":{"ha":658,"x_min":0,"x_max":0,"o":"m 143 146 l 290 146 l 290 14 b 228 -208 290 -90 283 -139 l 118 -208 b 208 0 201 -139 208 -86 l 143 0 m 393 146 l 540 146 l 540 14 b 478 -208 540 -90 533 -139 l 368 -208 b 458 0 451 -139 458 -86 l 393 0 "},"“":{"ha":658,"x_min":0,"x_max":0,"o":"m 265 622 l 118 622 l 118 754 b 181 976 118 858 125 907 l 290 976 b 200 768 207 907 200 854 l 265 768 m 515 622 l 368 622 l 368 754 b 431 976 368 858 375 907 l 540 976 b 450 768 457 907 450 854 l 515 768 "},"”":{"ha":658,"x_min":0,"x_max":0,"o":"m 143 972 l 290 972 l 290 840 b 228 618 290 736 283 688 l 118 618 b 208 826 201 688 208 740 l 143 826 m 393 972 l 540 972 l 540 840 b 478 618 540 736 533 688 l 368 618 b 458 826 451 688 458 740 l 393 826 "},"‘":{"ha":408,"x_min":0,"x_max":0,"o":"m 265 622 l 118 622 l 118 754 b 181 976 118 858 125 907 l 290 976 b 200 768 207 907 200 854 l 265 768 "},"’":{"ha":408,"x_min":0,"x_max":0,"o":"m 143 972 l 290 972 l 290 840 b 228 618 290 736 283 688 l 118 618 b 208 826 201 688 208 740 l 143 826 "},"«":{"ha":892,"x_min":0,"x_max":0,"o":"m 165 360 l 447 188 l 447 94 l 83 318 l 83 403 l 447 626 l 447 532 m 526 360 l 808 188 l 808 94 l 444 318 l 444 403 l 808 626 l 808 532 "},"»":{"ha":892,"x_min":0,"x_max":0,"o":"m 726 361 l 444 533 l 444 626 l 808 403 l 808 318 l 444 94 l 444 189 m 365 361 l 83 533 l 83 626 l 447 403 l 447 318 l 83 94 l 83 189 "},"‹":{"ha":531,"x_min":0,"x_max":0,"o":"m 165 360 l 447 188 l 447 94 l 83 318 l 83 403 l 447 626 l 447 532 "},"›":{"ha":531,"x_min":0,"x_max":0,"o":"m 365 361 l 83 533 l 83 626 l 447 403 l 447 318 l 83 94 l 83 189 "},"\"":{"ha":590,"x_min":0,"x_max":0,"o":"m 118 972 l 250 972 l 213 599 l 157 599 m 340 972 l 472 972 l 435 599 l 379 599 "},"'":{"ha":368,"x_min":0,"x_max":0,"o":"m 118 972 l 250 972 l 213 599 l 157 599 "},"ƒ":{"ha":922,"x_min":0,"x_max":0,"o":"m 411 724 b 664 982 411 893 513 982 b 894 800 786 982 878 904 l 801 708 b 665 900 815 838 736 900 b 511 710 571 900 511 839 l 511 549 l 743 549 l 743 467 l 511 467 l 511 246 b 258 -12 511 76 410 -12 b 28 169 136 -12 44 65 l 121 261 b 257 69 107 132 186 69 b 411 260 351 69 411 131 l 411 467 l 183 467 l 183 549 l 411 549 l 411 724 "},"฿":{"ha":922,"x_min":0,"x_max":0,"o":"m 118 972 l 411 972 l 411 1167 l 463 1167 l 463 972 l 489 972 b 769 749 664 972 769 892 b 638 556 769 660 721 590 b 825 296 756 513 825 422 b 463 0 825 115 686 0 l 463 -181 l 411 -181 l 411 0 l 118 0 m 411 90 l 411 507 l 222 507 l 222 90 m 411 597 l 411 882 l 222 882 l 222 597 m 463 90 b 721 296 622 90 721 168 b 463 507 721 426 622 507 l 463 90 m 489 597 b 665 740 599 597 665 651 b 489 882 665 828 599 882 l 463 882 l 463 597 "},"☺":{"ha":1206,"x_min":0,"x_max":0,"o":"m 603 14 b 1078 490 869 14 1078 222 b 603 967 1078 758 869 967 b 128 490 336 967 128 758 b 603 14 128 222 336 14 m 603 -35 b 72 490 306 -35 72 197 b 603 1015 72 783 306 1015 b 1133 490 900 1015 1133 783 b 603 -35 1133 197 900 -35 m 476 447 b 426 617 444 447 426 510 b 476 786 426 724 444 786 b 526 617 508 786 526 724 b 476 447 526 510 508 447 m 436 401 b 410 319 436 371 426 343 b 597 249 464 268 526 249 b 785 319 668 249 731 268 b 760 401 769 343 760 371 l 811 401 b 901 308 811 347 850 308 l 901 260 b 819 285 871 260 843 269 b 597 200 756 222 678 200 b 375 285 517 200 439 222 b 293 260 351 269 324 260 l 293 308 b 385 401 344 308 385 347 l 436 401 m 719 447 b 669 617 688 447 669 510 b 719 786 669 724 688 786 b 769 617 751 786 769 724 b 719 447 769 510 751 447 "},"":{"ha":1793,"x_min":0,"x_max":0,"o":"m 1751 490 b 1210 -32 1751 199 1524 -32 b 897 60 1089 -32 978 3 b 583 -32 815 3 704 -32 b 42 490 269 -32 42 199 b 583 1014 42 782 269 1014 b 897 921 704 1014 815 979 b 1210 1014 978 979 1089 1014 b 1751 490 1524 1014 1751 782 m 1696 490 b 1210 968 1696 760 1490 968 b 936 889 1104 968 1007 939 b 1033 682 997 833 1033 761 b 760 682 1033 464 760 464 b 857 889 760 761 796 833 b 583 968 786 939 689 968 b 97 490 303 968 97 760 b 583 14 97 221 303 14 b 857 92 689 14 786 43 b 760 299 796 149 760 219 b 1033 299 760 517 1033 517 b 936 92 1033 219 997 149 b 1210 14 1007 43 1104 14 b 1696 490 1490 14 1696 221 m 815 299 b 896 124 815 232 846 172 b 978 299 947 172 978 232 b 815 299 978 456 815 456 m 815 682 b 978 682 815 525 978 525 b 897 857 978 749 947 808 b 815 682 846 808 815 749 "},"@":{"ha":1233,"x_min":0,"x_max":0,"o":"m 72 351 b 618 890 72 653 311 890 b 1161 358 922 890 1161 657 b 954 68 1161 183 1079 68 b 800 200 869 68 817 122 b 574 71 758 114 681 71 b 375 239 436 71 375 149 b 606 419 375 358 478 418 l 800 421 b 610 606 800 531 724 606 b 424 443 503 606 428 540 l 371 485 b 613 656 394 586 492 656 b 850 419 758 656 854 561 l 846 278 b 950 113 843 197 867 115 b 1106 358 1044 110 1106 210 b 618 839 1106 635 894 839 b 128 350 339 839 128 629 b 624 -139 128 72 336 -139 b 906 -49 715 -139 817 -118 l 906 -108 b 624 -187 815 -168 711 -187 b 72 351 308 -187 72 51 m 436 246 b 581 118 436 169 489 118 b 797 322 736 118 789 257 l 799 369 l 606 369 b 436 246 503 369 436 329 "},"&":{"ha":1056,"x_min":0,"x_max":0,"o":"m 450 906 b 319 769 372 906 319 847 b 406 593 319 706 356 650 b 579 774 503 633 579 675 b 450 906 579 849 529 906 m 90 263 b 311 554 90 415 197 501 b 219 761 257 618 219 683 b 456 988 219 894 313 988 b 675 774 588 988 675 901 b 468 529 675 640 579 578 l 519 481 l 744 264 b 843 690 810 372 847 519 l 938 579 b 806 204 918 428 872 301 l 1015 1 l 885 1 l 747 132 b 413 -12 658 39 543 -12 b 90 263 240 -12 90 72 m 192 271 b 426 74 192 150 288 74 b 688 189 529 74 618 115 l 443 422 l 374 489 b 192 271 278 446 192 383 "},"¶":{"ha":754,"x_min":0,"x_max":0,"o":"m 414 0 l 363 0 l 363 539 l 300 539 b 56 757 149 539 56 621 b 300 972 56 890 149 972 l 414 972 m 585 972 l 636 972 l 636 0 l 585 0 "},"§":{"ha":713,"x_min":0,"x_max":0,"o":"m 67 482 b 188 638 67 560 118 611 b 108 783 140 665 108 708 b 357 986 108 925 225 986 b 619 794 497 986 596 917 l 519 703 b 351 904 542 842 447 904 b 210 793 276 904 210 865 b 646 488 210 608 646 747 b 525 332 646 410 594 358 b 604 186 572 304 604 261 b 356 -17 604 44 488 -17 b 93 175 215 -17 117 53 l 193 267 b 361 65 171 128 265 65 b 503 176 436 65 503 104 b 67 482 503 361 67 222 m 168 501 b 460 358 168 385 333 397 b 544 468 510 378 544 415 b 253 611 544 585 379 572 b 168 501 203 592 168 554 "},"©":{"ha":1206,"x_min":0,"x_max":0,"o":"m 603 14 b 1078 490 869 14 1078 222 b 603 967 1078 758 869 967 b 128 490 336 967 128 758 b 603 14 128 222 336 14 m 603 -35 b 72 490 306 -35 72 197 b 603 1015 72 783 306 1015 b 1133 490 900 1015 1133 783 b 603 -35 1133 197 900 -35 m 379 494 b 610 253 379 354 476 253 b 817 386 706 253 783 300 l 851 335 b 610 204 804 253 711 204 b 324 494 444 204 324 326 b 610 785 324 663 444 785 b 851 654 711 785 804 736 l 817 604 b 610 736 783 689 706 736 b 379 494 476 736 379 635 "},"®":{"ha":721,"x_min":0,"x_max":0,"o":"m 360 401 b 631 675 511 401 631 521 b 360 947 631 829 511 947 b 90 675 208 947 90 829 b 360 401 90 521 208 401 m 360 360 b 42 675 181 360 42 499 b 360 989 42 851 181 989 b 679 675 539 989 679 851 b 360 360 679 499 539 360 m 242 833 l 392 833 b 485 756 451 833 485 804 b 435 688 485 724 468 699 b 469 615 458 676 469 656 l 469 606 b 507 525 469 578 472 554 l 447 525 b 422 606 425 542 422 575 l 422 617 b 364 671 422 664 401 671 l 289 671 l 289 525 l 242 525 m 392 714 b 436 751 421 714 436 728 b 392 789 436 776 421 789 l 289 789 l 289 714 "},"℗":{"ha":721,"x_min":0,"x_max":0,"o":"m 360 401 b 631 675 511 401 631 521 b 360 947 631 829 511 947 b 90 675 208 947 90 829 b 360 401 90 521 208 401 m 360 360 b 42 675 181 360 42 499 b 360 989 42 851 181 989 b 679 675 539 989 679 851 b 360 360 679 499 539 360 m 258 833 l 408 833 b 501 747 464 833 501 799 b 407 663 501 697 464 663 l 306 663 l 306 525 l 258 525 m 408 706 b 453 747 435 706 453 722 b 408 789 453 772 435 789 l 306 789 l 306 706 "},"™":{"ha":981,"x_min":0,"x_max":0,"o":"m 415 935 l 243 935 l 243 586 l 193 586 l 193 935 l 28 935 l 28 978 l 415 978 m 528 914 l 528 586 l 478 586 l 478 978 l 544 978 l 671 757 l 799 978 l 863 978 l 863 586 l 813 586 l 813 914 l 671 672 "},"°":{"ha":563,"x_min":0,"x_max":0,"o":"m 281 617 b 442 779 369 617 442 688 b 281 942 442 871 369 942 b 121 779 192 942 121 871 b 281 617 121 688 192 617 m 281 575 b 72 779 164 575 72 665 b 281 983 72 893 164 983 b 490 779 397 983 490 893 b 281 575 490 665 397 575 "},"′":{"ha":368,"x_min":0,"x_max":0,"o":"m 118 972 l 250 972 l 174 599 l 118 599 "},"″":{"ha":590,"x_min":0,"x_max":0,"o":"m 118 972 l 250 972 l 174 599 l 118 599 m 340 972 l 472 972 l 396 599 l 340 599 "},"|":{"ha":288,"x_min":0,"x_max":0,"o":"m 118 1111 l 169 1111 l 169 -278 l 118 -278 "},"¦":{"ha":288,"x_min":0,"x_max":0,"o":"m 118 1111 l 169 1111 l 169 667 l 118 667 m 118 167 l 169 167 l 169 -278 l 118 -278 "},"†":{"ha":574,"x_min":0,"x_max":0,"o":"m 263 724 l 42 724 l 42 769 l 263 769 l 263 986 l 314 986 l 314 769 l 532 769 l 532 724 l 314 724 l 314 232 l 263 232 "},"‡":{"ha":907,"x_min":0,"x_max":0,"o":"m 263 724 l 42 724 l 42 769 l 263 769 l 263 986 l 314 986 l 314 769 l 596 769 l 596 986 l 647 986 l 647 769 l 865 769 l 865 724 l 647 724 l 647 232 l 596 232 l 596 724 l 314 724 l 314 232 l 263 232 "},"¢":{"ha":790,"x_min":0,"x_max":0,"o":"m 164 486 b 396 217 164 346 249 229 l 396 756 b 164 486 249 743 164 626 m 396 128 b 60 486 186 139 60 285 b 396 844 60 688 186 833 l 396 1014 l 447 1014 l 447 843 b 725 703 571 836 672 783 l 669 579 b 447 756 631 690 551 749 l 447 217 b 669 393 551 224 631 282 l 725 269 b 447 129 672 189 571 136 l 447 -42 l 396 -42 "},"¤":{"ha":894,"x_min":0,"x_max":0,"o":"m 447 114 b 275 151 382 114 325 128 l 150 0 l 81 0 l 228 179 b 88 472 139 242 88 346 b 243 775 88 604 146 713 l 81 972 l 150 972 l 292 800 b 447 829 338 819 390 829 b 603 800 504 829 557 819 l 744 972 l 814 972 l 651 775 b 807 472 749 713 807 604 b 667 179 807 346 756 242 l 814 0 l 744 0 l 619 151 b 447 114 569 128 513 114 m 447 201 b 703 472 596 201 703 315 b 447 742 703 629 596 742 b 192 472 299 742 192 629 b 447 201 192 315 299 201 "},"$":{"ha":875,"x_min":0,"x_max":0,"o":"m 414 -14 b 71 254 219 -4 103 100 l 168 369 b 414 71 161 172 279 85 l 414 467 b 124 738 269 504 124 550 b 414 989 124 903 256 983 l 414 1167 l 465 1167 l 465 988 b 761 740 622 976 731 890 l 664 625 b 465 908 671 808 571 892 l 465 563 b 800 263 622 521 800 479 b 465 -14 800 78 643 -7 l 465 -181 l 414 -181 m 231 747 b 414 576 231 644 313 606 l 414 911 b 231 747 321 906 231 847 m 465 69 b 693 257 585 74 693 138 b 465 454 693 385 586 422 l 465 69 "},"€":{"ha":964,"x_min":0,"x_max":0,"o":"m 900 188 b 558 -11 838 64 707 -11 b 158 389 336 -11 189 139 l 14 389 l 14 438 l 154 438 b 153 490 153 454 153 472 b 154 550 153 511 153 531 l 14 550 l 14 599 l 160 599 b 558 990 192 844 338 990 b 896 800 704 990 832 918 l 831 668 b 558 900 799 813 696 900 b 265 599 399 900 293 788 l 796 599 l 775 550 l 260 550 b 257 490 258 531 257 511 b 258 438 257 472 257 454 l 733 438 l 713 389 l 264 389 b 558 79 290 194 397 79 b 833 322 700 79 804 172 l 900 188 "},"₲":{"ha":942,"x_min":0,"x_max":0,"o":"m 754 210 b 515 -7 710 83 625 11 l 515 -181 l 464 -181 l 464 -11 l 458 -11 b 56 488 218 -11 56 199 b 464 990 56 772 214 976 l 464 1167 l 515 1167 l 515 989 b 854 758 671 981 789 894 l 789 626 b 515 899 756 793 646 888 l 515 542 l 858 542 l 858 0 l 754 0 m 160 490 b 464 79 160 258 283 90 l 464 899 b 160 490 285 885 160 718 m 515 81 b 754 433 643 96 751 200 l 754 451 l 515 451 l 515 81 "},"₴":{"ha":968,"x_min":0,"x_max":0,"o":"m 599 600 b 696 742 657 629 696 672 b 499 911 696 854 597 911 b 263 625 382 911 254 831 l 165 740 b 493 989 199 900 319 989 b 803 746 661 989 803 906 b 747 600 803 689 785 638 l 910 600 l 910 551 l 58 551 l 58 600 m 910 447 l 910 399 l 299 399 b 239 264 264 369 239 325 b 481 69 239 131 354 69 b 764 369 629 69 771 154 l 861 254 b 490 -14 828 93 701 -14 b 132 256 292 -14 132 81 b 175 399 132 311 149 363 l 58 399 l 58 447 "},"₺":{"ha":915,"x_min":0,"x_max":0,"o":"m 217 411 l 56 347 l 56 400 l 217 464 l 217 588 l 56 524 l 56 576 l 217 640 l 217 972 l 321 972 l 321 682 l 671 821 l 671 768 l 321 629 l 321 506 l 671 644 l 671 592 l 321 453 l 321 90 b 769 483 596 90 769 242 l 860 483 b 318 0 860 186 650 0 l 217 0 "},"₽":{"ha":953,"x_min":0,"x_max":0,"o":"m 575 972 b 897 703 775 972 897 869 b 575 431 897 533 775 431 l 322 431 l 322 326 l 643 326 l 643 278 l 322 278 l 322 0 l 218 0 l 218 278 l 56 278 l 56 326 l 218 326 l 218 431 l 56 431 l 56 479 l 218 479 l 218 972 l 575 972 m 575 521 b 793 703 710 521 793 590 b 575 882 793 814 710 882 l 322 882 l 322 521 "},"₹":{"ha":825,"x_min":0,"x_max":0,"o":"m 796 972 l 796 924 l 540 924 b 635 751 599 886 631 826 l 796 751 l 796 703 l 632 703 b 457 511 621 607 563 538 b 583 276 547 481 583 411 l 583 242 b 678 0 583 144 600 51 l 544 0 b 476 242 485 51 472 146 l 478 276 b 261 486 485 453 385 486 l 44 486 l 44 576 l 354 576 b 529 703 454 576 518 625 l 44 703 l 44 751 l 529 751 b 354 882 519 833 454 882 l 44 882 l 44 972 "},"₪":{"ha":951,"x_min":0,"x_max":0,"o":"m 383 972 b 611 704 531 972 611 878 l 611 278 l 560 278 l 560 699 b 383 875 560 813 497 875 l 169 875 l 169 0 l 118 0 l 118 972 l 383 972 m 568 0 b 340 268 421 0 340 94 l 340 694 l 392 694 l 392 274 b 568 97 392 160 454 97 l 782 97 l 782 972 l 833 972 l 833 0 l 568 0 "},"£":{"ha":875,"x_min":0,"x_max":0,"o":"m 251 446 b 138 719 197 522 138 604 b 444 989 138 879 260 989 b 775 726 611 989 744 883 l 678 611 b 442 904 685 788 590 904 b 246 725 324 904 246 831 b 376 446 246 614 321 539 l 732 446 l 732 397 l 403 397 b 438 247 424 354 438 306 b 421 147 438 214 432 179 b 576 68 461 104 504 68 b 768 240 671 68 747 135 l 817 110 b 604 -19 753 -7 649 -19 b 393 88 493 -19 438 32 b 211 -14 356 29 294 -14 b 206 283 -11 -14 -7 283 b 332 239 260 283 299 265 l 332 253 b 283 397 332 306 311 353 l 103 397 l 103 446 m 204 233 b 206 65 88 233 88 65 b 322 179 264 65 306 111 b 204 233 293 211 258 233 "},"¥":{"ha":936,"x_min":0,"x_max":0,"o":"m 469 553 l 756 972 l 874 972 l 525 472 l 825 472 l 825 424 l 521 424 l 521 319 l 825 319 l 825 271 l 521 271 l 521 0 l 417 0 l 417 271 l 113 271 l 113 319 l 417 319 l 417 424 l 113 424 l 113 472 l 411 472 l 63 972 l 183 972 "},"+":{"ha":796,"x_min":0,"x_max":0,"o":"m 374 400 l 374 690 l 422 690 l 422 400 l 713 400 l 713 351 l 422 351 l 422 61 l 374 61 l 374 351 l 83 351 l 83 400 "},"−":{"ha":796,"x_min":0,"x_max":0,"o":"m 713 400 l 713 351 l 83 351 l 83 400 "},"×":{"ha":796,"x_min":0,"x_max":0,"o":"m 399 411 l 632 644 l 667 610 l 433 376 l 667 142 l 632 107 l 399 342 l 164 107 l 129 142 l 364 376 l 129 610 l 164 644 "},"÷":{"ha":796,"x_min":0,"x_max":0,"o":"m 713 400 l 713 351 l 83 351 l 83 400 m 325 204 l 472 204 l 472 58 l 325 58 m 325 696 l 472 696 l 472 550 l 325 550 "},"=":{"ha":796,"x_min":0,"x_max":0,"o":"m 713 247 l 713 199 l 83 199 l 83 247 m 713 553 l 713 504 l 83 504 l 83 553 "},"≠":{"ha":796,"x_min":0,"x_max":0,"o":"m 263 247 l 478 504 l 83 504 l 83 553 l 518 553 l 636 694 l 697 694 l 579 553 l 713 553 l 713 504 l 539 504 l 324 247 l 713 247 l 713 199 l 283 199 l 158 49 l 97 49 l 222 199 l 83 199 l 83 247 "},">":{"ha":796,"x_min":0,"x_max":0,"o":"m 642 376 l 83 571 l 83 622 l 713 400 l 713 351 l 83 129 l 83 181 "},"<":{"ha":796,"x_min":0,"x_max":0,"o":"m 713 129 l 83 351 l 83 400 l 713 622 l 713 571 l 154 376 l 713 181 "},"≥":{"ha":796,"x_min":0,"x_max":0,"o":"m 642 474 l 83 668 l 83 719 l 713 497 l 713 449 l 83 226 l 83 278 m 713 121 l 713 72 l 83 72 l 83 121 "},"≤":{"ha":796,"x_min":0,"x_max":0,"o":"m 713 226 l 83 449 l 83 497 l 713 719 l 713 668 l 154 474 l 713 278 m 713 72 l 83 72 l 83 121 l 713 121 "},"±":{"ha":796,"x_min":0,"x_max":0,"o":"m 713 121 l 713 72 l 83 72 l 83 121 m 374 497 l 374 718 l 422 718 l 422 497 l 713 497 l 713 449 l 422 449 l 422 228 l 374 228 l 374 449 l 83 449 l 83 497 "},"≈":{"ha":676,"x_min":0,"x_max":0,"o":"m 619 321 b 489 129 649 179 568 129 b 164 290 347 129 279 290 b 96 142 114 290 68 260 l 46 142 b 171 335 17 288 96 335 b 496 174 308 335 376 174 b 569 321 547 174 597 204 l 619 321 m 619 582 b 489 390 649 440 568 390 b 164 551 347 390 279 551 b 96 403 114 551 68 521 l 46 403 b 171 596 17 549 96 596 b 496 435 308 596 376 435 b 569 582 547 435 597 465 l 619 582 "},"~":{"ha":676,"x_min":0,"x_max":0,"o":"m 619 460 b 489 268 649 318 568 268 b 164 429 347 268 279 429 b 96 281 114 429 68 399 l 46 281 b 171 474 17 426 96 474 b 496 313 308 474 376 313 b 569 460 547 313 597 343 l 619 460 "},"¬":{"ha":796,"x_min":0,"x_max":0,"o":"m 713 400 l 713 135 l 664 135 l 664 351 l 83 351 l 83 400 "},"^":{"ha":661,"x_min":0,"x_max":0,"o":"m 490 546 l 331 910 l 171 546 l 118 546 l 308 975 l 353 975 l 543 546 "},"∞":{"ha":1628,"x_min":0,"x_max":0,"o":"m 419 54 b 136 347 254 54 136 179 b 419 640 136 515 254 640 b 814 386 574 640 685 532 b 1208 640 943 532 1054 640 b 1492 347 1374 640 1492 515 b 1208 54 1492 179 1374 54 b 814 308 1054 54 943 163 b 419 54 685 163 574 54 m 419 100 b 779 347 550 100 647 197 b 419 594 647 496 550 594 b 192 347 288 594 192 493 b 419 100 192 201 288 100 m 1208 100 b 1436 347 1340 100 1436 201 b 1208 594 1436 493 1340 594 b 849 347 1078 594 981 496 b 1208 100 981 197 1078 100 "},"∫":{"ha":622,"x_min":0,"x_max":0,"o":"m 615 1067 b 339 829 446 1104 339 994 l 339 11 b 7 -278 339 -183 203 -314 l 7 -228 b 283 11 175 -264 283 -156 l 283 829 b 615 1117 283 1024 419 1154 l 615 1067 "},"∆":{"ha":907,"x_min":0,"x_max":0,"o":"m 419 972 l 488 972 l 849 0 l 58 0 m 776 49 l 454 918 l 131 49 "},"∏":{"ha":1063,"x_min":0,"x_max":0,"o":"m 1035 882 l 801 882 l 801 0 l 697 0 l 697 882 l 365 882 l 365 0 l 261 0 l 261 882 l 28 882 l 28 972 l 1035 972 "},"∑":{"ha":800,"x_min":0,"x_max":0,"o":"m 56 76 l 369 486 l 56 896 l 56 972 l 772 972 l 772 882 l 183 882 l 486 486 l 183 90 l 772 90 l 772 0 l 56 0 "},"√":{"ha":1090,"x_min":0,"x_max":0,"o":"m 1063 928 l 646 928 l 326 -7 l 250 -7 l 14 693 l 68 693 l 288 42 l 289 42 l 608 976 l 1063 976 "},"∂":{"ha":846,"x_min":0,"x_max":0,"o":"m 400 -14 b 74 340 206 -14 74 139 b 396 676 74 540 203 676 b 703 403 571 676 689 564 b 704 454 704 422 704 442 b 231 942 704 808 450 944 l 231 983 b 753 456 501 983 753 818 b 400 -14 753 207 635 -14 m 674 333 b 396 631 674 514 561 631 b 129 339 232 631 129 514 b 403 33 129 156 242 33 b 674 333 567 33 674 157 "},"µ":{"ha":796,"x_min":0,"x_max":0,"o":"m 389 61 b 593 289 506 61 583 142 l 593 694 l 693 694 l 693 0 l 593 0 l 593 124 b 367 -17 553 38 478 -17 b 204 44 296 -17 242 4 l 204 -278 l 104 -278 l 104 694 l 206 694 l 206 269 b 389 61 206 132 282 61 "},"%":{"ha":1207,"x_min":0,"x_max":0,"o":"m 304 453 b 60 718 157 453 60 558 b 304 982 60 876 157 982 b 549 718 451 982 549 876 b 304 453 549 558 451 453 m 304 501 b 493 718 417 501 493 588 b 304 933 493 849 417 935 b 115 718 192 935 115 849 b 304 501 115 588 192 501 m 906 972 l 967 972 l 296 0 l 235 0 m 903 -14 b 658 251 756 -14 658 92 b 903 515 658 410 756 515 b 1147 251 1050 515 1147 410 b 903 -14 1147 92 1050 -14 m 903 35 b 1092 251 1015 35 1092 121 b 903 467 1092 382 1015 468 b 714 251 790 468 714 382 b 903 35 714 121 790 35 "},"‰":{"ha":1776,"x_min":0,"x_max":0,"o":"m 304 453 b 60 718 157 453 60 558 b 304 982 60 876 157 982 b 549 718 451 982 549 876 b 304 453 549 558 451 453 m 304 501 b 493 718 417 501 493 588 b 304 933 493 849 417 935 b 115 718 192 935 115 849 b 304 501 115 588 192 501 m 906 972 l 967 972 l 296 0 l 235 0 m 903 -14 b 658 251 756 -14 658 92 b 903 515 658 410 756 515 b 1147 251 1050 515 1147 410 b 903 -14 1147 92 1050 -14 m 903 35 b 1092 251 1015 35 1092 121 b 903 467 1092 382 1015 468 b 714 251 790 468 714 382 b 903 35 714 121 790 35 m 1472 -14 b 1228 251 1325 -14 1228 92 b 1472 515 1228 410 1325 515 b 1717 251 1619 515 1717 410 b 1472 -14 1717 92 1619 -14 m 1472 35 b 1661 251 1585 35 1661 121 b 1472 467 1661 382 1585 468 b 1283 251 1360 468 1283 382 b 1472 35 1283 121 1360 35 "},"↑":{"ha":614,"x_min":0,"x_max":0,"o":"m 267 779 l 118 779 l 307 1003 l 496 779 l 349 779 l 349 0 l 267 0 "},"↗":{"ha":708,"x_min":0,"x_max":0,"o":"m 590 972 l 590 676 l 471 796 l 383 708 b 200 261 263 589 200 436 l 200 0 l 118 0 l 118 261 b 329 771 118 476 190 633 l 413 854 l 294 972 "},"→":{"ha":990,"x_min":0,"x_max":0,"o":"m 697 417 l 697 565 l 921 376 l 697 188 l 697 335 l 83 335 l 83 417 "},"↘":{"ha":708,"x_min":0,"x_max":0,"o":"m 413 118 l 329 201 b 118 711 190 339 118 496 l 118 972 l 200 972 l 200 711 b 383 264 200 536 263 383 l 471 176 l 590 296 l 590 0 l 294 0 "},"↓":{"ha":614,"x_min":0,"x_max":0,"o":"m 347 193 l 496 193 l 307 -31 l 118 193 l 265 193 l 265 972 l 347 972 "},"↙":{"ha":708,"x_min":0,"x_max":0,"o":"m 118 0 l 118 296 l 238 176 l 325 264 b 508 711 446 383 508 536 l 508 972 l 590 972 l 590 711 b 379 201 590 496 518 339 l 296 118 l 414 0 "},"←":{"ha":990,"x_min":0,"x_max":0,"o":"m 907 335 l 293 335 l 293 188 l 69 376 l 293 565 l 293 417 l 907 417 "},"↖":{"ha":708,"x_min":0,"x_max":0,"o":"m 296 854 l 379 771 b 590 261 518 633 590 476 l 590 0 l 508 0 l 508 261 b 325 708 508 436 446 589 l 238 796 l 118 676 l 118 972 l 414 972 "},"↔":{"ha":1172,"x_min":0,"x_max":0,"o":"m 69 376 l 293 565 l 293 418 l 879 418 l 879 565 l 1103 376 l 879 188 l 879 335 l 293 335 l 293 188 "},"↕":{"ha":614,"x_min":0,"x_max":0,"o":"m 307 1003 l 496 779 l 349 779 l 349 193 l 496 193 l 307 -31 l 118 193 l 265 193 l 265 779 l 118 779 "},"●":{"ha":1206,"x_min":0,"x_max":0,"o":"m 603 -33 b 72 490 304 -33 72 199 b 603 1014 72 782 304 1014 b 1133 490 901 1014 1133 782 b 603 -33 1133 199 901 -33 "},"○":{"ha":1206,"x_min":0,"x_max":0,"o":"m 603 14 b 1078 490 869 14 1078 222 b 603 967 1078 758 869 967 b 128 490 336 967 128 758 b 603 14 128 222 336 14 m 603 -35 b 72 490 306 -35 72 197 b 603 1015 72 783 306 1015 b 1133 490 900 1015 1133 783 b 603 -35 1133 197 900 -35 "},"◌":{"ha":1194,"x_min":0,"x_max":0,"o":"m 72 546 b 186 824 82 651 122 746 l 225 793 b 122 540 169 724 132 638 l 72 546 m 190 151 b 72 432 125 229 83 326 l 122 438 b 229 182 133 340 172 251 l 190 151 m 269 904 b 540 1011 344 961 439 1001 l 546 964 b 300 865 453 954 369 919 l 269 904 m 540 -32 b 272 72 440 -22 347 17 l 303 111 b 546 15 372 58 454 25 l 540 -32 m 931 79 b 654 -32 856 19 758 -22 l 649 15 b 900 118 744 25 828 61 l 931 79 m 654 1011 b 936 894 761 1001 860 958 l 903 858 b 649 964 832 917 747 954 l 654 1011 m 1122 432 b 1014 161 1111 331 1074 238 l 972 192 b 1072 438 1026 260 1061 344 l 1122 432 m 1017 815 b 1122 546 1075 739 1113 646 l 1072 540 b 975 785 1063 635 1028 717 l 1017 815 "},"◊":{"ha":719,"x_min":0,"x_max":0,"o":"m 382 -14 l 338 -14 l 78 481 l 338 975 l 382 975 l 642 481 m 360 915 l 131 481 l 360 46 l 589 481 "},"■":{"ha":1208,"x_min":0,"x_max":0,"o":"m 1090 972 l 1090 0 l 118 0 l 118 972 "},"□":{"ha":1208,"x_min":0,"x_max":0,"o":"m 169 49 l 1039 49 l 1039 924 l 169 924 m 1090 972 l 1090 0 l 118 0 l 118 972 "},"̈":{"ha":0,"x_min":0,"x_max":0,"o":"m 118 979 l 258 979 l 258 840 l 118 840 m 383 979 l 524 979 l 524 840 l 383 840 "},"̇":{"ha":0,"x_min":0,"x_max":0,"o":"m 118 983 l 265 983 l 265 836 l 118 836 "},"̀":{"ha":0,"x_min":0,"x_max":0,"o":"m 286 796 l 56 1029 l 211 1029 l 342 796 "},"́":{"ha":0,"x_min":0,"x_max":0,"o":"m 214 1029 l 369 1029 l 139 796 l 83 796 "},"̋":{"ha":0,"x_min":0,"x_max":0,"o":"m 181 1029 l 328 1029 l 139 796 l 83 796 m 422 1029 l 578 1029 l 347 796 l 292 796 "},"̂":{"ha":0,"x_min":0,"x_max":0,"o":"m 275 943 l 135 792 l 24 792 l 242 1029 l 310 1029 l 528 792 l 415 792 "},"̌":{"ha":0,"x_min":0,"x_max":0,"o":"m 276 878 l 417 1029 l 528 1029 l 310 792 l 242 792 l 24 1029 l 136 1029 "},"̆":{"ha":0,"x_min":0,"x_max":0,"o":"m 133 1024 b 268 867 138 933 188 867 b 403 1024 349 867 397 933 l 492 1024 b 268 789 492 889 403 789 b 43 1024 133 789 43 889 l 133 1024 "},"̊":{"ha":0,"x_min":0,"x_max":0,"o":"m 204 785 b 60 922 119 785 60 842 b 204 1058 60 1001 119 1058 b 349 922 289 1058 349 1001 b 204 785 349 842 289 785 m 204 853 b 269 922 242 853 269 882 b 204 990 269 961 242 990 b 139 922 167 990 139 961 b 204 853 139 882 167 853 "},"̃":{"ha":0,"x_min":0,"x_max":0,"o":"m 196 925 b 139 821 154 925 125 890 l 57 821 b 196 1000 43 939 101 1000 b 425 896 319 1000 351 896 b 482 1000 467 896 496 931 l 564 1000 b 425 821 578 882 519 821 b 196 925 301 821 269 925 "},"̄":{"ha":0,"x_min":0,"x_max":0,"o":"m 574 960 l 574 878 l 83 878 l 83 960 "},"̒":{"ha":0,"x_min":0,"x_max":0,"o":"m 265 839 l 118 839 l 118 889 b 181 1111 118 993 125 1042 l 290 1111 b 206 985 236 1067 214 1029 l 265 985 "},"̣":{"ha":0,"x_min":0,"x_max":0,"o":"m 118 -81 l 265 -81 l 265 -228 l 118 -228 "},"̦":{"ha":0,"x_min":0,"x_max":0,"o":"m 143 -81 l 290 -81 l 290 -131 b 228 -353 290 -235 283 -283 l 118 -353 b 203 -226 172 -308 194 -271 l 143 -226 "},"̧":{"ha":0,"x_min":0,"x_max":0,"o":"m 233 0 l 228 -42 b 335 -167 290 -53 335 -101 b 197 -297 335 -243 276 -297 b 60 -185 117 -297 67 -247 l 138 -128 b 197 -231 124 -207 163 -231 b 257 -167 232 -231 257 -204 b 183 -104 257 -131 231 -104 l 156 -104 l 172 0 "},"̨":{"ha":0,"x_min":0,"x_max":0,"o":"m 296 0 b 229 -204 122 0 121 -204 b 335 -126 263 -204 300 -192 l 335 -243 b 218 -286 300 -274 251 -286 b 282 35 14 -286 14 35 l 296 0 "},"¨":{"ha":642,"x_min":0,"x_max":0,"o":"m 118 979 l 258 979 l 258 840 l 118 840 m 383 979 l 524 979 l 524 840 l 383 840 "},"˙":{"ha":383,"x_min":0,"x_max":0,"o":"m 118 983 l 265 983 l 265 836 l 118 836 "},"`":{"ha":425,"x_min":0,"x_max":0,"o":"m 286 796 l 56 1029 l 211 1029 l 342 796 "},"´":{"ha":425,"x_min":0,"x_max":0,"o":"m 214 1029 l 369 1029 l 139 796 l 83 796 "},"˝":{"ha":633,"x_min":0,"x_max":0,"o":"m 181 1029 l 328 1029 l 139 796 l 83 796 m 422 1029 l 578 1029 l 347 796 l 292 796 "},"ˆ":{"ha":551,"x_min":0,"x_max":0,"o":"m 275 943 l 135 792 l 24 792 l 242 1029 l 310 1029 l 528 792 l 415 792 "},"ˇ":{"ha":551,"x_min":0,"x_max":0,"o":"m 276 878 l 417 1029 l 528 1029 l 310 792 l 242 792 l 24 1029 l 136 1029 "},"˘":{"ha":535,"x_min":0,"x_max":0,"o":"m 133 1024 b 268 867 138 933 188 867 b 403 1024 349 867 397 933 l 492 1024 b 268 789 492 889 403 789 b 43 1024 133 789 43 889 l 133 1024 "},"˚":{"ha":408,"x_min":0,"x_max":0,"o":"m 204 785 b 60 922 119 785 60 842 b 204 1058 60 1001 119 1058 b 349 922 289 1058 349 1001 b 204 785 349 842 289 785 m 204 853 b 269 922 242 853 269 882 b 204 990 269 961 242 990 b 139 922 167 990 139 961 b 204 853 139 882 167 853 "},"˜":{"ha":621,"x_min":0,"x_max":0,"o":"m 196 925 b 139 821 154 925 125 890 l 57 821 b 196 1000 43 939 101 1000 b 425 896 319 1000 351 896 b 482 1000 467 896 496 931 l 564 1000 b 425 821 578 882 519 821 b 196 925 301 821 269 925 "},"¯":{"ha":657,"x_min":0,"x_max":0,"o":"m 574 960 l 574 878 l 83 878 l 83 960 "},"¸":{"ha":394,"x_min":0,"x_max":0,"o":"m 233 0 l 228 -42 b 335 -167 290 -53 335 -101 b 197 -297 335 -243 276 -297 b 60 -185 117 -297 67 -247 l 138 -128 b 197 -231 124 -207 163 -231 b 257 -167 232 -231 257 -204 b 183 -104 257 -131 231 -104 l 156 -104 l 172 0 "},"˛":{"ha":344,"x_min":0,"x_max":0,"o":"m 296 0 b 229 -204 122 0 121 -204 b 335 -126 263 -204 300 -192 l 335 -243 b 218 -286 300 -274 251 -286 b 282 35 14 -286 14 35 l 296 0 "}}}
